<svg width="110" height="23" viewBox="0 0 110 23" fill="none" xmlns="http://www.w3.org/2000/svg">
<g id="Group 5">
<g id="Clip path group">
<mask id="mask0_937_4401" style="mask-type:luminance" maskUnits="userSpaceOnUse" x="0" y="0" width="24" height="24">
<g id="clip0_24_3">
<path id="Vector" d="M23.6812 0.231445H0V23.0008H23.6812V0.231445Z" fill="white"/>
</g>
</mask>
<g mask="url(#mask0_937_4401)">
<g id="Group">
<path id="Vector_2" d="M11.8407 6.81004C11.9941 6.71196 12.1337 6.6171 12.2789 6.53084C12.5887 6.3468 12.9194 6.19954 13.2642 6.09227C13.485 6.02396 13.7192 5.99915 13.9458 5.94515C14.3476 5.84839 14.7552 5.88312 15.1596 5.89801C15.361 5.91392 15.5607 5.94792 15.7561 5.99973C15.9169 6.0352 16.0753 6.08482 16.2336 6.13065C16.5776 6.23559 16.9055 6.38606 17.2089 6.57798C17.7054 6.87863 18.1396 7.27021 18.4883 7.73199C18.7577 8.07322 18.9704 8.45487 19.1187 8.86236C19.2103 9.10697 19.2875 9.35654 19.3498 9.61005C19.41 9.86108 19.4387 10.1187 19.4349 10.3769C19.426 10.6194 19.4385 10.8639 19.4191 11.1051C19.3995 11.2838 19.3665 11.4607 19.3203 11.6343C19.2802 11.8032 19.2308 11.9706 19.1782 12.137C19.0846 12.4067 18.965 12.6671 18.8214 12.9143C18.5241 13.4584 18.084 13.8828 17.6502 14.3128C17.0336 14.9233 16.4177 15.5344 15.7961 16.1399C15.0494 16.8615 14.1867 17.4548 13.2434 17.8957C12.8925 18.0582 12.5322 18.2001 12.1643 18.3207C11.8209 18.4358 11.4705 18.5292 11.1152 18.6004C10.7587 18.6734 10.3978 18.7239 10.0348 18.7518C9.65489 18.7791 9.27557 18.8138 8.89493 18.789C8.47497 18.76 8.05309 18.727 7.63681 18.665C7.30505 18.6147 6.97948 18.5216 6.65214 18.4417C5.93533 18.2598 5.24678 17.9824 4.60521 17.617C3.74658 17.1418 2.97249 16.5297 2.31427 15.8055C1.86501 15.3105 1.46964 14.7697 1.13494 14.1924C0.869593 13.7363 0.647686 13.2567 0.472015 12.7599C0.357454 12.4366 0.28427 12.099 0.194741 11.7672C-0.0180369 10.9607 -0.0193614 10.1423 0.0195129 9.32093C0.0386555 9.06391 0.0756154 8.8085 0.130246 8.55645C0.192827 8.24631 0.248635 7.93982 0.338163 7.64019C0.462001 7.22745 0.617646 6.82493 0.803772 6.43597C1.05027 5.91903 1.34359 5.42543 1.68021 4.96117C2.04215 4.46932 2.44768 4.01046 2.89194 3.59013C3.36108 3.14426 3.86836 2.73955 4.40804 2.38081C4.90516 2.04396 5.42981 1.749 5.9767 1.49928C6.43053 1.29452 6.89629 1.11267 7.36513 0.940887C7.67804 0.829236 7.99728 0.751592 8.31711 0.669715C8.59762 0.598346 8.88049 0.537631 9.16542 0.48363C9.41575 0.435175 9.66608 0.402922 9.91655 0.359575C10.8986 0.19086 11.8896 0.223697 12.8785 0.254054C13.1627 0.262811 13.4463 0.316081 13.7298 0.354611C13.8944 0.375628 14.059 0.397376 14.2225 0.425252C14.4216 0.459987 14.6193 0.499101 14.8171 0.540697C15.025 0.584189 15.2328 0.626952 15.438 0.680369C15.6828 0.742397 15.9263 0.813619 16.1674 0.890679C16.3732 0.956356 16.5773 1.02962 16.7776 1.1096C17.0975 1.23687 17.4193 1.36151 17.7303 1.50731C18.5739 1.90735 19.3687 2.40124 20.0996 2.97963C20.477 3.2816 20.834 3.60765 21.1687 3.95544C21.5534 4.36118 21.9047 4.79698 22.2191 5.25832C22.48 5.64173 22.7102 6.04483 22.9076 6.46385C23.0724 6.79968 23.2068 7.14937 23.3095 7.50869C23.3595 7.69478 23.4285 7.88086 23.4766 8.06694C23.513 8.20603 23.5298 8.34993 23.5548 8.49136C23.5887 8.68372 23.6225 8.87666 23.6543 9.06902C23.6646 9.11966 23.6704 9.17119 23.6719 9.22285C23.6719 9.73469 23.6838 10.2465 23.6688 10.7578C23.6618 10.9817 23.6062 11.2051 23.5655 11.4278C23.5442 11.5519 23.5217 11.6809 23.4935 11.8063C23.4491 12.0004 23.409 12.1965 23.3501 12.387C23.2875 12.5973 23.203 12.8014 23.1267 13.0074C22.9449 13.4799 22.7208 13.9352 22.4569 14.368C22.2197 14.77 21.9324 15.1361 21.6551 15.5096C21.3677 15.8839 21.14 16.2999 20.9803 16.743C20.8899 16.987 20.8121 17.2354 20.7475 17.4874C20.6936 17.7213 20.6805 17.9651 20.646 18.2046C20.6138 18.4351 20.6138 18.669 20.646 18.8995C20.6774 19.1241 20.6986 19.3505 20.7399 19.5726C20.7681 19.7396 20.8124 19.9033 20.8726 20.0615C20.9841 20.3413 21.1093 20.6156 21.24 20.8873C21.3133 21.0381 21.4172 21.1745 21.4949 21.3216C21.6028 21.5298 21.6441 21.7656 21.6131 21.9975C21.5821 22.2296 21.4803 22.4466 21.3214 22.6197C21.1626 22.7928 20.9541 22.9136 20.7239 22.966C20.4939 23.0184 20.253 22.9999 20.0339 22.9129C19.7784 22.8175 19.5156 22.7398 19.257 22.6499C18.711 22.4592 18.1825 22.2219 17.6777 21.9408C17.1485 21.6547 16.6555 21.3071 16.2093 20.9053C15.8718 20.6046 15.577 20.26 15.3329 19.881C15.1207 19.5417 15.2077 19.1291 15.4994 18.9312C15.8801 18.6718 16.2875 18.7865 16.5292 19.1346C16.7894 19.5084 17.1061 19.8403 17.468 20.1186C17.9813 20.5159 18.5449 20.8448 19.1443 21.097C19.3798 21.1969 19.6151 21.2955 19.8542 21.3961C19.898 21.3272 19.8598 21.277 19.8373 21.2298C19.6878 20.9147 19.5647 20.5883 19.4692 20.2533C19.1917 19.3245 19.1488 18.3423 19.344 17.3932C19.3966 17.1056 19.4659 16.8213 19.5519 16.5418C19.7311 15.974 19.9946 15.4354 20.3337 14.9443C20.5453 14.6422 20.7656 14.3462 20.9828 14.0485C21.2515 13.6791 21.4793 13.2822 21.6626 12.8647C21.8018 12.5451 21.9247 12.2187 22.0306 11.887C22.1007 11.6729 22.1301 11.4458 22.1809 11.2255C22.3061 10.6864 22.313 10.1398 22.2892 9.59195C22.2722 9.33508 22.2396 9.07938 22.1915 8.82646C22.1572 8.61833 22.1107 8.4124 22.0525 8.20968C21.9744 7.93924 21.8923 7.66806 21.7878 7.40623C21.554 6.83135 21.2488 6.28769 20.8795 5.78753C20.5122 5.28751 20.0925 4.82733 19.6276 4.41459C19.0932 3.9391 18.51 3.52052 17.8874 3.16572C17.4001 2.88608 16.8915 2.64439 16.3664 2.44298C16.0353 2.31323 15.6928 2.21209 15.351 2.11037C15.0587 2.02353 14.7639 1.94223 14.4653 1.87889C14.1761 1.81686 13.8819 1.77775 13.589 1.73878C13.2961 1.69967 13.01 1.67238 12.722 1.64509C12.5342 1.62888 12.3465 1.62392 12.1587 1.62086C11.9239 1.61648 11.6886 1.60845 11.4544 1.62086C11.0445 1.64567 10.6345 1.68288 10.2258 1.72142C10.0136 1.74185 9.8014 1.76914 9.59231 1.80767C9.34757 1.85291 9.1052 1.90998 8.8643 1.96953C8.62325 2.02907 8.37101 2.09358 8.12995 2.16933C7.8007 2.2747 7.47336 2.38767 7.15162 2.51304C6.72945 2.67956 6.31965 2.87557 5.92546 3.09931C5.50506 3.33633 5.09997 3.59918 4.71285 3.88655C4.21278 4.26237 3.75056 4.68518 3.33266 5.14915C3.03536 5.46878 2.77046 5.81657 2.54207 6.18772C2.36743 6.47567 2.20281 6.77092 2.0557 7.07304C1.94615 7.30947 1.85132 7.55233 1.77151 7.80015C1.68448 8.05643 1.60379 8.31637 1.54179 8.57951C1.49556 8.77858 1.49364 8.98831 1.45168 9.18928C1.37967 9.53795 1.40279 9.8891 1.3997 10.2403C1.40323 10.5599 1.44004 10.8782 1.50984 11.1902C1.55623 11.4166 1.59319 11.6456 1.65768 11.8664C1.73116 12.1218 1.81936 12.373 1.9217 12.6183C2.085 13.0096 2.28202 13.3863 2.51085 13.7439C2.68608 14.0193 2.87692 14.2849 3.08234 14.5392C3.32928 14.8455 3.60154 15.1311 3.89604 15.3929C4.49859 15.9292 5.18066 16.3702 5.91854 16.7008C6.28122 16.8609 6.65435 16.9968 7.03529 17.1077C7.25307 17.1697 7.48087 17.1977 7.70131 17.2523C8.16515 17.3665 8.64018 17.3863 9.11153 17.39C9.50086 17.39 9.8927 17.3968 10.2795 17.3193C10.4573 17.284 10.6401 17.2747 10.8173 17.2374C11.0295 17.192 11.2392 17.1344 11.4469 17.0735C11.6549 17.0128 11.8607 16.9495 12.0635 16.8732C12.6699 16.6458 13.2458 16.3457 13.7787 15.9798C14.3865 15.5697 14.8991 15.0554 15.4124 14.5405C16.0008 13.951 16.5967 13.3691 17.1813 12.776C17.4427 12.4998 17.6493 12.1774 17.7904 11.8255C17.9086 11.5453 17.9866 11.2504 18.0227 10.9488C18.061 10.6771 18.0556 10.4011 18.0064 10.1311C17.9719 9.93376 17.9261 9.73834 17.8693 9.54613C17.7151 9.07194 17.452 8.63964 17.1006 8.28353C16.7045 7.86875 16.2055 7.5643 15.6535 7.40069C15.2543 7.27649 14.8342 7.23285 14.4177 7.27225C13.647 7.33924 12.9243 7.67171 12.3752 8.21216C12.307 8.28178 12.2253 8.33724 12.1352 8.37518C12.0451 8.41313 11.9482 8.43298 11.8503 8.43342C11.7522 8.43386 11.6551 8.41503 11.5646 8.37781C11.4742 8.34074 11.392 8.28615 11.3231 8.21712C10.9822 7.88378 10.5729 7.62691 10.123 7.46418C9.67329 7.3013 9.1934 7.23635 8.71587 7.27343C7.91497 7.34275 7.1659 7.69507 6.60517 8.26616C6.27562 8.59805 6.02132 8.99561 5.85905 9.43258C5.68191 9.89187 5.61535 10.3858 5.66438 10.875C5.71872 11.397 5.89365 11.8995 6.17579 12.3435C6.40049 12.6966 6.70471 12.9782 6.99833 13.2698C7.31757 13.5868 7.63431 13.9071 7.96165 14.216C8.24083 14.4796 8.22199 14.9773 7.99861 15.2086C7.86593 15.3445 7.68467 15.4232 7.49398 15.4278C7.30329 15.4324 7.11849 15.3623 6.97948 15.2328C6.75507 15.0145 6.53258 14.7935 6.31229 14.5702C5.9798 14.2327 5.64627 13.8971 5.3232 13.5509C5.07214 13.2714 4.8682 12.9536 4.71918 12.6097C4.59961 12.3545 4.49933 12.0906 4.41937 11.8206C4.32543 11.5141 4.27433 11.1964 4.26726 10.8763C4.26726 10.6851 4.26726 10.4941 4.26726 10.303C4.27478 10.0351 4.31218 9.7687 4.37859 9.50891C4.46193 9.13864 4.5921 8.78019 4.76615 8.44232C5.04225 7.89852 5.42333 7.41368 5.88791 7.01539C6.27282 6.68452 6.70913 6.41715 7.17974 6.22376C7.40754 6.14057 7.63946 6.06906 7.87462 6.00966C8.38234 5.86021 8.90376 5.87013 9.42326 5.89553C9.64075 5.91465 9.85633 5.9507 10.0679 6.00353C10.2289 6.03768 10.3866 6.08847 10.545 6.13444C10.8987 6.2461 11.2356 6.40474 11.5465 6.60586C11.6423 6.6673 11.7367 6.73809 11.8407 6.81004Z" fill="black"/>
<path id="Vector_3" d="M11.8407 6.81004C11.9941 6.71196 12.1337 6.6171 12.2789 6.53084C12.5887 6.3468 12.9194 6.19954 13.2642 6.09227C13.485 6.02396 13.7192 5.99915 13.9458 5.94515C14.3476 5.84839 14.7552 5.88312 15.1596 5.89801C15.361 5.91392 15.5607 5.94792 15.7561 5.99973C15.9169 6.0352 16.0753 6.08482 16.2336 6.13065C16.5776 6.23559 16.9055 6.38606 17.2089 6.57798C17.7054 6.87863 18.1396 7.27021 18.4883 7.73199C18.7577 8.07322 18.9704 8.45487 19.1187 8.86236C19.2103 9.10697 19.2875 9.35654 19.3498 9.61005C19.41 9.86108 19.4387 10.1187 19.4349 10.3769C19.426 10.6194 19.4385 10.8639 19.4191 11.1051C19.3995 11.2838 19.3665 11.4607 19.3203 11.6343C19.2802 11.8032 19.2308 11.9706 19.1782 12.137C19.0846 12.4067 18.965 12.6671 18.8214 12.9143C18.5241 13.4584 18.084 13.8828 17.6502 14.3128C17.0336 14.9233 16.4177 15.5344 15.7961 16.1399C15.0494 16.8615 14.1867 17.4548 13.2434 17.8957C12.8925 18.0582 12.5322 18.2001 12.1643 18.3207C11.8209 18.4358 11.4705 18.5292 11.1152 18.6004C10.7587 18.6734 10.3978 18.7239 10.0348 18.7518C9.65489 18.7791 9.27557 18.8138 8.89493 18.789C8.47497 18.76 8.05309 18.727 7.63681 18.665C7.30505 18.6147 6.97948 18.5216 6.65214 18.4417C5.93533 18.2598 5.24678 17.9824 4.60521 17.617C3.74658 17.1418 2.97249 16.5297 2.31427 15.8055C1.86501 15.3105 1.46964 14.7697 1.13494 14.1924C0.869593 13.7363 0.647686 13.2567 0.472015 12.7599C0.357454 12.4366 0.28427 12.099 0.194741 11.7672C-0.0180369 10.9607 -0.0193614 10.1423 0.0195129 9.32093C0.0386555 9.06391 0.0756154 8.8085 0.130246 8.55645C0.192827 8.24631 0.248635 7.93982 0.338163 7.64019C0.462001 7.22745 0.617646 6.82493 0.803772 6.43597C1.05027 5.91903 1.34359 5.42543 1.68021 4.96117C2.04215 4.46932 2.44768 4.01046 2.89194 3.59013C3.36108 3.14426 3.86836 2.73955 4.40804 2.38081C4.90516 2.04396 5.42981 1.749 5.9767 1.49928C6.43053 1.29452 6.89629 1.11267 7.36513 0.940887C7.67804 0.829236 7.99728 0.751592 8.31711 0.669715C8.59762 0.598346 8.88049 0.537631 9.16542 0.48363C9.41575 0.435175 9.66608 0.402922 9.91655 0.359575C10.8986 0.19086 11.8896 0.223697 12.8785 0.254054C13.1627 0.262811 13.4463 0.316081 13.7298 0.354611C13.8944 0.375628 14.059 0.397376 14.2225 0.425252C14.4216 0.459987 14.6193 0.499101 14.8171 0.540697C15.025 0.584189 15.2328 0.626952 15.438 0.680369C15.6828 0.742397 15.9263 0.813619 16.1674 0.890679C16.3732 0.956356 16.5773 1.02962 16.7776 1.1096C17.0975 1.23687 17.4193 1.36151 17.7303 1.50731C18.5739 1.90735 19.3687 2.40124 20.0996 2.97963C20.477 3.2816 20.834 3.60765 21.1687 3.95544C21.5534 4.36118 21.9047 4.79698 22.2191 5.25832C22.48 5.64173 22.7102 6.04483 22.9076 6.46385C23.0724 6.79968 23.2068 7.14937 23.3095 7.50869C23.3595 7.69478 23.4285 7.88086 23.4766 8.06694C23.513 8.20603 23.5298 8.34993 23.5548 8.49136C23.5887 8.68372 23.6225 8.87666 23.6543 9.06902C23.6646 9.11966 23.6704 9.17119 23.6719 9.22285C23.6719 9.73469 23.6838 10.2465 23.6688 10.7578C23.6618 10.9817 23.6062 11.2051 23.5655 11.4278C23.5442 11.5519 23.5217 11.6809 23.4935 11.8063C23.4491 12.0004 23.409 12.1965 23.3501 12.387C23.2875 12.5973 23.203 12.8014 23.1267 13.0074C22.9449 13.4799 22.7208 13.9352 22.4569 14.368C22.2197 14.77 21.9324 15.1361 21.6551 15.5096C21.3677 15.8839 21.14 16.2999 20.9803 16.743C20.8899 16.987 20.8121 17.2354 20.7475 17.4874C20.6936 17.7213 20.6805 17.9651 20.646 18.2046C20.6138 18.4351 20.6138 18.669 20.646 18.8995C20.6774 19.1241 20.6986 19.3505 20.7399 19.5726C20.7681 19.7396 20.8124 19.9033 20.8726 20.0615C20.9841 20.3413 21.1093 20.6156 21.24 20.8873C21.3133 21.0381 21.4172 21.1745 21.4949 21.3216C21.6028 21.5298 21.6441 21.7656 21.6131 21.9975C21.5821 22.2296 21.4803 22.4466 21.3214 22.6197C21.1626 22.7928 20.9541 22.9136 20.7239 22.966C20.4939 23.0184 20.253 22.9999 20.0339 22.9129C19.7784 22.8175 19.5156 22.7398 19.257 22.6499C18.711 22.4592 18.1825 22.2219 17.6777 21.9408C17.1485 21.6547 16.6555 21.3071 16.2093 20.9053C15.8718 20.6046 15.577 20.26 15.3329 19.881C15.1207 19.5417 15.2077 19.1291 15.4994 18.9312C15.8801 18.6718 16.2875 18.7865 16.5292 19.1346C16.7894 19.5084 17.1061 19.8403 17.468 20.1186C17.9813 20.5159 18.5449 20.8448 19.1443 21.097C19.3798 21.1969 19.6151 21.2955 19.8542 21.3961C19.898 21.3272 19.8598 21.277 19.8373 21.2298C19.6878 20.9147 19.5647 20.5883 19.4692 20.2533C19.1917 19.3245 19.1488 18.3423 19.344 17.3932C19.3966 17.1056 19.4659 16.8213 19.5519 16.5418C19.7311 15.974 19.9946 15.4354 20.3337 14.9443C20.5453 14.6422 20.7656 14.3462 20.9828 14.0485C21.2515 13.6791 21.4793 13.2822 21.6626 12.8647C21.8018 12.5451 21.9247 12.2187 22.0306 11.887C22.1007 11.6729 22.1301 11.4458 22.1809 11.2255C22.3061 10.6864 22.313 10.1398 22.2892 9.59195C22.2722 9.33508 22.2396 9.07938 22.1915 8.82646C22.1572 8.61833 22.1107 8.4124 22.0525 8.20968C21.9744 7.93924 21.8923 7.66806 21.7878 7.40623C21.554 6.83135 21.2488 6.28769 20.8795 5.78753C20.5122 5.28751 20.0925 4.82733 19.6276 4.41459C19.0932 3.9391 18.51 3.52052 17.8874 3.16572C17.4001 2.88608 16.8915 2.64439 16.3664 2.44298C16.0353 2.31323 15.6928 2.21209 15.351 2.11037C15.0587 2.02353 14.7639 1.94223 14.4653 1.87889C14.1761 1.81686 13.8819 1.77775 13.589 1.73878C13.2961 1.69967 13.01 1.67238 12.722 1.64509C12.5342 1.62888 12.3465 1.62392 12.1587 1.62086C11.9239 1.61648 11.6886 1.60845 11.4544 1.62086C11.0445 1.64567 10.6345 1.68288 10.2258 1.72142C10.0136 1.74185 9.8014 1.76914 9.59231 1.80767C9.34757 1.85291 9.1052 1.90998 8.8643 1.96953C8.62325 2.02907 8.37101 2.09358 8.12995 2.16933C7.8007 2.2747 7.47336 2.38767 7.15162 2.51304C6.72945 2.67956 6.31965 2.87557 5.92546 3.09931C5.50506 3.33633 5.09997 3.59918 4.71285 3.88655C4.21278 4.26237 3.75056 4.68518 3.33266 5.14915C3.03536 5.46878 2.77046 5.81657 2.54207 6.18772C2.36743 6.47567 2.20281 6.77092 2.0557 7.07304C1.94615 7.30947 1.85132 7.55233 1.77151 7.80015C1.68448 8.05643 1.60379 8.31637 1.54179 8.57951C1.49556 8.77858 1.49364 8.98831 1.45168 9.18928C1.37967 9.53795 1.40279 9.8891 1.3997 10.2403C1.40323 10.5599 1.44004 10.8782 1.50984 11.1902C1.55623 11.4166 1.59319 11.6456 1.65768 11.8664C1.73116 12.1218 1.81936 12.373 1.9217 12.6183C2.085 13.0096 2.28202 13.3863 2.51085 13.7439C2.68608 14.0193 2.87692 14.2849 3.08234 14.5392C3.32928 14.8455 3.60154 15.1311 3.89604 15.3929C4.49859 15.9292 5.18066 16.3702 5.91854 16.7008C6.28122 16.8609 6.65435 16.9968 7.03529 17.1077C7.25307 17.1697 7.48087 17.1977 7.70131 17.2523C8.16515 17.3665 8.64018 17.3863 9.11153 17.39C9.50086 17.39 9.8927 17.3968 10.2795 17.3193C10.4573 17.284 10.6401 17.2747 10.8173 17.2374C11.0295 17.192 11.2392 17.1344 11.4469 17.0735C11.6549 17.0128 11.8607 16.9495 12.0635 16.8732C12.6699 16.6458 13.2458 16.3457 13.7787 15.9798C14.3865 15.5697 14.8991 15.0554 15.4124 14.5405C16.0008 13.951 16.5967 13.3691 17.1813 12.776C17.4427 12.4998 17.6493 12.1774 17.7904 11.8255C17.9086 11.5453 17.9866 11.2504 18.0227 10.9488C18.061 10.6771 18.0556 10.4011 18.0064 10.1311C17.9719 9.93376 17.9261 9.73834 17.8693 9.54613C17.7151 9.07194 17.452 8.63964 17.1006 8.28353C16.7045 7.86875 16.2055 7.5643 15.6535 7.40069C15.2543 7.27649 14.8342 7.23285 14.4177 7.27225C13.647 7.33924 12.9243 7.67171 12.3752 8.21216C12.307 8.28178 12.2253 8.33724 12.1352 8.37518C12.0451 8.41313 11.9482 8.43298 11.8503 8.43342C11.7522 8.43386 11.6551 8.41503 11.5646 8.37781C11.4742 8.34074 11.392 8.28615 11.3231 8.21712C10.9822 7.88378 10.5729 7.62691 10.123 7.46418C9.67329 7.3013 9.1934 7.23635 8.71587 7.27343C7.91497 7.34275 7.1659 7.69507 6.60517 8.26616C6.27562 8.59805 6.02132 8.99561 5.85905 9.43258C5.68191 9.89187 5.61535 10.3858 5.66438 10.875C5.71872 11.397 5.89365 11.8995 6.17579 12.3435C6.40049 12.6966 6.70471 12.9782 6.99833 13.2698C7.31757 13.5868 7.63431 13.9071 7.96165 14.216C8.24083 14.4796 8.22199 14.9773 7.99861 15.2086C7.86593 15.3445 7.68467 15.4232 7.49398 15.4278C7.30329 15.4324 7.11849 15.3623 6.97948 15.2328C6.75507 15.0145 6.53258 14.7935 6.31229 14.5702C5.9798 14.2327 5.64627 13.8971 5.3232 13.5509C5.07214 13.2714 4.8682 12.9536 4.71918 12.6097C4.59961 12.3545 4.49933 12.0906 4.41937 11.8206C4.32543 11.5141 4.27433 11.1964 4.26726 10.8763C4.26726 10.6851 4.26726 10.4941 4.26726 10.303C4.27478 10.0351 4.31218 9.7687 4.37859 9.50891C4.46193 9.13864 4.5921 8.78019 4.76615 8.44232C5.04225 7.89852 5.42333 7.41368 5.88791 7.01539C6.27282 6.68452 6.70913 6.41715 7.17974 6.22376C7.40754 6.14057 7.63946 6.06906 7.87462 6.00966C8.38234 5.86021 8.90376 5.87013 9.42326 5.89553C9.64075 5.91465 9.85633 5.9507 10.0679 6.00353C10.2289 6.03768 10.3866 6.08847 10.545 6.13444C10.8987 6.2461 11.2356 6.40474 11.5465 6.60586C11.6423 6.6673 11.7367 6.73809 11.8407 6.81004Z" fill="black"/>
<path id="Vector_4" d="M11.8723 14.7732C11.3961 14.7767 10.9265 14.6625 10.5058 14.4413C10.1362 14.2475 9.79504 14.0045 9.49185 13.7191C9.14876 13.4121 9.20324 12.7743 9.65206 12.5764C9.76382 12.5212 9.88825 12.4964 10.013 12.5044C10.1375 12.5124 10.2577 12.5532 10.3612 12.6222C10.4454 12.6809 10.525 12.7458 10.5992 12.8164C10.8389 13.0419 11.1253 13.2127 11.4385 13.317C11.6357 13.3839 11.8467 13.4005 12.052 13.3655C12.4902 13.2806 12.8356 13.0428 13.163 12.7649C13.2175 12.7178 13.2713 12.6693 13.3289 12.626C13.6231 12.4057 14.1859 12.4888 14.3606 12.8859C14.4825 13.1632 14.4287 13.515 14.2059 13.7191C13.8234 14.0678 13.4084 14.3682 12.9257 14.5623C12.5937 14.7059 12.2346 14.7778 11.8723 14.7732Z" fill="black"/>
<path id="Vector_5" d="M9.45749 9.66655C10.0315 9.64845 10.4039 10.115 10.4089 10.604C10.4025 10.8496 10.2996 11.0831 10.122 11.2546C9.94445 11.4262 9.70634 11.5221 9.45837 11.5221C9.2104 11.5221 8.9723 11.4262 8.79471 11.2546C8.61713 11.0831 8.5142 10.8496 8.50787 10.604C8.50227 10.1057 8.93165 9.63488 9.45749 9.66655Z" fill="black"/>
<path id="Vector_6" d="M14.2453 9.6679C14.7241 9.63317 15.1887 10.083 15.1843 10.5985C15.1804 10.8445 15.0799 11.0792 14.9038 11.2527C14.7276 11.4261 14.4901 11.5244 14.242 11.5265C13.9937 11.5287 13.7546 11.4347 13.5754 11.2644C13.3962 11.0941 13.2914 10.8612 13.2833 10.6153C13.2777 10.1282 13.6751 9.64119 14.2453 9.6679Z" fill="black"/>
</g>
</g>
</g>
<path id="Vector_7" d="M27.1816 17.1066V7.14946C27.1816 6.37725 27.4518 5.7234 27.9921 5.18792C28.545 4.63989 29.2109 4.36594 29.99 4.36594C30.5932 4.36594 31.1334 4.54035 31.611 4.88902C32.101 5.22528 32.4403 5.66736 32.6288 6.21539L34.8717 12.511C35.035 12.9967 35.1481 13.414 35.2109 13.7627L35.3052 14.2857H35.4183L35.5125 13.7627C35.6381 13.2645 35.7575 12.8473 35.8706 12.511L38.1136 6.14067C38.2895 5.61759 38.6099 5.1942 39.0748 4.87034C39.5524 4.53407 40.0801 4.36594 40.6581 4.36594C41.3868 4.36594 42.0151 4.62748 42.5429 5.15056C43.0706 5.66123 43.3345 6.28384 43.3345 7.01869V17.0319C43.3345 17.5052 43.1585 17.9162 42.8067 18.2649C42.4675 18.6011 42.0528 18.7693 41.5628 18.7693C41.0852 18.7693 40.6706 18.6011 40.3188 18.2649C39.9795 17.9162 39.8099 17.5052 39.8099 17.0319V9.09232H39.6968L39.546 9.85825C39.4454 10.344 39.2885 10.8981 39.0748 11.5209L36.9638 17.5176C36.8382 17.8788 36.612 18.1777 36.2853 18.4143C35.9585 18.6509 35.5942 18.7693 35.1921 18.7693C34.79 18.7693 34.4257 18.6509 34.0989 18.4143C33.7722 18.1777 33.546 17.8788 33.4204 17.5176L31.2905 11.5209C31.0895 10.9231 30.9324 10.3689 30.8193 9.85825C30.7439 9.50958 30.6937 9.25418 30.6685 9.09232H30.5555V17.1066C30.5555 17.5674 30.3922 17.9597 30.0654 18.2835C29.7387 18.6074 29.3428 18.7693 28.878 18.7693C28.4131 18.7693 28.011 18.6074 27.6717 18.2835C27.3449 17.9597 27.1816 17.5674 27.1816 17.1066ZM45.8759 14.9022V10.0264C45.8759 9.55308 46.0455 9.14836 46.3848 8.8121C46.7366 8.46343 47.1512 8.28902 47.6288 8.28902C48.1063 8.28902 48.5146 8.46343 48.8539 8.8121C49.2057 9.14836 49.3817 9.55308 49.3817 10.0264V14.3605C49.3817 15.0579 49.5199 15.5498 49.7963 15.8363C50.0854 16.1102 50.412 16.2473 50.7764 16.2473C51.2665 16.2473 51.6559 16.0542 51.945 15.6682C52.2341 15.2821 52.3785 14.7217 52.3785 13.9868V10.0264C52.3785 9.55308 52.5481 9.14836 52.8874 8.8121C53.2392 8.46343 53.6538 8.28902 54.1314 8.28902C54.6089 8.28902 55.0172 8.46343 55.3565 8.8121C55.7083 9.14836 55.8843 9.55308 55.8843 10.0264V17.1627C55.8843 17.5986 55.721 17.9784 55.3942 18.3022C55.0801 18.6135 54.6968 18.7693 54.2445 18.7693C53.8046 18.7693 53.4215 18.6135 53.0947 18.3022C52.7807 17.9784 52.6235 17.5986 52.6235 17.1627V16.7704C51.9827 18.1652 50.9397 18.8627 49.4947 18.8627C47.0822 18.8627 45.8759 17.5426 45.8759 14.9022ZM57.2649 9.57804C57.2649 9.26673 57.378 8.99892 57.6042 8.77474C57.8303 8.55056 58.1005 8.43847 58.4146 8.43847H58.9424V8.12089C58.9424 6.71351 59.2753 5.67364 59.9413 5.00111C60.6073 4.31617 61.6942 3.97363 63.2021 3.97363C64.3078 3.97363 64.8607 4.40958 64.8607 5.28133C64.8607 5.65495 64.7664 5.97881 64.578 6.25276C64.3895 6.5267 64.1256 6.66375 63.7863 6.66375C63.2963 6.66375 62.9507 6.76343 62.7497 6.96265C62.5487 7.14946 62.4481 7.49813 62.4481 8.0088V8.43847H63.4848C63.7989 8.43847 64.0691 8.55056 64.2952 8.77474C64.5214 8.99892 64.6345 9.26673 64.6345 9.57804C64.6345 9.9019 64.5214 10.1758 64.2952 10.4C64.0691 10.6242 63.7989 10.7363 63.4848 10.7363H62.4481V17.0319C62.4481 17.5052 62.2722 17.9162 61.9204 18.2649C61.5811 18.6011 61.1728 18.7693 60.6953 18.7693C60.2177 18.7693 59.8031 18.6011 59.4513 18.2649C59.112 17.9162 58.9424 17.5052 58.9424 17.0319V10.7363H58.4146C58.1005 10.7363 57.8303 10.6242 57.6042 10.4C57.378 10.1758 57.2649 9.9019 57.2649 9.57804ZM65.0508 9.57804C65.0508 9.26673 65.1639 8.99892 65.3901 8.77474C65.6162 8.55056 65.8864 8.43847 66.2005 8.43847H66.7283V8.12089C66.7283 6.71351 67.0612 5.67364 67.7272 5.00111C68.3932 4.31617 69.4801 3.97363 70.988 3.97363C72.0937 3.97363 72.6466 4.40958 72.6466 5.28133C72.6466 5.65495 72.5523 5.97881 72.3639 6.25276C72.1754 6.5267 71.9115 6.66375 71.5722 6.66375C71.0822 6.66375 70.7366 6.76343 70.5356 6.96265C70.3346 7.14946 70.234 7.49813 70.234 8.0088V8.43847H71.2707C71.5848 8.43847 71.855 8.55056 72.0811 8.77474C72.3073 8.99892 72.4204 9.26673 72.4204 9.57804C72.4204 9.9019 72.3073 10.1758 72.0811 10.4C71.855 10.6242 71.5848 10.7363 71.2707 10.7363H70.234V17.0319C70.234 17.5052 70.0581 17.9162 69.7063 18.2649C69.367 18.6011 68.9587 18.7693 68.4812 18.7693C68.0036 18.7693 67.589 18.6011 67.2372 18.2649C66.8979 17.9162 66.7283 17.5052 66.7283 17.0319V10.7363H66.2005C65.8864 10.7363 65.6162 10.6242 65.3901 10.4C65.1639 10.1758 65.0508 9.9019 65.0508 9.57804ZM74.1938 6.57034C73.9047 6.28384 73.7603 5.94145 73.7603 5.54287C73.7603 5.14428 73.9047 4.80189 74.1938 4.51539C74.4828 4.2289 74.8283 4.08572 75.2304 4.08572H76.0974C76.4996 4.08572 76.845 4.2289 77.1341 4.51539C77.4231 4.80189 77.5676 5.14428 77.5676 5.54287C77.5676 5.94145 77.4231 6.28384 77.1341 6.57034C76.845 6.85684 76.4996 7.00001 76.0974 7.00001H75.2304C74.8283 7.00001 74.4828 6.85684 74.1938 6.57034ZM73.911 17.0319V10.0264C73.911 9.55308 74.0807 9.14836 74.4199 8.8121C74.7717 8.46343 75.1864 8.28902 75.6639 8.28902C76.1414 8.28902 76.5498 8.46343 76.889 8.8121C77.2408 9.14836 77.4168 9.55308 77.4168 10.0264V17.0319C77.4168 17.5052 77.2408 17.9162 76.889 18.2649C76.5498 18.6011 76.1414 18.7693 75.6639 18.7693C75.1864 18.7693 74.7717 18.6011 74.4199 18.2649C74.0807 17.9162 73.911 17.5052 73.911 17.0319ZM79.8747 17.0319V9.89562C79.8747 9.45967 80.0318 9.08605 80.3459 8.77474C80.6727 8.45088 81.0558 8.28902 81.4956 8.28902C81.948 8.28902 82.3313 8.45088 82.6454 8.77474C82.9721 9.08605 83.1354 9.45967 83.1354 9.89562V10.1572C83.4245 9.59672 83.8453 9.13596 84.3983 8.77474C84.9512 8.41352 85.6359 8.23298 86.4527 8.23298C88.8653 8.23298 90.0715 9.55308 90.0715 12.1934V17.0319C90.0715 17.5052 89.8956 17.9162 89.5438 18.2649C89.2045 18.6011 88.7962 18.7693 88.3187 18.7693C87.8411 18.7693 87.4265 18.6011 87.0747 18.2649C86.7354 17.9162 86.5658 17.5052 86.5658 17.0319V12.7352C86.5658 12.0377 86.415 11.552 86.1134 11.278C85.8119 11.0041 85.4663 10.867 85.0768 10.867C83.9459 10.867 83.3805 11.633 83.3805 13.1649V17.0319C83.3805 17.5052 83.2045 17.9162 82.8527 18.2649C82.5134 18.6011 82.1051 18.7693 81.6276 18.7693C81.15 18.7693 80.7354 18.6011 80.3836 18.2649C80.0443 17.9162 79.8747 17.5052 79.8747 17.0319Z" fill="black"/>
<path id="+" d="M95.4928 10.1395C94.9915 10.1395 94.5738 9.97208 94.2396 9.63723C93.9054 9.30239 93.7383 8.88383 93.7383 8.38157C93.7383 7.8793 93.9054 7.47121 94.2396 7.15729C94.5738 6.84338 94.9915 6.68642 95.4928 6.68642H108.245C108.746 6.68642 109.164 6.85384 109.498 7.18869C109.832 7.5026 109.999 7.91069 109.999 8.41296C109.999 8.91523 109.832 9.33378 109.498 9.66862C109.164 9.98254 108.746 10.1395 108.245 10.1395H95.4928ZM101.822 16.2609C101.237 16.2609 100.746 16.0725 100.349 15.6958C99.9732 15.3191 99.7852 14.8378 99.7852 14.2518V2.00907C99.7852 1.42309 99.9836 0.941749 100.38 0.565049C100.777 0.188349 101.268 0 101.853 0C102.459 0 102.939 0.188349 103.294 0.565049C103.67 0.941749 103.858 1.42309 103.858 2.00907V14.2518C103.858 14.8378 103.67 15.3191 103.294 15.6958C102.918 16.0725 102.427 16.2609 101.822 16.2609Z" fill="#FF599B"/>
</g>
</svg>
