<svg width="161" height="157" viewBox="0 0 161 157" fill="none" xmlns="http://www.w3.org/2000/svg">
<mask id="mask0_122_620" style="mask-type:luminance" maskUnits="userSpaceOnUse" x="0" y="0" width="161" height="157">
<path d="M160.822 0H0V156.01H160.822V0Z" fill="white"/>
</mask>
<g mask="url(#mask0_122_620)">
<path d="M80.4115 45.077C81.4535 44.405 82.4015 43.755 83.3875 43.164C85.4915 41.903 87.7375 40.894 90.0785 40.159C91.5785 39.691 93.1685 39.521 94.7075 39.151C97.4365 38.488 100.205 38.726 102.951 38.828C104.319 38.937 105.675 39.17 107.002 39.525C108.094 39.768 109.17 40.108 110.245 40.422C112.581 41.141 114.808 42.172 116.868 43.487C120.24 45.547 123.189 48.23 125.557 51.394C127.386 53.732 128.831 56.347 129.838 59.139C130.46 60.815 130.984 62.525 131.407 64.262C131.816 65.982 132.01 67.747 131.984 69.516C131.924 71.178 132.01 72.853 131.878 74.506C131.745 75.73 131.52 76.942 131.206 78.132C130.934 79.289 130.598 80.436 130.242 81.576C129.605 83.424 128.794 85.208 127.819 86.902C125.8 90.63 122.811 93.538 119.865 96.484C115.678 100.667 111.495 104.854 107.274 109.003C102.203 113.947 96.3435 118.012 89.9375 121.033C87.5545 122.147 85.1075 123.119 82.6095 123.945C80.2775 124.734 77.8975 125.374 75.4845 125.862C73.0635 126.362 70.6125 126.708 68.1475 126.899C65.5675 127.086 62.9915 127.324 60.4065 127.154C57.5545 126.955 54.6895 126.729 51.8625 126.304C49.6095 125.96 47.3985 125.322 45.1755 124.774C40.3075 123.528 35.6315 121.627 31.2745 119.124C25.4435 115.868 20.1865 111.674 15.7165 106.712C12.6655 103.32 9.98051 99.615 7.70751 95.659C5.90551 92.534 4.39851 89.248 3.20551 85.844C2.42751 83.629 1.93051 81.316 1.32251 79.042C-0.122491 73.516 -0.131486 67.909 0.132514 62.281C0.262514 60.52 0.513513 58.77 0.884513 57.043C1.30951 54.918 1.68851 52.818 2.29651 50.765C3.13751 47.937 4.19451 45.179 5.45851 42.514C7.13251 38.972 9.12451 35.59 11.4105 32.409C13.8685 29.039 16.6225 25.895 19.6395 23.015C22.8255 19.96 26.2705 17.187 29.9355 14.729C33.3115 12.421 36.8745 10.4 40.5885 8.689C43.6705 7.286 46.8335 6.04001 50.0175 4.86301C52.1425 4.09801 54.3105 3.56601 56.4825 3.00501C58.3875 2.51601 60.3085 2.1 62.2435 1.73C63.9435 1.398 65.6435 1.17701 67.3445 0.880007C74.0135 -0.275993 80.7435 -0.051 87.4595 0.157C89.3895 0.217 91.3155 0.581995 93.2405 0.845995C94.3585 0.989995 95.4765 1.139 96.5865 1.33C97.9385 1.568 99.2815 1.836 100.625 2.121C102.037 2.419 103.448 2.71201 104.842 3.07801C106.504 3.50301 108.158 3.991 109.795 4.519C111.193 4.969 112.579 5.471 113.939 6.019C116.112 6.891 118.297 7.74501 120.409 8.74401C126.138 11.485 131.535 14.869 136.498 18.832C139.061 20.901 141.487 23.135 143.76 25.518C146.372 28.298 148.758 31.284 150.893 34.445C152.665 37.072 154.227 39.834 155.568 42.705C156.688 45.006 157.6 47.402 158.298 49.864C158.637 51.139 159.106 52.414 159.433 53.689C159.68 54.642 159.794 55.628 159.964 56.597C160.194 57.915 160.424 59.237 160.64 60.555C160.71 60.902 160.749 61.255 160.758 61.609C160.758 65.116 160.84 68.623 160.738 72.126C160.691 73.66 160.313 75.191 160.037 76.717C159.892 77.567 159.738 78.451 159.548 79.31C159.245 80.64 158.973 81.984 158.574 83.289C158.148 84.73 157.575 86.128 157.057 87.54C155.822 90.777 154.299 93.897 152.507 96.862C150.896 99.617 148.946 102.125 147.063 104.684C145.111 107.249 143.565 110.099 142.48 113.135C141.866 114.807 141.338 116.509 140.899 118.236C140.533 119.838 140.444 121.509 140.21 123.15C139.991 124.729 139.991 126.332 140.21 127.911C140.423 129.45 140.566 131.001 140.847 132.523C141.038 133.667 141.339 134.789 141.748 135.873C142.505 137.79 143.356 139.669 144.244 141.531C144.742 142.564 145.447 143.499 145.975 144.507C146.708 145.933 146.988 147.549 146.778 149.138C146.567 150.728 145.875 152.215 144.796 153.401C143.717 154.587 142.302 155.415 140.739 155.774C139.177 156.133 137.541 156.006 136.053 155.41C134.318 154.756 132.533 154.224 130.777 153.608C127.069 152.301 123.48 150.675 120.052 148.749C116.458 146.789 113.11 144.407 110.08 141.654C107.788 139.594 105.786 137.233 104.128 134.636C102.687 132.311 103.278 129.484 105.259 128.128C107.844 126.351 110.611 127.137 112.252 129.522C114.019 132.083 116.17 134.357 118.628 136.264C122.114 138.986 125.941 141.24 130.012 142.968C131.611 143.652 133.209 144.328 134.833 145.017C135.13 144.545 134.87 144.201 134.717 143.878C133.702 141.719 132.867 139.482 132.217 137.187C130.333 130.823 130.042 124.093 131.368 117.59C131.725 115.62 132.196 113.672 132.78 111.757C133.997 107.866 135.786 104.176 138.089 100.811C139.526 98.741 141.021 96.713 142.497 94.673C144.322 92.142 145.869 89.423 147.114 86.562C148.059 84.372 148.894 82.136 149.613 79.863C150.089 78.396 150.288 76.84 150.633 75.331C151.484 71.637 151.531 67.892 151.369 64.138C151.254 62.378 151.031 60.626 150.705 58.893C150.472 57.467 150.156 56.056 149.761 54.667C149.23 52.814 148.674 50.956 147.964 49.162C146.376 45.223 144.304 41.498 141.796 38.071C139.301 34.645 136.451 31.492 133.294 28.664C129.665 25.406 125.704 22.538 121.476 20.107C118.167 18.191 114.713 16.535 111.147 15.155C108.898 14.266 106.572 13.573 104.251 12.876C102.266 12.281 100.264 11.724 98.2355 11.29C96.2715 10.865 94.2735 10.597 92.2845 10.33C90.2955 10.062 88.3525 9.87501 86.3965 9.68801C85.1215 9.57701 83.8465 9.543 82.5715 9.52201C80.9765 9.49201 79.3785 9.43701 77.7885 9.52201C75.0045 9.69201 72.2205 9.947 69.4445 10.211C68.0035 10.351 66.5625 10.538 65.1425 10.802C63.4805 11.112 61.8345 11.503 60.1985 11.911C58.5615 12.319 56.8485 12.761 55.2115 13.28C52.9755 14.002 50.7525 14.776 48.5675 15.635C45.7005 16.776 42.9175 18.119 40.2405 19.652C37.3855 21.276 34.6345 23.077 32.0055 25.046C28.6095 27.621 25.4705 30.518 22.6325 33.697C20.6135 35.887 18.8145 38.27 17.2635 40.813C16.0775 42.786 14.9595 44.809 13.9605 46.879C13.2165 48.499 12.5725 50.163 12.0305 51.861C11.4395 53.617 10.8915 55.398 10.4705 57.201C10.1565 58.565 10.1435 60.002 9.85851 61.379C9.36951 63.768 9.52652 66.174 9.50552 68.58C9.52952 70.77 9.77952 72.951 10.2535 75.089C10.5685 76.64 10.8195 78.209 11.2575 79.722C11.7565 81.472 12.3555 83.193 13.0505 84.874C14.1595 87.555 15.4975 90.136 17.0515 92.586C18.2415 94.473 19.5375 96.293 20.9325 98.035C22.6095 100.134 24.4585 102.091 26.4585 103.885C30.5505 107.559 35.1825 110.581 40.1935 112.846C42.6565 113.943 45.1905 114.874 47.7775 115.634C49.2565 116.059 50.8035 116.251 52.3005 116.625C55.4505 117.407 58.6765 117.543 61.8775 117.568C64.5215 117.568 67.1825 117.615 69.8095 117.084C71.0165 116.842 72.2585 116.778 73.4615 116.523C74.9025 116.212 76.3265 115.817 77.7375 115.4C79.1495 114.984 80.5475 114.55 81.9245 114.027C86.0425 112.469 89.9535 110.413 93.5725 107.906C97.7005 105.096 101.182 101.572 104.668 98.044C108.664 94.005 112.711 90.018 116.681 85.954C118.456 84.062 119.859 81.853 120.817 79.442C121.62 77.522 122.15 75.501 122.395 73.435C122.655 71.573 122.618 69.682 122.284 67.832C122.05 66.48 121.739 65.141 121.353 63.824C120.306 60.575 118.519 57.613 116.133 55.173C113.443 52.331 110.054 50.245 106.305 49.124C103.594 48.273 100.741 47.974 97.9125 48.244C92.6785 48.703 87.7705 50.981 84.0415 54.684C83.5785 55.161 83.0235 55.541 82.4115 55.801C81.7995 56.061 81.1415 56.197 80.4765 56.2C79.8105 56.203 79.1515 56.074 78.5365 55.819C77.9225 55.565 77.3645 55.191 76.8965 54.718C74.5815 52.434 71.8015 50.674 68.7465 49.559C65.6925 48.443 62.4335 47.998 59.1905 48.252C53.7515 48.727 48.6645 51.141 44.8565 55.054C42.6185 57.328 40.8915 60.052 39.7895 63.046C38.5865 66.193 38.1345 69.577 38.4675 72.929C38.8365 76.506 40.0245 79.949 41.9405 82.991C43.4665 85.41 45.5325 87.34 47.5265 89.338C49.6945 91.51 51.8455 93.704 54.0685 95.821C55.9645 97.627 55.8365 101.037 54.3195 102.622C53.4185 103.553 52.1875 104.092 50.8925 104.124C49.5975 104.155 48.3425 103.675 47.3985 102.788C45.8745 101.292 44.3635 99.778 42.8675 98.248C40.6095 95.935 38.3445 93.636 36.1505 91.264C34.4455 89.349 33.0605 87.171 32.0485 84.815C31.2365 83.066 30.5555 81.258 30.0125 79.408C29.3745 77.308 29.0275 75.131 28.9795 72.938C28.9795 71.628 28.9795 70.319 28.9795 69.01C29.0305 67.174 29.2845 65.349 29.7355 63.569C30.3015 61.032 31.1855 58.576 32.3675 56.261C34.2425 52.535 36.8305 49.213 39.9855 46.484C42.5995 44.217 45.5625 42.385 48.7585 41.06C50.3055 40.49 51.8805 40 53.4775 39.593C56.9255 38.569 60.4665 38.637 63.9945 38.811C65.4715 38.942 66.9355 39.189 68.3725 39.551C69.4655 39.785 70.5365 40.133 71.6125 40.448C74.0145 41.213 76.3025 42.3 78.4135 43.678C79.0645 44.099 79.7055 44.584 80.4115 45.077Z" fill="#FF599B"/>
<path d="M80.4115 45.077C81.4535 44.405 82.4015 43.755 83.3875 43.164C85.4915 41.903 87.7375 40.894 90.0785 40.159C91.5785 39.691 93.1685 39.521 94.7075 39.151C97.4365 38.488 100.205 38.726 102.951 38.828C104.319 38.937 105.675 39.17 107.002 39.525C108.094 39.768 109.17 40.108 110.245 40.422C112.581 41.141 114.808 42.172 116.868 43.487C120.24 45.547 123.189 48.23 125.557 51.394C127.386 53.732 128.831 56.347 129.838 59.139C130.46 60.815 130.984 62.525 131.407 64.262C131.816 65.982 132.01 67.747 131.984 69.516C131.924 71.178 132.01 72.853 131.878 74.506C131.745 75.73 131.52 76.942 131.206 78.132C130.934 79.289 130.598 80.436 130.242 81.576C129.605 83.424 128.794 85.208 127.819 86.902C125.8 90.63 122.811 93.538 119.865 96.484C115.678 100.667 111.495 104.854 107.274 109.003C102.203 113.947 96.3435 118.012 89.9375 121.033C87.5545 122.147 85.1075 123.119 82.6095 123.945C80.2775 124.734 77.8975 125.374 75.4845 125.862C73.0635 126.362 70.6125 126.708 68.1475 126.899C65.5675 127.086 62.9915 127.324 60.4065 127.154C57.5545 126.955 54.6895 126.729 51.8625 126.304C49.6095 125.96 47.3985 125.322 45.1755 124.774C40.3075 123.528 35.6315 121.627 31.2745 119.124C25.4435 115.868 20.1865 111.674 15.7165 106.712C12.6655 103.32 9.98051 99.615 7.70751 95.659C5.90551 92.534 4.39851 89.248 3.20551 85.844C2.42751 83.629 1.93051 81.316 1.32251 79.042C-0.122491 73.516 -0.131486 67.909 0.132514 62.281C0.262514 60.52 0.513513 58.77 0.884513 57.043C1.30951 54.918 1.68851 52.818 2.29651 50.765C3.13751 47.937 4.19451 45.179 5.45851 42.514C7.13251 38.972 9.12451 35.59 11.4105 32.409C13.8685 29.039 16.6225 25.895 19.6395 23.015C22.8255 19.96 26.2705 17.187 29.9355 14.729C33.3115 12.421 36.8745 10.4 40.5885 8.689C43.6705 7.286 46.8335 6.04001 50.0175 4.86301C52.1425 4.09801 54.3105 3.56601 56.4825 3.00501C58.3875 2.51601 60.3085 2.1 62.2435 1.73C63.9435 1.398 65.6435 1.17701 67.3445 0.880007C74.0135 -0.275993 80.7435 -0.051 87.4595 0.157C89.3895 0.217 91.3155 0.581995 93.2405 0.845995C94.3585 0.989995 95.4765 1.139 96.5865 1.33C97.9385 1.568 99.2815 1.836 100.625 2.121C102.037 2.419 103.448 2.71201 104.842 3.07801C106.504 3.50301 108.158 3.991 109.795 4.519C111.193 4.969 112.579 5.471 113.939 6.019C116.112 6.891 118.297 7.74501 120.409 8.74401C126.138 11.485 131.535 14.869 136.498 18.832C139.061 20.901 141.487 23.135 143.76 25.518C146.372 28.298 148.758 31.284 150.893 34.445C152.665 37.072 154.227 39.834 155.568 42.705C156.688 45.006 157.6 47.402 158.298 49.864C158.637 51.139 159.106 52.414 159.433 53.689C159.68 54.642 159.794 55.628 159.964 56.597C160.194 57.915 160.424 59.237 160.64 60.555C160.71 60.902 160.749 61.255 160.758 61.609C160.758 65.116 160.84 68.623 160.738 72.126C160.691 73.66 160.313 75.191 160.037 76.717C159.892 77.567 159.738 78.451 159.548 79.31C159.245 80.64 158.973 81.984 158.574 83.289C158.148 84.73 157.575 86.128 157.057 87.54C155.822 90.777 154.299 93.897 152.507 96.862C150.896 99.617 148.946 102.125 147.063 104.684C145.111 107.249 143.565 110.099 142.48 113.135C141.866 114.807 141.338 116.509 140.899 118.236C140.533 119.838 140.444 121.509 140.21 123.15C139.991 124.729 139.991 126.332 140.21 127.911C140.423 129.45 140.566 131.001 140.847 132.523C141.038 133.667 141.339 134.789 141.748 135.873C142.505 137.79 143.356 139.669 144.244 141.531C144.742 142.564 145.447 143.499 145.975 144.507C146.708 145.933 146.988 147.549 146.778 149.138C146.567 150.728 145.875 152.215 144.796 153.401C143.717 154.587 142.302 155.415 140.739 155.774C139.177 156.133 137.541 156.006 136.053 155.41C134.318 154.756 132.533 154.224 130.777 153.608C127.069 152.301 123.48 150.675 120.052 148.749C116.458 146.789 113.11 144.407 110.08 141.654C107.788 139.594 105.786 137.233 104.128 134.636C102.687 132.311 103.278 129.484 105.259 128.128C107.844 126.351 110.611 127.137 112.252 129.522C114.019 132.083 116.17 134.357 118.628 136.264C122.114 138.986 125.941 141.24 130.012 142.968C131.611 143.652 133.209 144.328 134.833 145.017C135.13 144.545 134.87 144.201 134.717 143.878C133.702 141.719 132.867 139.482 132.217 137.187C130.333 130.823 130.042 124.093 131.368 117.59C131.725 115.62 132.196 113.672 132.78 111.757C133.997 107.866 135.786 104.176 138.089 100.811C139.526 98.741 141.021 96.713 142.497 94.673C144.322 92.142 145.869 89.423 147.114 86.562C148.059 84.372 148.894 82.136 149.613 79.863C150.089 78.396 150.288 76.84 150.633 75.331C151.484 71.637 151.531 67.892 151.369 64.138C151.254 62.378 151.031 60.626 150.705 58.893C150.472 57.467 150.156 56.056 149.761 54.667C149.23 52.814 148.674 50.956 147.964 49.162C146.376 45.223 144.304 41.498 141.796 38.071C139.301 34.645 136.451 31.492 133.294 28.664C129.665 25.406 125.704 22.538 121.476 20.107C118.167 18.191 114.713 16.535 111.147 15.155C108.898 14.266 106.572 13.573 104.251 12.876C102.266 12.281 100.264 11.724 98.2355 11.29C96.2715 10.865 94.2735 10.597 92.2845 10.33C90.2955 10.062 88.3525 9.87501 86.3965 9.68801C85.1215 9.57701 83.8465 9.543 82.5715 9.52201C80.9765 9.49201 79.3785 9.43701 77.7885 9.52201C75.0045 9.69201 72.2205 9.947 69.4445 10.211C68.0035 10.351 66.5625 10.538 65.1425 10.802C63.4805 11.112 61.8345 11.503 60.1985 11.911C58.5615 12.319 56.8485 12.761 55.2115 13.28C52.9755 14.002 50.7525 14.776 48.5675 15.635C45.7005 16.776 42.9175 18.119 40.2405 19.652C37.3855 21.276 34.6345 23.077 32.0055 25.046C28.6095 27.621 25.4705 30.518 22.6325 33.697C20.6135 35.887 18.8145 38.27 17.2635 40.813C16.0775 42.786 14.9595 44.809 13.9605 46.879C13.2165 48.499 12.5725 50.163 12.0305 51.861C11.4395 53.617 10.8915 55.398 10.4705 57.201C10.1565 58.565 10.1435 60.002 9.85851 61.379C9.36951 63.768 9.52652 66.174 9.50552 68.58C9.52952 70.77 9.77952 72.951 10.2535 75.089C10.5685 76.64 10.8195 78.209 11.2575 79.722C11.7565 81.472 12.3555 83.193 13.0505 84.874C14.1595 87.555 15.4975 90.136 17.0515 92.586C18.2415 94.473 19.5375 96.293 20.9325 98.035C22.6095 100.134 24.4585 102.091 26.4585 103.885C30.5505 107.559 35.1825 110.581 40.1935 112.846C42.6565 113.943 45.1905 114.874 47.7775 115.634C49.2565 116.059 50.8035 116.251 52.3005 116.625C55.4505 117.407 58.6765 117.543 61.8775 117.568C64.5215 117.568 67.1825 117.615 69.8095 117.084C71.0165 116.842 72.2585 116.778 73.4615 116.523C74.9025 116.212 76.3265 115.817 77.7375 115.4C79.1495 114.984 80.5475 114.55 81.9245 114.027C86.0425 112.469 89.9535 110.413 93.5725 107.906C97.7005 105.096 101.182 101.572 104.668 98.044C108.664 94.005 112.711 90.018 116.681 85.954C118.456 84.062 119.859 81.853 120.817 79.442C121.62 77.522 122.15 75.501 122.395 73.435C122.655 71.573 122.618 69.682 122.284 67.832C122.05 66.48 121.739 65.141 121.353 63.824C120.306 60.575 118.519 57.613 116.133 55.173C113.443 52.331 110.054 50.245 106.305 49.124C103.594 48.273 100.741 47.974 97.9125 48.244C92.6785 48.703 87.7705 50.981 84.0415 54.684C83.5785 55.161 83.0235 55.541 82.4115 55.801C81.7995 56.061 81.1415 56.197 80.4765 56.2C79.8105 56.203 79.1515 56.074 78.5365 55.819C77.9225 55.565 77.3645 55.191 76.8965 54.718C74.5815 52.434 71.8015 50.674 68.7465 49.559C65.6925 48.443 62.4335 47.998 59.1905 48.252C53.7515 48.727 48.6645 51.141 44.8565 55.054C42.6185 57.328 40.8915 60.052 39.7895 63.046C38.5865 66.193 38.1345 69.577 38.4675 72.929C38.8365 76.506 40.0245 79.949 41.9405 82.991C43.4665 85.41 45.5325 87.34 47.5265 89.338C49.6945 91.51 51.8455 93.704 54.0685 95.821C55.9645 97.627 55.8365 101.037 54.3195 102.622C53.4185 103.553 52.1875 104.092 50.8925 104.124C49.5975 104.155 48.3425 103.675 47.3985 102.788C45.8745 101.292 44.3635 99.778 42.8675 98.248C40.6095 95.935 38.3445 93.636 36.1505 91.264C34.4455 89.349 33.0605 87.171 32.0485 84.815C31.2365 83.066 30.5555 81.258 30.0125 79.408C29.3745 77.308 29.0275 75.131 28.9795 72.938C28.9795 71.628 28.9795 70.319 28.9795 69.01C29.0305 67.174 29.2845 65.349 29.7355 63.569C30.3015 61.032 31.1855 58.576 32.3675 56.261C34.2425 52.535 36.8305 49.213 39.9855 46.484C42.5995 44.217 45.5625 42.385 48.7585 41.06C50.3055 40.49 51.8805 40 53.4775 39.593C56.9255 38.569 60.4665 38.637 63.9945 38.811C65.4715 38.942 66.9355 39.189 68.3725 39.551C69.4655 39.785 70.5365 40.133 71.6125 40.448C74.0145 41.213 76.3025 42.3 78.4135 43.678C79.0645 44.099 79.7055 44.584 80.4115 45.077Z" fill="#FF599B"/>
<path d="M80.6289 99.642C77.3949 99.666 74.2059 98.8841 71.3489 97.3681C68.8389 96.0401 66.5219 94.3751 64.4629 92.4201C62.1329 90.3161 62.5029 85.946 65.5509 84.59C66.3099 84.212 67.1549 84.042 68.0019 84.097C68.8479 84.152 69.6639 84.431 70.3669 84.904C70.9389 85.306 71.4789 85.751 71.9829 86.235C73.6109 87.78 75.5559 88.9501 77.6829 89.6651C79.0219 90.1231 80.4549 90.2371 81.8489 89.9971C84.8249 89.4151 87.1709 87.786 89.3939 85.882C89.7639 85.559 90.1299 85.227 90.5209 84.93C92.5189 83.421 96.3409 83.99 97.5269 86.711C98.3549 88.611 97.9899 91.0211 96.4769 92.4201C93.8789 94.8091 91.0609 96.867 87.7829 98.197C85.5279 99.181 83.0889 99.674 80.6289 99.642Z" fill="#FF599B"/>
<path d="M64.2326 64.653C68.1306 64.529 70.6596 67.726 70.6936 71.076C70.6506 72.759 69.9516 74.359 68.7456 75.534C67.5396 76.71 65.9226 77.367 64.2386 77.367C62.5546 77.367 60.9376 76.71 59.7316 75.534C58.5256 74.359 57.8266 72.759 57.7836 71.076C57.7456 67.662 60.6616 64.436 64.2326 64.653Z" fill="#FF599B"/>
<path d="M96.7482 64.657C100 64.419 103.155 67.501 103.125 71.033C103.099 72.719 102.416 74.327 101.22 75.516C100.024 76.704 98.4112 77.377 96.7262 77.392C95.0402 77.407 93.4162 76.763 92.1992 75.596C90.9822 74.429 90.2702 72.833 90.2152 71.148C90.1772 67.811 92.8762 64.474 96.7482 64.657Z" fill="#FF599B"/>
</g>
</svg>
