<svg width="81" height="80" viewBox="0 0 81 80" fill="none" xmlns="http://www.w3.org/2000/svg">
<rect x="0.5" width="80" height="80" rx="20" fill="#FFDEEB"/>
<g clip-path="url(#clip0_4_614)">
<g clip-path="url(#clip1_4_614)">
<path d="M54.9 35.2C60.1938 35.2 64.5 30.8938 64.5 25.6C64.5 20.3063 60.1938 16 54.9 16C51.0559 16 47.7414 18.2762 46.2098 21.5473L43.6391 20.5984C43.6695 20.4016 43.7 20.2047 43.7 20C43.7 17.7945 41.9055 16 39.7 16C37.4945 16 35.7 17.7945 35.7 20C35.7 22.2055 37.4945 24 39.7 24C41.1328 24 42.3824 23.2359 43.0887 22.1008L45.6551 23.048C45.4297 23.8625 45.3 24.7152 45.3 25.6C45.3 26.648 45.4742 27.6543 45.7863 28.5992L36.9879 32.3281C35.377 29.2824 32.1793 27.2 28.5 27.2C27.3078 27.2 26.1703 27.4289 25.116 27.8273L22.9031 23.177C23.8672 22.4457 24.5 21.3 24.5 20C24.5 17.7945 22.7055 16 20.5 16C18.2945 16 16.5 17.7945 16.5 20C16.5 22.2055 18.2945 24 20.5 24C20.8328 24 21.152 23.9473 21.4617 23.8695L23.6719 28.5152C20.823 30.1824 18.9 33.2672 18.9 36.8C18.9 40.1184 20.593 43.0473 23.1594 44.7719L21.6961 47.4023C21.3152 47.2824 20.9191 47.2 20.5 47.2C18.2945 47.2 16.5 48.9945 16.5 51.2C16.5 53.4055 18.2945 55.2 20.5 55.2C22.7055 55.2 24.5 53.4055 24.5 51.2C24.5 49.9887 23.9473 48.9145 23.0945 48.1809L24.5609 45.5449C25.7641 46.0895 27.0953 46.4 28.5 46.4C30.6953 46.4 32.7145 45.6512 34.3336 44.4062L37.4824 47.8703C35.8855 49.5855 34.9 51.877 34.9 54.4C34.9 54.8895 34.9488 55.3664 35.0191 55.8359L31.3145 56.7152C30.677 55.352 29.3016 54.4 27.7 54.4C25.4945 54.4 23.7 56.1945 23.7 58.4C23.7 60.6055 25.4945 62.4 27.7 62.4C29.9055 62.4 31.7 60.6055 31.7 58.4C31.7 58.3559 31.6879 58.3145 31.6871 58.2703L35.3848 57.3937C36.6457 61.2246 40.252 64 44.5 64C49.7938 64 54.1 59.6938 54.1 54.4C54.1 52.7586 53.6848 51.2129 52.9551 49.8609L57.6543 46.8055C58.3809 47.5414 59.3871 48 60.5 48C62.7055 48 64.5 46.2055 64.5 44C64.5 41.7945 62.7055 40 60.5 40C58.2945 40 56.5 41.7945 56.5 44C56.5 44.5168 56.6063 45.0078 56.7855 45.4617L52.0754 48.5238C51.1328 47.3121 49.909 46.3336 48.5 45.684L52.4047 34.8594C53.2016 35.0742 54.0359 35.2 54.9 35.2ZM39.7 22.4C38.377 22.4 37.3 21.323 37.3 20C37.3 18.677 38.377 17.6 39.7 17.6C41.023 17.6 42.1 18.677 42.1 20C42.1 21.323 41.023 22.4 39.7 22.4ZM18.1 20C18.1 18.677 19.177 17.6 20.5 17.6C21.823 17.6 22.9 18.677 22.9 20C22.9 21.323 21.823 22.4 20.5 22.4C19.177 22.4 18.1 21.323 18.1 20ZM20.5 53.6C19.177 53.6 18.1 52.523 18.1 51.2C18.1 49.877 19.177 48.8 20.5 48.8C21.823 48.8 22.9 49.877 22.9 51.2C22.9 52.523 21.823 53.6 20.5 53.6ZM27.7 60.8C26.377 60.8 25.3 59.723 25.3 58.4C25.3 57.077 26.377 56 27.7 56C29.023 56 30.1 57.077 30.1 58.4C30.1 59.723 29.023 60.8 27.7 60.8ZM60.5 41.6C61.823 41.6 62.9 42.677 62.9 44C62.9 45.323 61.823 46.4 60.5 46.4C59.177 46.4 58.1 45.323 58.1 44C58.1 42.677 59.177 41.6 60.5 41.6ZM50.1887 32.0512C50.5457 30.2008 52.177 28.8 54.1 28.8H55.7C57.623 28.8 59.2543 30.2008 59.6113 32.0512C58.2879 33.0199 56.6625 33.6 54.9 33.6C53.1375 33.6 51.5121 33.0199 50.1887 32.0512ZM54.9 27.2C53.577 27.2 52.5 26.123 52.5 24.8C52.5 23.477 53.577 22.4 54.9 22.4C56.223 22.4 57.3 23.477 57.3 24.8C57.3 26.123 56.223 27.2 54.9 27.2ZM54.9 17.6C59.3113 17.6 62.9 21.1887 62.9 25.6C62.9 27.6 62.1566 29.4273 60.9383 30.8313C60.3777 29.3551 59.209 28.177 57.7527 27.5953C58.4609 26.8734 58.9 25.8879 58.9 24.8C58.9 22.5945 57.1055 20.8 54.9 20.8C52.6945 20.8 50.9 22.5945 50.9 24.8C50.9 25.8879 51.3391 26.8734 52.0473 27.5953C50.591 28.177 49.4223 29.3551 48.8617 30.8313C47.6434 29.4273 46.9 27.6 46.9 25.6C46.9 21.1887 50.4887 17.6 54.9 17.6ZM20.5 36.8C20.5 32.3887 24.0887 28.8 28.5 28.8C32.9113 28.8 36.5 32.3887 36.5 36.8C36.5 38.8062 35.752 40.6383 34.5273 42.0441C33.9688 40.5625 32.7977 39.3785 31.3375 38.7953C32.0449 38.0734 32.484 37.0879 32.484 36C32.484 33.7945 30.6895 32 28.484 32C26.2785 32 24.484 33.7945 24.484 36C24.484 37.0879 24.923 38.0734 25.6313 38.7953C24.1793 39.3742 23.0121 40.548 22.4496 42.0184C21.2383 40.616 20.5 38.7945 20.5 36.8ZM26.084 36C26.084 34.677 27.1609 33.6 28.484 33.6C29.807 33.6 30.884 34.677 30.884 36C30.884 37.323 29.807 38.4 28.484 38.4C27.1609 38.4 26.084 37.323 26.084 36ZM23.7754 43.2406C24.1359 41.3953 25.7648 40 27.684 40H29.284C31.2105 40 32.8449 41.4055 33.1969 43.2617C31.8762 44.2246 30.2559 44.8 28.5 44.8C26.7312 44.8 25.1008 44.216 23.7754 43.2406ZM39.7754 60.8406C40.1359 58.9953 41.7648 57.6 43.684 57.6H45.284C47.2105 57.6 48.8449 59.0055 49.1969 60.8617C47.8762 61.8246 46.2559 62.4 44.5 62.4C42.7313 62.4 41.1008 61.816 39.7754 60.8406ZM44.484 56C43.1609 56 42.084 54.923 42.084 53.6C42.084 52.277 43.1609 51.2 44.484 51.2C45.807 51.2 46.884 52.277 46.884 53.6C46.884 54.923 45.807 56 44.484 56ZM52.5 54.4C52.5 56.4062 51.752 58.2383 50.5273 59.6441C49.9688 58.1625 48.7977 56.9785 47.3375 56.3953C48.0449 55.6734 48.484 54.6879 48.484 53.6C48.484 51.3945 46.6895 49.6 44.484 49.6C42.2785 49.6 40.484 51.3945 40.484 53.6C40.484 54.6879 40.923 55.6734 41.6313 56.3953C40.1793 56.9742 39.0121 58.148 38.4496 59.6184C37.2383 58.216 36.5 56.3945 36.5 54.4C36.5 49.9887 40.0887 46.4 44.5 46.4C48.9113 46.4 52.5 49.9887 52.5 54.4ZM46.9953 45.1406C46.1984 44.9258 45.3641 44.8 44.5 44.8C42.3047 44.8 40.2855 45.5488 38.6664 46.7938L35.5176 43.3297C37.1145 41.6145 38.1 39.323 38.1 36.8C38.1 35.752 37.9258 34.7457 37.6137 33.8008L46.4121 30.0719C47.3977 31.9352 48.9793 33.4305 50.9008 34.316L46.9953 45.1406Z" fill="#FF599B"/>
</g>
</g>
<defs>
<clipPath id="clip0_4_614">
<rect width="48" height="48" fill="white" transform="translate(16.5 16)"/>
</clipPath>
<clipPath id="clip1_4_614">
<rect width="48" height="48" fill="white" transform="translate(16.5 16)"/>
</clipPath>
</defs>
</svg>
