<svg width="81" height="80" viewBox="0 0 81 80" fill="none" xmlns="http://www.w3.org/2000/svg">
<rect x="0.5" width="80" height="80" rx="20" fill="#FFDEEB"/>
<g clip-path="url(#clip0_4_563)">
<mask id="mask0_4_563" style="mask-type:luminance" maskUnits="userSpaceOnUse" x="16" y="16" width="49" height="48">
<path d="M16.5 16H64.5V64H16.5V16Z" fill="white"/>
</mask>
<g mask="url(#mask0_4_563)">
<path fill-rule="evenodd" clip-rule="evenodd" d="M36.3876 53.7003C36.7759 53.7003 37.0907 53.3855 37.0907 52.9972V52.9682C37.0907 50.345 35.829 47.8674 33.6747 46.3534L33.6747 46.3534C30.612 44.201 28.6156 40.6427 28.6239 36.619L28.0614 36.6179L28.6239 36.619C28.6323 32.5454 30.6859 28.9605 33.8169 26.8306C34.1379 26.6122 34.2212 26.1749 34.0028 25.8538C33.7843 25.5327 33.347 25.4495 33.0259 25.6679C29.5265 28.0484 27.2271 32.0593 27.2177 36.6161C27.2084 41.1186 29.4444 45.0993 32.8661 47.5039L33.2704 46.9287L32.8661 47.5039C34.639 48.7499 35.6844 50.7946 35.6844 52.9682V52.9972C35.6844 53.3855 35.9992 53.7003 36.3876 53.7003Z" fill="#FF599B"/>
<path fill-rule="evenodd" clip-rule="evenodd" d="M44.6125 53.7003C45.0008 53.7003 45.3156 53.3855 45.3156 52.9972V52.9685C45.3156 50.7787 46.4015 48.7377 48.2005 47.4567C51.5775 45.0525 53.7823 41.1058 53.7823 36.6441C53.7823 29.3147 47.835 23.3743 40.5001 23.3742C38.7563 23.3742 37.0899 23.7089 35.563 24.3187C35.2024 24.4627 35.0268 24.8718 35.1708 25.2324C35.3148 25.5931 35.7239 25.7687 36.0845 25.6246C37.448 25.0802 38.9376 24.7804 40.5001 24.7804C47.0597 24.7805 52.3761 30.0927 52.3761 36.6441C52.3761 40.6313 50.4075 44.1592 47.3849 46.3112L47.3849 46.3112C45.2294 47.846 43.9093 50.3068 43.9093 52.9685V52.9972C43.9093 53.3855 44.2241 53.7003 44.6125 53.7003Z" fill="#FF599B"/>
<path fill-rule="evenodd" clip-rule="evenodd" d="M34.4749 55.4138C34.4749 56.4702 35.3319 57.3253 36.3875 57.3253H40.5C40.8883 57.3253 41.2031 57.0105 41.2031 56.6222C41.2031 56.2339 40.8883 55.9191 40.5 55.9191H36.3875C36.1072 55.9191 35.8811 55.6922 35.8811 55.4138V54.2055C35.8811 53.9271 36.1072 53.7003 36.3875 53.7003H44.6124C44.8928 53.7003 45.1189 53.9271 45.1189 54.2055V55.4138C45.1189 55.6922 44.8927 55.9191 44.6124 55.9191H43.3125C42.9242 55.9191 42.6094 56.2339 42.6094 56.6222C42.6094 57.0105 42.9242 57.3253 43.3125 57.3253H44.6124C45.668 57.3253 46.5251 56.4702 46.5251 55.4138V54.2055C46.5251 53.1491 45.668 52.294 44.6124 52.294H36.3875C35.332 52.294 34.4749 53.1491 34.4749 54.2055V55.4138Z" fill="#FF599B"/>
<path fill-rule="evenodd" clip-rule="evenodd" d="M34.4749 59.039C34.4749 60.0953 35.332 60.9504 36.3876 60.9504H44.6124C45.6681 60.9504 46.525 60.0952 46.525 59.039V57.8306C46.525 56.7744 45.6681 55.9192 44.6124 55.9192C44.2241 55.9192 43.9093 56.234 43.9093 56.6223C43.9093 57.0106 44.2241 57.3254 44.6124 57.3254C44.8927 57.3254 45.1188 57.5522 45.1188 57.8306V59.039C45.1188 59.3174 44.8927 59.5442 44.6124 59.5442H36.3876C36.1073 59.5442 35.8811 59.3173 35.8811 59.039V57.8306C35.8811 57.5523 36.1073 57.3254 36.3876 57.3254C36.7759 57.3254 37.0907 57.0106 37.0907 56.6223C37.0907 56.234 36.7759 55.9192 36.3876 55.9192C35.332 55.9192 34.4749 56.7743 34.4749 57.8306V59.039Z" fill="#FF599B"/>
<path fill-rule="evenodd" clip-rule="evenodd" d="M37.0857 62.4909C37.0857 63.3244 37.7613 64 38.5948 64H42.4052C43.2386 64 43.9143 63.3244 43.9143 62.4909V60.2473C43.9143 59.859 43.5995 59.5442 43.2111 59.5442C42.8228 59.5442 42.508 59.859 42.508 60.2473V62.4909C42.508 62.5477 42.462 62.5938 42.4052 62.5938H38.5948C38.538 62.5938 38.4919 62.5477 38.4919 62.4909V60.2473C38.4919 59.859 38.1771 59.5442 37.7888 59.5442C37.4005 59.5442 37.0857 59.859 37.0857 60.2473V62.4909Z" fill="#FF599B"/>
<path fill-rule="evenodd" clip-rule="evenodd" d="M40.5 53.7003C40.8883 53.7003 41.2031 53.3855 41.2031 52.9972V44.9411C41.2031 44.5527 40.8883 44.2379 40.5 44.2379C40.1117 44.2379 39.7969 44.5527 39.7969 44.9411V52.9972C39.7969 53.3855 40.1117 53.7003 40.5 53.7003Z" fill="#FF599B"/>
<path fill-rule="evenodd" clip-rule="evenodd" d="M39.5589 45.8314C40.0787 46.351 40.9213 46.351 41.4411 45.8314L41.4411 45.8313L45.479 41.7947C48.3313 38.9434 48.3313 34.3198 45.479 31.4684L45.0316 31.916L45.479 31.4684L41.4412 27.432C40.9214 26.9122 40.0787 26.9122 39.5588 27.432L35.521 31.4684L35.9948 31.9423L35.521 31.4684C32.6687 34.3198 32.6687 38.9434 35.521 41.7947L39.5589 45.8313L39.5589 45.8314ZM40.5 44.7837L36.5152 40.8002L36.0181 41.2975L36.5152 40.8002C34.2123 38.4981 34.2123 34.7651 36.5152 32.463L40.5 28.4796L44.4848 32.463L44.9819 31.9657L44.4848 32.463C46.7877 34.7651 46.7877 38.4981 44.4848 40.8002L40.5 44.7837ZM40.447 28.4266C40.4469 28.4265 40.4469 28.4264 40.4468 28.4264L40.4469 28.4265L40.447 28.4266ZM40.553 28.4266C40.5531 28.4265 40.5531 28.4264 40.5532 28.4264L40.5531 28.4265" fill="#FF599B"/>
<path fill-rule="evenodd" clip-rule="evenodd" d="M40.5 46.2209C40.8883 46.2209 41.2031 45.9061 41.2031 45.5178V34.7478C41.2031 34.3595 40.8883 34.0447 40.5 34.0447C40.1117 34.0447 39.7969 34.3595 39.7969 34.7478V45.5178C39.7969 45.9061 40.1117 46.2209 40.5 46.2209Z" fill="#FF599B"/>
<path fill-rule="evenodd" clip-rule="evenodd" d="M40.0027 38.5578C40.2773 38.8324 40.7225 38.8325 40.9971 38.5579L42.8265 36.7291C43.1011 36.4546 43.1012 36.0094 42.8266 35.7348C42.5521 35.4602 42.1069 35.4601 41.8322 35.7346L40.0029 37.5634C39.7283 37.838 39.7282 38.2831 40.0027 38.5578Z" fill="#FF599B"/>
<path fill-rule="evenodd" clip-rule="evenodd" d="M40.0027 41.3833C40.2773 41.658 40.7225 41.658 40.9971 41.3835L42.8265 39.5547C43.1011 39.2802 43.1012 38.835 42.8266 38.5603C42.5521 38.2857 42.1069 38.2856 41.8322 38.5602L40.0029 40.389C39.7283 40.6635 39.7282 41.1087 40.0027 41.3833Z" fill="#FF599B"/>
<path fill-rule="evenodd" clip-rule="evenodd" d="M40.9973 39.4997C41.2718 39.225 41.2717 38.7798 40.9971 38.5053L39.1678 36.6765C38.8931 36.402 38.4479 36.402 38.1734 36.6767C37.8988 36.9513 37.8989 37.3965 38.1735 37.671L40.0029 39.4998C40.2775 39.7744 40.7227 39.7743 40.9973 39.4997Z" fill="#FF599B"/>
<path fill-rule="evenodd" clip-rule="evenodd" d="M40.9973 42.3252C41.2718 42.0506 41.2717 41.6054 40.9971 41.3309L39.1678 39.5021C38.8931 39.2275 38.4479 39.2276 38.1734 39.5022C37.8988 39.7769 37.8989 40.2221 38.1735 40.4966L40.0029 42.3254C40.2775 42.5999 40.7227 42.5999 40.9973 42.3252Z" fill="#FF599B"/>
<path fill-rule="evenodd" clip-rule="evenodd" d="M40.5 20.7695C40.8883 20.7695 41.2031 20.4547 41.2031 20.0664V16.7031C41.2031 16.3148 40.8883 16 40.5 16C40.1117 16 39.7969 16.3148 39.7969 16.7031V20.0664C39.7969 20.4547 40.1117 20.7695 40.5 20.7695Z" fill="#FF599B"/>
<path fill-rule="evenodd" clip-rule="evenodd" d="M32.5689 22.8947C32.9052 22.7005 33.0205 22.2705 32.8263 21.9342L31.1447 19.0215C30.9506 18.6852 30.5205 18.57 30.1842 18.7641C29.8479 18.9583 29.7327 19.3883 29.9269 19.7246L31.6085 22.6373C31.8026 22.9736 32.2326 23.0889 32.5689 22.8947Z" fill="#FF599B"/>
<path fill-rule="evenodd" clip-rule="evenodd" d="M26.763 28.7006C26.9572 28.3643 26.8419 27.9342 26.5056 27.7401L23.5929 26.0585C23.2566 25.8643 22.8266 25.9796 22.6324 26.3159C22.4383 26.6522 22.5535 27.0822 22.8898 27.2763L25.8025 28.9579C26.1388 29.1521 26.5689 29.0369 26.763 28.7006Z" fill="#FF599B"/>
<path fill-rule="evenodd" clip-rule="evenodd" d="M19.8683 36.6316C19.8683 37.0199 20.1831 37.3347 20.5715 37.3347H23.9348C24.3231 37.3347 24.6379 37.0199 24.6379 36.6316C24.6379 36.2433 24.3231 35.9285 23.9348 35.9285H20.5715C20.1831 35.9285 19.8683 36.2433 19.8683 36.6316Z" fill="#FF599B"/>
<path fill-rule="evenodd" clip-rule="evenodd" d="M56.3621 36.6316C56.3621 37.0199 56.6769 37.3347 57.0652 37.3347H60.4285C60.8168 37.3347 61.1316 37.0199 61.1316 36.6316C61.1316 36.2433 60.8168 35.9285 60.4285 35.9285H57.0652C56.6769 35.9285 56.3621 36.2433 56.3621 36.6316Z" fill="#FF599B"/>
<path fill-rule="evenodd" clip-rule="evenodd" d="M54.237 28.7006C54.4311 29.0369 54.8611 29.1521 55.1974 28.9579L58.1102 27.2763C58.4465 27.0822 58.5617 26.6522 58.3675 26.3159C58.1734 25.9796 57.7434 25.8643 57.407 26.0585L54.4943 27.7401C54.158 27.9342 54.0428 28.3643 54.237 28.7006Z" fill="#FF599B"/>
<path fill-rule="evenodd" clip-rule="evenodd" d="M48.431 22.8947C48.7673 23.0889 49.1974 22.9736 49.3915 22.6373L51.0731 19.7246C51.2673 19.3883 51.152 18.9583 50.8157 18.7641C50.4794 18.57 50.0494 18.6852 49.8553 19.0215L48.1737 21.9342C47.9795 22.2705 48.0947 22.7005 48.431 22.8947Z" fill="#FF599B"/>
</g>
</g>
<defs>
<clipPath id="clip0_4_563">
<rect width="48" height="48" fill="white" transform="translate(16.5 16)"/>
</clipPath>
</defs>
</svg>
