<svg width="201" height="193" viewBox="0 0 201 193" fill="none" xmlns="http://www.w3.org/2000/svg">
<path d="M100.381 55.7877C101.682 54.9562 102.866 54.152 104.096 53.4207C106.723 51.8605 109.527 50.612 112.449 49.7026C114.322 49.1236 116.306 48.9132 118.228 48.4554C121.634 47.6351 125.09 47.9296 128.518 48.0558C130.226 48.1907 131.918 48.4789 133.575 48.9182C134.938 49.2188 136.281 49.6395 137.623 50.028C140.539 50.9177 143.319 52.1933 145.891 53.8204C150.1 56.3692 153.782 59.6889 156.738 63.6037C159.021 66.4965 160.825 69.732 162.082 73.1866C162.859 75.2603 163.513 77.376 164.041 79.5252C164.551 81.6534 164.795 83.8372 164.762 86.026C164.687 88.0824 164.793 90.1549 164.629 92.2001C164.463 93.7146 164.183 95.2141 163.791 96.6865C163.451 98.1181 163.032 99.5373 162.586 100.948C161.792 103.234 160.779 105.442 159.562 107.538C157.041 112.15 153.31 115.748 149.632 119.393C144.405 124.569 139.184 129.75 133.914 134.883C127.584 141 120.27 146.03 112.273 149.768C109.298 151.146 106.244 152.349 103.125 153.371C100.214 154.347 97.243 155.139 94.2307 155.743C91.2085 156.361 88.1488 156.79 85.0716 157.026C81.8509 157.257 78.6352 157.552 75.4082 157.341C71.8479 157.095 68.2714 156.816 64.7423 156.29C61.9298 155.864 59.1697 155.075 56.3946 154.397C50.3177 152.855 44.4804 150.503 39.0414 147.406C31.7623 143.377 25.1997 138.188 19.6196 132.049C15.8109 127.852 12.4591 123.267 9.62164 118.373C7.37212 114.506 5.49086 110.44 4.00159 106.229C3.03037 103.488 2.40994 100.626 1.65095 97.8125C-0.152911 90.9752 -0.16414 84.0377 0.165424 77.0741C0.327708 74.8953 0.641042 72.73 1.10418 70.5932C1.63472 67.9639 2.10784 65.3656 2.86683 62.8254C3.91669 59.3264 5.2362 55.9139 6.81411 52.6165C8.90384 48.234 11.3905 44.0494 14.2443 40.1136C17.3127 35.9439 20.7506 32.0538 24.5169 28.4904C28.4941 24.7104 32.7947 21.2794 37.3699 18.2381C41.5843 15.3825 46.0321 12.8819 50.6685 10.7649C54.5159 9.02892 58.4644 7.48726 62.4391 6.03096C65.0919 5.08443 67.7983 4.42619 70.5097 3.73206C72.8878 3.12702 75.2858 2.61229 77.7014 2.15449C79.8236 1.74371 81.9458 1.47028 84.0692 1.1028C92.3944 -0.327514 100.796 -0.0491313 109.18 0.208227C111.589 0.282465 113.993 0.734073 116.396 1.06072C117.792 1.23889 119.188 1.42326 120.573 1.65958C122.261 1.95406 123.938 2.28566 125.614 2.63829C127.377 3.007 129.138 3.36953 130.878 3.82238C132.953 4.34823 135.018 4.95203 137.061 5.60532C138.807 6.1621 140.537 6.78323 142.235 7.46127C144.947 8.54019 147.675 9.59685 150.311 10.8329C157.463 14.2243 164.202 18.4114 170.397 23.3148C173.597 25.8747 176.624 28.6389 179.461 31.5874C182.722 35.027 185.701 38.7216 188.366 42.6327C190.578 45.8831 192.529 49.3005 194.203 52.8528C195.6 55.6998 196.74 58.6644 197.61 61.7106C198.034 63.2882 198.619 64.8657 199.027 66.4433C199.335 67.6224 199.477 68.8424 199.69 70.0413C199.977 71.6721 200.264 73.3078 200.534 74.9386C200.621 75.3679 200.67 75.8047 200.682 76.2427C200.682 80.5819 200.783 84.9211 200.656 89.2553C200.597 91.1534 200.125 93.0477 199.781 94.9358C199.6 95.9875 199.409 97.0812 199.17 98.1441C198.793 99.7897 198.454 101.453 197.954 103.067C197.424 104.85 196.707 106.58 196.061 108.327C194.519 112.332 192.619 116.193 190.382 119.861C188.371 123.27 185.935 126.373 183.585 129.539C181.148 132.713 179.218 136.239 177.864 139.996C177.097 142.064 176.438 144.17 175.89 146.307C175.433 148.289 175.322 150.357 175.03 152.387C174.756 154.341 174.756 156.324 175.03 158.278C175.296 160.182 175.476 162.101 175.826 163.984C176.065 165.4 176.44 166.788 176.951 168.129C177.896 170.501 178.957 172.826 180.066 175.13C180.687 176.408 181.567 177.565 182.227 178.812C183.142 180.577 183.491 182.576 183.229 184.542C182.966 186.509 182.103 188.349 180.756 189.817C179.409 191.284 177.641 192.309 175.69 192.753C173.74 193.197 171.698 193.04 169.84 192.302C167.675 191.493 165.446 190.835 163.254 190.073C158.625 188.456 154.145 186.444 149.866 184.061C145.379 181.636 141.2 178.688 137.417 175.282C134.556 172.733 132.057 169.812 129.987 166.599C128.188 163.722 128.926 160.224 131.399 158.546C134.626 156.348 138.08 157.32 140.129 160.271C142.334 163.44 145.02 166.254 148.088 168.613C152.44 171.981 157.217 174.77 162.299 176.908C164.295 177.754 166.29 178.591 168.318 179.443C168.688 178.859 168.365 178.434 168.174 178.034C166.907 175.363 165.863 172.595 165.053 169.755C162.701 161.881 162.337 153.554 163.992 145.508C164.438 143.07 165.026 140.66 165.755 138.291C167.274 133.476 169.507 128.911 172.382 124.747C174.176 122.186 176.044 119.677 177.885 117.153C180.163 114.021 182.094 110.657 183.648 107.117C184.828 104.407 185.87 101.641 186.768 98.8283C187.362 97.0132 187.612 95.088 188.043 93.2209C189.104 88.6503 189.162 84.0166 188.96 79.3718C188.817 77.1942 188.539 75.0264 188.132 72.8822C187.842 71.1178 187.447 69.372 186.954 67.6533C186.291 65.3606 185.596 63.0617 184.71 60.842C182.727 55.9683 180.141 51.3594 177.01 47.1192C173.895 42.8802 170.337 38.979 166.396 35.4799C161.866 31.4488 156.921 27.9002 151.643 24.8923C147.513 22.5217 143.201 20.4727 138.749 18.7652C135.942 17.6653 133.038 16.8078 130.141 15.9454C127.663 15.2092 125.163 14.52 122.632 13.9831C120.18 13.4572 117.686 13.1256 115.203 12.7953C112.72 12.4637 110.294 12.2323 107.853 12.0009C106.261 11.8636 104.669 11.8215 103.078 11.7955C101.087 11.7584 99.0918 11.6904 97.1069 11.7955C93.6315 12.0059 90.1561 12.3214 86.6907 12.648C84.8919 12.8212 83.093 13.0526 81.3203 13.3793C79.2456 13.7628 77.1908 14.2466 75.1485 14.7514C73.105 15.2562 70.9666 15.8031 68.923 16.4453C66.1317 17.3386 63.3567 18.2963 60.629 19.3591C57.05 20.7709 53.5759 22.4326 50.2341 24.3293C46.67 26.3387 43.2358 28.5671 39.9539 31.0033C35.7146 34.1894 31.796 37.7738 28.2532 41.7072C25.7328 44.4169 23.487 47.3654 21.5508 50.5118C20.0703 52.953 18.6746 55.4561 17.4275 58.0173C16.4988 60.0217 15.6948 62.0806 15.0182 64.1815C14.2805 66.3542 13.5964 68.5578 13.0708 70.7887C12.6788 72.4763 12.6626 74.2543 12.3068 75.9581C11.6964 78.914 11.8924 81.8909 11.8662 84.8679C11.8961 87.5775 12.2082 90.2761 12.7999 92.9214C13.1932 94.8405 13.5065 96.7818 14.0533 98.6538C14.6762 100.819 15.4239 102.949 16.2915 105.028C17.676 108.346 19.3462 111.539 21.2862 114.57C22.7717 116.905 24.3896 119.157 26.131 121.312C28.2245 123.91 30.5327 126.331 33.0293 128.551C38.1376 133.097 43.9199 136.836 50.1754 139.638C53.25 140.995 56.4134 142.147 59.6428 143.088C61.4891 143.614 63.4203 143.851 65.2891 144.314C69.2214 145.281 73.2485 145.45 77.2445 145.481C80.5451 145.481 83.867 145.539 87.1464 144.882C88.6531 144.582 90.2036 144.503 91.7053 144.188C93.5042 143.803 95.2818 143.314 97.0433 142.798C98.8059 142.283 100.551 141.746 102.27 141.099C107.411 139.172 112.293 136.628 116.811 133.526C121.964 130.049 126.309 125.689 130.661 121.324C135.65 116.326 140.702 111.393 145.658 106.365C147.873 104.024 149.625 101.291 150.821 98.3074C151.823 95.9318 152.485 93.4312 152.791 90.875C153.115 88.5711 153.069 86.2314 152.652 83.9424C152.36 82.2696 151.972 80.6128 151.49 78.9833C150.183 74.9633 147.952 71.2984 144.973 68.2794C141.615 64.763 137.385 62.182 132.705 60.795C129.32 59.7421 125.759 59.3721 122.229 59.7062C115.695 60.2741 109.568 63.0927 104.913 67.6744C104.335 68.2646 103.642 68.7347 102.878 69.0564C102.114 69.3781 101.293 69.5464 100.462 69.5501C99.6311 69.5539 98.8084 69.3942 98.0407 69.0787C97.2742 68.7644 96.5776 68.3017 95.9934 67.7164C93.1035 64.8904 89.6331 62.7128 85.8194 61.3332C82.0069 59.9524 77.9386 59.4018 73.8902 59.7161C67.1004 60.3038 60.7501 63.2906 55.9964 68.1322C53.2026 70.9458 51.0467 74.3162 49.671 78.0207C48.1693 81.9144 47.605 86.1014 48.0207 90.2489C48.4814 94.6747 49.9644 98.9347 52.3562 102.699C54.2612 105.692 56.8403 108.08 59.3295 110.552C62.0359 113.239 64.7211 115.954 67.4962 118.573C69.863 120.808 69.7032 125.027 67.8095 126.988C66.6847 128.14 65.148 128.807 63.5314 128.846C61.9148 128.885 60.3481 128.291 59.1697 127.193C57.2672 125.342 55.381 123.469 53.5135 121.576C50.6947 118.714 47.8672 115.87 45.1283 112.935C42.9999 110.565 41.2709 107.87 40.0076 104.955C38.994 102.791 38.1438 100.554 37.466 98.2653C36.6695 95.667 36.2364 92.9734 36.1764 90.26C36.1764 88.6391 36.1764 87.0196 36.1764 85.3999C36.2401 83.1282 36.5572 80.8702 37.1202 78.6678C37.8267 75.5288 38.9303 72.4899 40.4058 69.6256C42.7465 65.0154 45.9772 60.9051 49.9157 57.5285C53.1789 54.7236 56.8777 52.4569 60.8675 50.8174C62.7986 50.1122 64.7648 49.5059 66.7584 49.0023C71.0627 47.7353 75.4831 47.8195 79.8872 48.0348C81.7311 48.1968 83.5586 48.5024 85.3525 48.9503C86.7169 49.2399 88.0539 49.6705 89.3971 50.0602C92.3957 51.0067 95.2519 52.3517 97.8871 54.0567C98.6998 54.5776 99.5 55.1777 100.381 55.7877Z" fill="#FF599B"/>
<path d="M100.381 55.7877C101.682 54.9562 102.866 54.152 104.096 53.4207C106.723 51.8605 109.527 50.612 112.449 49.7026C114.322 49.1236 116.306 48.9132 118.228 48.4554C121.634 47.6351 125.09 47.9296 128.518 48.0558C130.226 48.1907 131.918 48.4789 133.575 48.9182C134.938 49.2188 136.281 49.6395 137.623 50.028C140.539 50.9177 143.319 52.1933 145.891 53.8204C150.1 56.3692 153.782 59.6889 156.738 63.6037C159.021 66.4965 160.825 69.732 162.082 73.1866C162.859 75.2603 163.513 77.376 164.041 79.5252C164.551 81.6534 164.795 83.8372 164.762 86.026C164.687 88.0824 164.793 90.1549 164.629 92.2001C164.463 93.7146 164.183 95.2141 163.791 96.6865C163.451 98.1181 163.032 99.5373 162.586 100.948C161.792 103.234 160.779 105.442 159.562 107.538C157.041 112.15 153.31 115.748 149.632 119.393C144.405 124.569 139.184 129.75 133.914 134.883C127.584 141 120.27 146.03 112.273 149.768C109.298 151.146 106.244 152.349 103.125 153.371C100.214 154.347 97.243 155.139 94.2307 155.743C91.2085 156.361 88.1488 156.79 85.0716 157.026C81.8509 157.257 78.6352 157.552 75.4082 157.341C71.8479 157.095 68.2714 156.816 64.7423 156.29C61.9298 155.864 59.1697 155.075 56.3946 154.397C50.3177 152.855 44.4804 150.503 39.0414 147.406C31.7623 143.377 25.1997 138.188 19.6196 132.049C15.8109 127.852 12.4591 123.267 9.62164 118.373C7.37212 114.506 5.49086 110.44 4.00159 106.229C3.03037 103.488 2.40994 100.626 1.65095 97.8125C-0.152911 90.9752 -0.16414 84.0377 0.165424 77.0741C0.327708 74.8953 0.641042 72.73 1.10418 70.5932C1.63472 67.9639 2.10784 65.3656 2.86683 62.8254C3.91669 59.3264 5.2362 55.9139 6.81411 52.6165C8.90384 48.234 11.3905 44.0494 14.2443 40.1136C17.3127 35.9439 20.7506 32.0538 24.5169 28.4904C28.4941 24.7104 32.7947 21.2794 37.3699 18.2381C41.5843 15.3825 46.0321 12.8819 50.6685 10.7649C54.5159 9.02892 58.4644 7.48726 62.4391 6.03096C65.0919 5.08443 67.7983 4.42619 70.5097 3.73206C72.8878 3.12702 75.2858 2.61229 77.7014 2.15449C79.8236 1.74371 81.9458 1.47028 84.0692 1.1028C92.3944 -0.327514 100.796 -0.0491313 109.18 0.208227C111.589 0.282465 113.993 0.734073 116.396 1.06072C117.792 1.23889 119.188 1.42326 120.573 1.65958C122.261 1.95406 123.938 2.28566 125.614 2.63829C127.377 3.007 129.138 3.36953 130.878 3.82238C132.953 4.34823 135.018 4.95203 137.061 5.60532C138.807 6.1621 140.537 6.78323 142.235 7.46127C144.947 8.54019 147.675 9.59685 150.311 10.8329C157.463 14.2243 164.202 18.4114 170.397 23.3148C173.597 25.8747 176.624 28.6389 179.461 31.5874C182.722 35.027 185.701 38.7216 188.366 42.6327C190.578 45.8831 192.529 49.3005 194.203 52.8528C195.6 55.6998 196.74 58.6644 197.61 61.7106C198.034 63.2882 198.619 64.8657 199.027 66.4433C199.335 67.6224 199.477 68.8424 199.69 70.0413C199.977 71.6721 200.264 73.3078 200.534 74.9386C200.621 75.3679 200.67 75.8047 200.682 76.2427C200.682 80.5819 200.783 84.9211 200.656 89.2553C200.597 91.1534 200.125 93.0477 199.781 94.9358C199.6 95.9875 199.409 97.0812 199.17 98.1441C198.793 99.7897 198.454 101.453 197.954 103.067C197.424 104.85 196.707 106.58 196.061 108.327C194.519 112.332 192.619 116.193 190.382 119.861C188.371 123.27 185.935 126.373 183.585 129.539C181.148 132.713 179.218 136.239 177.864 139.996C177.097 142.064 176.438 144.17 175.89 146.307C175.433 148.289 175.322 150.357 175.03 152.387C174.756 154.341 174.756 156.324 175.03 158.278C175.296 160.182 175.476 162.101 175.826 163.984C176.065 165.4 176.44 166.788 176.951 168.129C177.896 170.501 178.957 172.826 180.066 175.13C180.687 176.408 181.567 177.565 182.227 178.812C183.142 180.577 183.491 182.576 183.229 184.542C182.966 186.509 182.103 188.349 180.756 189.817C179.409 191.284 177.641 192.309 175.69 192.753C173.74 193.197 171.698 193.04 169.84 192.302C167.675 191.493 165.446 190.835 163.254 190.073C158.625 188.456 154.145 186.444 149.866 184.061C145.379 181.636 141.2 178.688 137.417 175.282C134.556 172.733 132.057 169.812 129.987 166.599C128.188 163.722 128.926 160.224 131.399 158.546C134.626 156.348 138.08 157.32 140.129 160.271C142.334 163.44 145.02 166.254 148.088 168.613C152.44 171.981 157.217 174.77 162.299 176.908C164.295 177.754 166.29 178.591 168.318 179.443C168.688 178.859 168.365 178.434 168.174 178.034C166.907 175.363 165.863 172.595 165.053 169.755C162.701 161.881 162.337 153.554 163.992 145.508C164.438 143.07 165.026 140.66 165.755 138.291C167.274 133.476 169.507 128.911 172.382 124.747C174.176 122.186 176.044 119.677 177.885 117.153C180.163 114.021 182.094 110.657 183.648 107.117C184.828 104.407 185.87 101.641 186.768 98.8283C187.362 97.0132 187.612 95.088 188.043 93.2209C189.104 88.6503 189.162 84.0166 188.96 79.3718C188.817 77.1942 188.539 75.0264 188.132 72.8822C187.842 71.1178 187.447 69.372 186.954 67.6533C186.291 65.3606 185.596 63.0617 184.71 60.842C182.727 55.9683 180.141 51.3594 177.01 47.1192C173.895 42.8802 170.337 38.979 166.396 35.4799C161.866 31.4488 156.921 27.9002 151.643 24.8923C147.513 22.5217 143.201 20.4727 138.749 18.7652C135.942 17.6653 133.038 16.8078 130.141 15.9454C127.663 15.2092 125.163 14.52 122.632 13.9831C120.18 13.4572 117.686 13.1256 115.203 12.7953C112.72 12.4637 110.294 12.2323 107.853 12.0009C106.261 11.8636 104.669 11.8215 103.078 11.7955C101.087 11.7584 99.0918 11.6904 97.1069 11.7955C93.6315 12.0059 90.1561 12.3214 86.6907 12.648C84.8919 12.8212 83.093 13.0526 81.3203 13.3793C79.2456 13.7628 77.1908 14.2466 75.1485 14.7514C73.105 15.2562 70.9666 15.8031 68.923 16.4453C66.1317 17.3386 63.3567 18.2963 60.629 19.3591C57.05 20.7709 53.5759 22.4326 50.2341 24.3293C46.67 26.3387 43.2358 28.5671 39.9539 31.0033C35.7146 34.1894 31.796 37.7738 28.2532 41.7072C25.7328 44.4169 23.487 47.3654 21.5508 50.5118C20.0703 52.953 18.6746 55.4561 17.4275 58.0173C16.4988 60.0217 15.6948 62.0806 15.0182 64.1815C14.2805 66.3542 13.5964 68.5578 13.0708 70.7887C12.6788 72.4763 12.6626 74.2543 12.3068 75.9581C11.6964 78.914 11.8924 81.8909 11.8662 84.8679C11.8961 87.5775 12.2082 90.2761 12.7999 92.9214C13.1932 94.8405 13.5065 96.7818 14.0533 98.6538C14.6762 100.819 15.4239 102.949 16.2915 105.028C17.676 108.346 19.3462 111.539 21.2862 114.57C22.7717 116.905 24.3896 119.157 26.131 121.312C28.2245 123.91 30.5327 126.331 33.0293 128.551C38.1376 133.097 43.9199 136.836 50.1754 139.638C53.25 140.995 56.4134 142.147 59.6428 143.088C61.4891 143.614 63.4203 143.851 65.2891 144.314C69.2214 145.281 73.2485 145.45 77.2445 145.481C80.5451 145.481 83.867 145.539 87.1464 144.882C88.6531 144.582 90.2036 144.503 91.7053 144.188C93.5042 143.803 95.2818 143.314 97.0433 142.798C98.8059 142.283 100.551 141.746 102.27 141.099C107.411 139.172 112.293 136.628 116.811 133.526C121.964 130.049 126.309 125.689 130.661 121.324C135.65 116.326 140.702 111.393 145.658 106.365C147.873 104.024 149.625 101.291 150.821 98.3074C151.823 95.9318 152.485 93.4312 152.791 90.875C153.115 88.5711 153.069 86.2314 152.652 83.9424C152.36 82.2696 151.972 80.6128 151.49 78.9833C150.183 74.9633 147.952 71.2984 144.973 68.2794C141.615 64.763 137.385 62.182 132.705 60.795C129.32 59.7421 125.759 59.3721 122.229 59.7062C115.695 60.2741 109.568 63.0927 104.913 67.6744C104.335 68.2646 103.642 68.7347 102.878 69.0564C102.114 69.3781 101.293 69.5464 100.462 69.5501C99.6311 69.5539 98.8084 69.3942 98.0407 69.0787C97.2742 68.7644 96.5776 68.3017 95.9934 67.7164C93.1035 64.8904 89.6331 62.7128 85.8194 61.3332C82.0069 59.9524 77.9386 59.4018 73.8902 59.7161C67.1004 60.3038 60.7501 63.2906 55.9964 68.1322C53.2026 70.9458 51.0467 74.3162 49.671 78.0207C48.1693 81.9144 47.605 86.1014 48.0207 90.2489C48.4814 94.6747 49.9644 98.9347 52.3562 102.699C54.2612 105.692 56.8403 108.08 59.3295 110.552C62.0359 113.239 64.7211 115.954 67.4962 118.573C69.863 120.808 69.7032 125.027 67.8095 126.988C66.6847 128.14 65.148 128.807 63.5314 128.846C61.9148 128.885 60.3481 128.291 59.1697 127.193C57.2672 125.342 55.381 123.469 53.5135 121.576C50.6947 118.714 47.8672 115.87 45.1283 112.935C42.9999 110.565 41.2709 107.87 40.0076 104.955C38.994 102.791 38.1438 100.554 37.466 98.2653C36.6695 95.667 36.2364 92.9734 36.1764 90.26C36.1764 88.6391 36.1764 87.0196 36.1764 85.3999C36.2401 83.1282 36.5572 80.8702 37.1202 78.6678C37.8267 75.5288 38.9303 72.4899 40.4058 69.6256C42.7465 65.0154 45.9772 60.9051 49.9157 57.5285C53.1789 54.7236 56.8777 52.4569 60.8675 50.8174C62.7986 50.1122 64.7648 49.5059 66.7584 49.0023C71.0627 47.7353 75.4831 47.8195 79.8872 48.0348C81.7311 48.1968 83.5586 48.5024 85.3525 48.9503C86.7169 49.2399 88.0539 49.6705 89.3971 50.0602C92.3957 51.0067 95.2519 52.3517 97.8871 54.0567C98.6998 54.5776 99.5 55.1777 100.381 55.7877Z" fill="#FF599B"/>
<path d="M100.653 123.3C96.6156 123.33 92.6347 122.362 89.0681 120.486C85.9348 118.843 83.0424 116.783 80.472 114.364C77.5634 111.761 78.0253 106.354 81.8302 104.676C82.7777 104.209 83.8326 103.998 84.8899 104.066C85.946 104.134 86.9647 104.479 87.8423 105.065C88.5563 105.562 89.2304 106.113 89.8596 106.712C91.8919 108.623 94.3199 110.071 96.9752 110.956C98.6467 111.522 100.436 111.663 102.176 111.366C105.891 110.646 108.819 108.631 111.595 106.275C112.056 105.875 112.513 105.464 113.001 105.097C115.496 103.23 120.267 103.934 121.747 107.301C122.781 109.651 122.325 112.633 120.437 114.364C117.193 117.32 113.676 119.867 109.583 121.512C106.768 122.73 103.724 123.34 100.653 123.3Z" fill="#FF599B"/>
<path d="M80.1843 80.0089C85.0504 79.8555 88.2074 83.8111 88.2499 87.956C88.1962 90.0384 87.3236 92.0181 85.8181 93.4719C84.3126 94.927 82.294 95.7399 80.1918 95.7399C78.0896 95.7399 76.071 94.927 74.5655 93.4719C73.06 92.0181 72.1874 90.0384 72.1338 87.956C72.0863 83.7319 75.7265 79.7404 80.1843 80.0089Z" fill="#FF599B"/>
<path d="M120.774 80.014C124.834 79.7196 128.772 83.5329 128.735 87.903C128.702 89.9891 127.85 91.9787 126.357 93.4498C124.864 94.9197 122.85 95.7525 120.747 95.771C118.642 95.7896 116.615 94.9928 115.095 93.5488C113.576 92.1049 112.687 90.1302 112.619 88.0453C112.571 83.9165 115.941 79.7876 120.774 80.014Z" fill="#FF599B"/>
</svg>
