<?xml version="1.0" encoding="UTF-8"?>
<svg fill="none" viewBox="0 0 189 51" xmlns="http://www.w3.org/2000/svg">
<g clip-path="url(#b)" fill="#FF599B">
<mask id="a" x="0" y="1" width="50" height="49" style="mask-type:luminance" maskUnits="userSpaceOnUse">
<path d="M49.5153 1.98148H0V49.5901H49.5153V1.98148Z" fill="#fff"/>
</mask>
<g mask="url(#a)">
<path d="m24.758 15.738c0.3209-0.2051 0.6127-0.4034 0.9163-0.5838 0.6478-0.3848 1.3393-0.6927 2.0601-0.917 0.4618-0.1428 0.9514-0.1947 1.4252-0.3076 0.8402-0.2023 1.6925-0.1297 2.5379-0.0986 0.4212 0.0333 0.8387 0.1044 1.2473 0.2127 0.3362 0.0742 0.6675 0.1779 0.9985 0.2737 0.7192 0.2195 1.4049 0.5341 2.0391 0.9354 1.0382 0.6286 1.9462 1.4474 2.6753 2.4129 0.5631 0.7135 1.008 1.5115 1.318 2.3635 0.1915 0.5115 0.3529 1.0333 0.4831 1.5634 0.1259 0.5248 0.186 1.0634 0.178 1.6033-0.0185 0.5072 0.0077 1.0183-0.033 1.5228-0.0409 0.3735-0.1099 0.7433-0.2066 1.1065-0.0837 0.3531-0.1872 0.7031-0.2971 1.051-0.1958 0.5639-0.4458 1.1083-0.746 1.6253-0.6216 1.1376-1.5419 2.025-2.4489 2.9241-1.2892 1.2765-2.5771 2.5542-3.8767 3.8203-1.5613 1.5087-3.3652 2.7492-5.3375 3.6711-0.7337 0.34-1.4871 0.6366-2.2562 0.8887-0.718 0.2407-1.4508 0.436-2.1937 0.585-0.7454 0.1525-1.5001 0.2581-2.259 0.3164-0.7944 0.0571-1.5875 0.1297-2.3834 0.0778-0.8781-0.0607-1.7602-0.1297-2.6306-0.2594-0.6936-0.1049-1.3744-0.2996-2.0588-0.4669-1.4988-0.3802-2.9385-0.9603-4.28-1.7241-1.7953-0.9937-3.4139-2.2735-4.7901-3.7877-0.93936-1.0351-1.766-2.1658-2.4659-3.373-0.55481-0.9536-1.0188-1.9564-1.3861-2.9952-0.23954-0.6759-0.39256-1.3818-0.57976-2.0757-0.4449-1.6864-0.44767-3.3974-0.36639-5.1149 0.040026-0.5374 0.1173-1.0714 0.23153-1.5984 0.13085-0.6485 0.24754-1.2893 0.43474-1.9158 0.25893-0.863 0.58437-1.7047 0.97354-2.5179 0.51541-1.0809 1.1287-2.113 1.8326-3.0837 0.75679-1.0284 1.6047-1.9879 2.5336-2.8667 0.98094-0.93228 2.0416-1.7785 3.17-2.5286 1.0394-0.70432 2.1364-1.3211 3.28-1.8432 0.9489-0.42815 1.9228-0.80838 2.9031-1.1676 0.6542-0.23345 1.3217-0.3958 1.9905-0.56699 0.5865-0.14923 1.178-0.27618 1.7737-0.38909 0.5234-0.10132 1.0468-0.16875 1.5706-0.25939 2.0533-0.35277 4.1254-0.28411 6.1931-0.22063 0.5943 0.01831 1.1873 0.12969 1.7799 0.21025 0.3443 0.04395 0.6885 0.08942 1.0302 0.14771 0.4163 0.07262 0.8298 0.15441 1.2433 0.24138 0.4347 0.09094 0.8692 0.18035 1.2984 0.29204 0.5117 0.1297 1.0209 0.27862 1.5249 0.43974 0.4305 0.13733 0.8572 0.29052 1.2759 0.45775 0.6691 0.2661 1.3418 0.52671 1.9921 0.83157 1.7639 0.83646 3.4258 1.8691 4.9539 3.0785 0.7891 0.63138 1.5357 1.3131 2.2356 2.0403 0.8042 0.84832 1.5388 1.7596 2.1961 2.7242 0.5456 0.8016 1.0268 1.6445 1.4397 2.5206 0.3445 0.7022 0.6257 1.4334 0.8402 2.1847 0.1047 0.3891 0.2488 0.7782 0.3495 1.1673 0.0761 0.2908 0.1112 0.5917 0.1635 0.8874 0.0708 0.4022 0.1416 0.8056 0.2081 1.2078 0.0216 0.1059 0.0336 0.2136 0.0367 0.3217 0 1.0702 0.0249 2.1404-0.0065 3.2094-0.0145 0.4681-0.1309 0.9353-0.2158 1.401-0.0447 0.2594-0.0918 0.5291-0.1506 0.7913-0.093 0.4058-0.1767 0.816-0.2999 1.2142-0.1308 0.4398-0.3076 0.8664-0.467 1.2973-0.3803 0.9878-0.8489 1.9399-1.4006 2.8447-0.496 0.8407-1.0967 1.6061-1.6765 2.387-0.601 0.7827-1.077 1.6525-1.411 2.5789-0.1891 0.5103-0.3516 1.0297-0.4868 1.5567-0.1127 0.4888-0.1401 0.9988-0.2121 1.4996-0.0675 0.4818-0.0675 0.971 0 1.4528 0.0655 0.4697 0.1099 0.943 0.1964 1.4075 0.0588 0.3491 0.1515 0.6915 0.2774 1.0223 0.2331 0.585 0.4948 1.1584 0.7682 1.7266 0.1533 0.3152 0.3704 0.6005 0.5329 0.9081 0.2257 0.4352 0.3119 0.9284 0.2473 1.4133-0.065 0.4852-0.2777 0.9389-0.61 1.3009-0.3322 0.3619-0.7681 0.6146-1.2494 0.7241-0.4809 0.1096-0.9846 0.0708-1.4427-0.1111-0.5342-0.1995-1.0838-0.3619-1.6245-0.5499-1.1416-0.3988-2.2466-0.895-3.3021-1.4828-1.1065-0.5981-2.1373-1.325-3.0702-2.1651-0.7057-0.6286-1.3221-1.3491-1.8326-2.1416-0.4436-0.7095-0.2617-1.5722 0.3482-1.986 0.7959-0.5423 1.6479-0.3025 2.1531 0.4254 0.5441 0.7815 1.2063 1.4754 1.9631 2.0574 1.0733 0.8306 2.2516 1.5185 3.505 2.0458 0.4923 0.2087 0.9843 0.415 1.4843 0.6253 0.0915-0.1441 0.0117-0.249-0.0354-0.3476-0.3125-0.6589-0.5699-1.3415-0.7697-2.0419-0.5801-1.942-0.67-3.9958-0.2617-5.9803 0.1099-0.6011 0.2549-1.1956 0.4347-1.78 0.3747-1.1874 0.9256-2.3134 1.6346-3.3403 0.4425-0.6317 0.9031-1.2506 1.3572-1.8731 0.5619-0.7724 1.0382-1.6021 1.4215-2.4752 0.291-0.6683 0.5481-1.3506 0.7694-2.0443 0.1466-0.4477 0.2082-0.9225 0.3144-1.383 0.2617-1.1273 0.2762-2.2701 0.2263-3.4157-0.0354-0.5371-0.1038-1.0717-0.2041-1.6006-0.0718-0.4351-0.1691-0.8657-0.2907-1.2896-0.1635-0.5655-0.335-1.1325-0.5536-1.6799-0.4889-1.2021-1.1268-2.3388-1.899-3.3846-0.7682-1.0455-1.6457-2.0077-2.6177-2.8707-1.1173-0.9942-2.3369-1.8694-3.6386-2.6113-1.0188-0.5847-2.0823-1.09-3.1802-1.5112-0.6924-0.27129-1.4086-0.48277-2.1232-0.69547-0.6112-0.18157-1.2276-0.35155-1.852-0.48399-0.6046-0.1297-1.2198-0.21148-1.8322-0.29296-0.6124-0.08178-1.2106-0.13885-1.8129-0.19591-0.3925-0.03388-0.7851-0.04425-1.1776-0.05066-0.4911-0.00916-0.9831-0.02594-1.4727 0-0.8571 0.05188-1.7143 0.12969-2.569 0.21026-0.4436 0.04272-0.8873 0.09979-1.3245 0.18035-0.5117 0.0946-1.0185 0.21392-1.5222 0.33842-0.504 0.12451-1.0314 0.25939-1.5355 0.41777-0.6884 0.22033-1.3728 0.45653-2.0456 0.71866-0.8827 0.3482-1.7395 0.75803-2.5638 1.2258-0.879 0.49558-1.726 1.0452-2.5354 1.6461-1.0456 0.78575-2.012 1.6698-2.8858 2.64-0.62163 0.6683-1.1755 1.3955-1.653 2.1716-0.36516 0.6021-0.70938 1.2194-1.017 1.8511-0.22907 0.4944-0.42735 1.0021-0.59423 1.5203-0.18196 0.5359-0.35068 1.0794-0.4803 1.6296-0.09668 0.4162-0.10068 0.8548-0.18843 1.275-0.15056 0.729-0.10222 1.4632-0.10868 2.1974 0.00739 0.6684 0.08436 1.3339 0.2303 1.9864 0.09698 0.4733 0.17426 0.9521 0.30912 1.4138 0.15363 0.534 0.33806 1.0592 0.55204 1.5722 0.34145 0.8181 0.7534 1.6058 1.2319 2.3534 0.36639 0.5759 0.76542 1.1313 1.1949 1.6629 0.51633 0.6405 1.0856 1.2377 1.7014 1.7852 1.2599 1.1211 2.686 2.0434 4.2289 2.7345 0.7583 0.3348 1.5385 0.6189 2.335 0.8508 0.4554 0.1297 0.9317 0.1883 1.3926 0.3025 0.9698 0.2386 1.9631 0.2801 2.9486 0.2877 0.8141 0 1.6334 0.0144 2.4422-0.1477 0.3716-0.0738 0.754-0.0933 1.1244-0.1712 0.4437-0.0949 0.8821-0.2154 1.3165-0.3427 0.4348-0.1269 0.8652-0.2594 1.2892-0.419 1.2679-0.4754 2.472-1.1028 3.5863-1.8679 1.2709-0.8575 2.3427-1.9329 3.416-3.0095 1.2303-1.2326 2.4763-2.4492 3.6986-3.6894 0.5466-0.5774 0.9785-1.2515 1.2735-1.9873 0.2472-0.5859 0.4104-1.2026 0.4858-1.8331 0.0801-0.5682 0.0687-1.1453-0.0341-1.7098-0.0721-0.4126-0.1678-0.8212-0.2867-1.2231-0.3224-0.9915-0.8726-1.8954-1.6072-2.64-0.8282-0.8673-1.8716-1.5038-3.0259-1.8459-0.8347-0.2597-1.7131-0.351-2.5838-0.2686-1.6115 0.1401-3.1226 0.8353-4.2707 1.9653-0.1426 0.1456-0.3135 0.2615-0.5019 0.3409-0.1884 0.0793-0.391 0.1208-0.5958 0.1217-0.205 9e-4 -0.4079-0.0384-0.5973-0.1162-0.189-0.0776-0.3608-0.1917-0.5049-0.336-0.7128-0.697-1.5687-1.2341-2.5093-1.5744-0.9403-0.3405-1.9437-0.4763-2.9422-0.3988-1.6746 0.1449-3.2408 0.8816-4.4132 2.0757-0.6891 0.6939-1.2208 1.5252-1.5601 2.4389-0.3704 0.9603-0.5096 1.993-0.407 3.0159 0.1136 1.0916 0.4793 2.1423 1.0693 3.0706 0.4698 0.7382 1.1059 1.3271 1.7198 1.9369 0.6675 0.6628 1.3298 1.3323 2.0142 1.9783 0.5838 0.5512 0.5444 1.5918 0.0773 2.0755-0.2774 0.2841-0.6564 0.4485-1.0551 0.4583-0.3987 0.0095-0.7851-0.137-1.0758-0.4077-0.4692-0.4565-0.9344-0.9185-1.395-1.3854-0.6952-0.7059-1.3926-1.4075-2.0681-2.1313-0.525-0.5844-0.9514-1.249-1.263-1.968-0.25-0.5337-0.45968-1.0855-0.62686-1.65-0.19644-0.6409-0.30327-1.3052-0.31805-1.9744v-1.1987c0.0157-0.5603 0.09391-1.1172 0.23276-1.6604 0.17427-0.7742 0.44644-1.5237 0.81037-2.2302 0.57726-1.137 1.3741-2.1508 2.3455-2.9836 0.8049-0.6918 1.7171-1.2508 2.7011-1.6552 0.4763-0.1739 0.9613-0.3234 1.453-0.4476 1.0616-0.3125 2.1518-0.2918 3.238-0.2387 0.4548 0.04 0.9055 0.1154 1.348 0.2258 0.3365 0.0715 0.6662 0.1777 0.9975 0.2738 0.7396 0.2334 1.444 0.5651 2.094 0.9857 0.2004 0.1284 0.3978 0.2764 0.6151 0.4269z"/>
<path d="m24.758 15.738c0.3209-0.2051 0.6127-0.4034 0.9163-0.5838 0.6478-0.3848 1.3393-0.6927 2.0601-0.917 0.4618-0.1428 0.9514-0.1947 1.4252-0.3076 0.8402-0.2023 1.6925-0.1297 2.5379-0.0986 0.4212 0.0333 0.8387 0.1044 1.2473 0.2127 0.3362 0.0742 0.6675 0.1779 0.9985 0.2737 0.7192 0.2195 1.4049 0.5341 2.0391 0.9354 1.0382 0.6286 1.9462 1.4474 2.6753 2.4129 0.5631 0.7135 1.008 1.5115 1.318 2.3635 0.1915 0.5115 0.3529 1.0333 0.4831 1.5634 0.1259 0.5248 0.186 1.0634 0.178 1.6033-0.0185 0.5072 0.0077 1.0183-0.033 1.5228-0.0409 0.3735-0.1099 0.7433-0.2066 1.1065-0.0837 0.3531-0.1872 0.7031-0.2971 1.051-0.1958 0.5639-0.4458 1.1083-0.746 1.6253-0.6216 1.1376-1.5419 2.025-2.4489 2.9241-1.2892 1.2765-2.5771 2.5542-3.8767 3.8203-1.5613 1.5087-3.3652 2.7492-5.3375 3.6711-0.7337 0.34-1.4871 0.6366-2.2562 0.8887-0.718 0.2407-1.4508 0.436-2.1937 0.585-0.7454 0.1525-1.5001 0.2581-2.259 0.3164-0.7944 0.0571-1.5875 0.1297-2.3834 0.0778-0.8781-0.0607-1.7602-0.1297-2.6306-0.2594-0.6936-0.1049-1.3744-0.2996-2.0588-0.4669-1.4988-0.3802-2.9385-0.9603-4.28-1.7241-1.7953-0.9937-3.4139-2.2735-4.7901-3.7877-0.93936-1.0351-1.766-2.1658-2.4659-3.373-0.55481-0.9536-1.0188-1.9564-1.3861-2.9952-0.23954-0.6759-0.39256-1.3818-0.57976-2.0757-0.4449-1.6864-0.44767-3.3974-0.36639-5.1149 0.040026-0.5374 0.1173-1.0714 0.23153-1.5984 0.13085-0.6485 0.24754-1.2893 0.43474-1.9158 0.25893-0.863 0.58437-1.7047 0.97354-2.5179 0.51541-1.0809 1.1287-2.113 1.8326-3.0837 0.75679-1.0284 1.6047-1.9879 2.5336-2.8667 0.98094-0.93228 2.0416-1.7785 3.17-2.5286 1.0394-0.70432 2.1364-1.3211 3.28-1.8432 0.9489-0.42815 1.9228-0.80838 2.9031-1.1676 0.6542-0.23345 1.3217-0.3958 1.9905-0.56699 0.5865-0.14923 1.178-0.27618 1.7737-0.38909 0.5234-0.10132 1.0468-0.16875 1.5706-0.25939 2.0533-0.35277 4.1254-0.28411 6.1931-0.22063 0.5943 0.01831 1.1873 0.12969 1.7799 0.21025 0.3443 0.04395 0.6885 0.08942 1.0302 0.14771 0.4163 0.07262 0.8298 0.15441 1.2433 0.24138 0.4347 0.09094 0.8692 0.18035 1.2984 0.29204 0.5117 0.1297 1.0209 0.27862 1.5249 0.43974 0.4305 0.13733 0.8572 0.29052 1.2759 0.45775 0.6691 0.2661 1.3418 0.52671 1.9921 0.83157 1.7639 0.83646 3.4258 1.8691 4.9539 3.0785 0.7891 0.63138 1.5357 1.3131 2.2356 2.0403 0.8042 0.84832 1.5388 1.7596 2.1961 2.7242 0.5456 0.8016 1.0268 1.6445 1.4397 2.5206 0.3445 0.7022 0.6257 1.4334 0.8402 2.1847 0.1047 0.3891 0.2488 0.7782 0.3495 1.1673 0.0761 0.2908 0.1112 0.5917 0.1635 0.8874 0.0708 0.4022 0.1416 0.8056 0.2081 1.2078 0.0216 0.1059 0.0336 0.2136 0.0367 0.3217 0 1.0702 0.0249 2.1404-0.0065 3.2094-0.0145 0.4681-0.1309 0.9353-0.2158 1.401-0.0447 0.2594-0.0918 0.5291-0.1506 0.7913-0.093 0.4058-0.1767 0.816-0.2999 1.2142-0.1308 0.4398-0.3076 0.8664-0.467 1.2973-0.3803 0.9878-0.8489 1.9399-1.4006 2.8447-0.496 0.8407-1.0967 1.6061-1.6765 2.387-0.601 0.7827-1.077 1.6525-1.411 2.5789-0.1891 0.5103-0.3516 1.0297-0.4868 1.5567-0.1127 0.4888-0.1401 0.9988-0.2121 1.4996-0.0675 0.4818-0.0675 0.971 0 1.4528 0.0655 0.4697 0.1099 0.943 0.1964 1.4075 0.0588 0.3491 0.1515 0.6915 0.2774 1.0223 0.2331 0.585 0.4948 1.1584 0.7682 1.7266 0.1533 0.3152 0.3704 0.6005 0.5329 0.9081 0.2257 0.4352 0.3119 0.9284 0.2473 1.4133-0.065 0.4852-0.2777 0.9389-0.61 1.3009-0.3322 0.3619-0.7681 0.6146-1.2494 0.7241-0.4809 0.1096-0.9846 0.0708-1.4427-0.1111-0.5342-0.1995-1.0838-0.3619-1.6245-0.5499-1.1416-0.3988-2.2466-0.895-3.3021-1.4828-1.1065-0.5981-2.1373-1.325-3.0702-2.1651-0.7057-0.6286-1.3221-1.3491-1.8326-2.1416-0.4436-0.7095-0.2617-1.5722 0.3482-1.986 0.7959-0.5423 1.6479-0.3025 2.1531 0.4254 0.5441 0.7815 1.2063 1.4754 1.9631 2.0574 1.0733 0.8306 2.2516 1.5185 3.505 2.0458 0.4923 0.2087 0.9843 0.415 1.4843 0.6253 0.0915-0.1441 0.0117-0.249-0.0354-0.3476-0.3125-0.6589-0.5699-1.3415-0.7697-2.0419-0.5801-1.942-0.67-3.9958-0.2617-5.9803 0.1099-0.6011 0.2549-1.1956 0.4347-1.78 0.3747-1.1874 0.9256-2.3134 1.6346-3.3403 0.4425-0.6317 0.9031-1.2506 1.3572-1.8731 0.5619-0.7724 1.0382-1.6021 1.4215-2.4752 0.291-0.6683 0.5481-1.3506 0.7694-2.0443 0.1466-0.4477 0.2082-0.9225 0.3144-1.383 0.2617-1.1273 0.2762-2.2701 0.2263-3.4157-0.0354-0.5371-0.1038-1.0717-0.2041-1.6006-0.0718-0.4351-0.1691-0.8657-0.2907-1.2896-0.1635-0.5655-0.335-1.1325-0.5536-1.6799-0.4889-1.2021-1.1268-2.3388-1.899-3.3846-0.7682-1.0455-1.6457-2.0077-2.6177-2.8707-1.1173-0.9942-2.3369-1.8694-3.6386-2.6113-1.0188-0.5847-2.0823-1.09-3.1802-1.5112-0.6924-0.27129-1.4086-0.48277-2.1232-0.69547-0.6112-0.18157-1.2276-0.35155-1.852-0.48399-0.6046-0.1297-1.2198-0.21148-1.8322-0.29296-0.6124-0.08178-1.2106-0.13885-1.8129-0.19591-0.3925-0.03388-0.7851-0.04425-1.1776-0.05066-0.4911-0.00916-0.9831-0.02594-1.4727 0-0.8571 0.05188-1.7143 0.12969-2.569 0.21026-0.4436 0.04272-0.8873 0.09979-1.3245 0.18035-0.5117 0.0946-1.0185 0.21392-1.5222 0.33842-0.504 0.12451-1.0314 0.25939-1.5355 0.41777-0.6884 0.22033-1.3728 0.45653-2.0456 0.71866-0.8827 0.3482-1.7395 0.75803-2.5638 1.2258-0.879 0.49558-1.726 1.0452-2.5354 1.6461-1.0456 0.78575-2.012 1.6698-2.8858 2.64-0.62163 0.6683-1.1755 1.3955-1.653 2.1716-0.36516 0.6021-0.70938 1.2194-1.017 1.8511-0.22907 0.4944-0.42735 1.0021-0.59423 1.5203-0.18196 0.5359-0.35068 1.0794-0.4803 1.6296-0.09668 0.4162-0.10068 0.8548-0.18843 1.275-0.15056 0.729-0.10222 1.4632-0.10868 2.1974 0.00739 0.6684 0.08436 1.3339 0.2303 1.9864 0.09698 0.4733 0.17426 0.9521 0.30912 1.4138 0.15363 0.534 0.33806 1.0592 0.55204 1.5722 0.34145 0.8181 0.7534 1.6058 1.2319 2.3534 0.36639 0.5759 0.76542 1.1313 1.1949 1.6629 0.51633 0.6405 1.0856 1.2377 1.7014 1.7852 1.2599 1.1211 2.686 2.0434 4.2289 2.7345 0.7583 0.3348 1.5385 0.6189 2.335 0.8508 0.4554 0.1297 0.9317 0.1883 1.3926 0.3025 0.9698 0.2386 1.9631 0.2801 2.9486 0.2877 0.8141 0 1.6334 0.0144 2.4422-0.1477 0.3716-0.0738 0.754-0.0933 1.1244-0.1712 0.4437-0.0949 0.8821-0.2154 1.3165-0.3427 0.4348-0.1269 0.8652-0.2594 1.2892-0.419 1.2679-0.4754 2.472-1.1028 3.5863-1.8679 1.2709-0.8575 2.3427-1.9329 3.416-3.0095 1.2303-1.2326 2.4763-2.4492 3.6986-3.6894 0.5466-0.5774 0.9785-1.2515 1.2735-1.9873 0.2472-0.5859 0.4104-1.2026 0.4858-1.8331 0.0801-0.5682 0.0687-1.1453-0.0341-1.7098-0.0721-0.4126-0.1678-0.8212-0.2867-1.2231-0.3224-0.9915-0.8726-1.8954-1.6072-2.64-0.8282-0.8673-1.8716-1.5038-3.0259-1.8459-0.8347-0.2597-1.7131-0.351-2.5838-0.2686-1.6115 0.1401-3.1226 0.8353-4.2707 1.9653-0.1426 0.1456-0.3135 0.2615-0.5019 0.3409-0.1884 0.0793-0.391 0.1208-0.5958 0.1217-0.205 9e-4 -0.4079-0.0384-0.5973-0.1162-0.189-0.0776-0.3608-0.1917-0.5049-0.336-0.7128-0.697-1.5687-1.2341-2.5093-1.5744-0.9403-0.3405-1.9437-0.4763-2.9422-0.3988-1.6746 0.1449-3.2408 0.8816-4.4132 2.0757-0.6891 0.6939-1.2208 1.5252-1.5601 2.4389-0.3704 0.9603-0.5096 1.993-0.407 3.0159 0.1136 1.0916 0.4793 2.1423 1.0693 3.0706 0.4698 0.7382 1.1059 1.3271 1.7198 1.9369 0.6675 0.6628 1.3298 1.3323 2.0142 1.9783 0.5838 0.5512 0.5444 1.5918 0.0773 2.0755-0.2774 0.2841-0.6564 0.4485-1.0551 0.4583-0.3987 0.0095-0.7851-0.137-1.0758-0.4077-0.4692-0.4565-0.9344-0.9185-1.395-1.3854-0.6952-0.7059-1.3926-1.4075-2.0681-2.1313-0.525-0.5844-0.9514-1.249-1.263-1.968-0.25-0.5337-0.45968-1.0855-0.62686-1.65-0.19644-0.6409-0.30327-1.3052-0.31805-1.9744v-1.1987c0.0157-0.5603 0.09391-1.1172 0.23276-1.6604 0.17427-0.7742 0.44644-1.5237 0.81037-2.2302 0.57726-1.137 1.3741-2.1508 2.3455-2.9836 0.8049-0.6918 1.7171-1.2508 2.7011-1.6552 0.4763-0.1739 0.9613-0.3234 1.453-0.4476 1.0616-0.3125 2.1518-0.2918 3.238-0.2387 0.4548 0.04 0.9055 0.1154 1.348 0.2258 0.3365 0.0715 0.6662 0.1777 0.9975 0.2738 0.7396 0.2334 1.444 0.5651 2.094 0.9857 0.2004 0.1284 0.3978 0.2764 0.6151 0.4269z"/>
<path d="m24.824 32.389c-0.9957 0.0074-1.9776-0.2313-2.8572-0.6939-0.7728-0.4052-1.4862-0.9133-2.1202-1.5099-0.7173-0.6421-0.6034-1.9757 0.335-2.3895 0.2337-0.1153 0.4939-0.1672 0.7547-0.1504 0.2604 0.0168 0.5117 0.1019 0.7281 0.2462 0.1761 0.1227 0.3424 0.2585 0.4976 0.4062 0.5012 0.4715 1.1001 0.8285 1.7549 1.0467 0.4123 0.1398 0.8535 0.1746 1.2827 0.1013 0.9163-0.1776 1.6386-0.6747 2.323-1.2557 0.1139-0.0986 0.2266-0.1999 0.347-0.2905 0.6152-0.4605 1.7919-0.2869 2.1571 0.5435 0.2549 0.5798 0.1425 1.3152-0.3233 1.7422-0.7999 0.729-1.6675 1.357-2.6768 1.7629-0.6943 0.3003-1.4452 0.4507-2.2026 0.4409z"/>
<path d="m19.776 21.711c1.2002-0.0379 1.9788 0.9377 1.9893 1.96-0.0132 0.5136-0.2285 1.0019-0.5998 1.3604-0.3713 0.3589-0.8691 0.5594-1.3876 0.5594s-1.0164-0.2005-1.3877-0.5594c-0.3713-0.3585-0.5865-0.8468-0.5997-1.3604-0.0117-1.0418 0.8861-2.0263 1.9855-1.96z"/>
<path d="m29.787 21.712c1.0013-0.0726 1.9727 0.8679 1.9634 1.9457-8e-3 0.5145-0.2183 1.0052-0.5865 1.3681-0.3682 0.3625-0.8649 0.5679-1.3837 0.5724-0.5191 0.0046-1.0191-0.1919-1.3938-0.548-0.3747-0.3562-0.5939-0.8432-0.6108-1.3574-0.0117-1.0183 0.8193-2.0367 2.0114-1.9808z"/>
</g>
<path d="m56.836 37.268v-20.82c0-1.6146 0.565-2.9817 1.6947-4.1014 1.1561-1.1459 2.5484-1.7187 4.1774-1.7187 1.2611 0 2.3907 0.3647 3.3892 1.0937 1.0247 0.7031 1.7341 1.6275 2.1282 2.7734l4.6897 13.164c0.3415 1.0156 0.5779 1.8881 0.7094 2.6171l0.197 1.0937h0.2365l0.197-1.0937c0.2627-1.0415 0.5124-1.914 0.7488-2.6171l4.6898-13.32c0.3679-1.0937 1.0379-1.979 2.0099-2.6561 0.9985-0.7031 2.1019-1.0547 3.3104-1.0547 1.5238 0 2.8375 0.5469 3.941 1.6406 1.1035 1.0678 1.6552 2.3696 1.6552 3.9061v20.937c0 0.9896-0.3679 1.849-1.1035 2.578-0.7094 0.7031-1.5764 1.0546-2.601 1.0546-0.9985 0-1.8655-0.3515-2.6011-1.0546-0.7093-0.729-1.064-1.5884-1.064-2.578v-16.601h-0.2365l-0.3153 1.6014c-0.2103 1.0156-0.5385 2.1743-0.9852 3.4765l-4.4139 12.539c-0.2626 0.7552-0.7355 1.3802-1.4187 1.8749-0.6833 0.4947-1.445 0.7421-2.2858 0.7421-0.8409 0-1.6026-0.2474-2.2858-0.7421s-1.1561-1.1197-1.4187-1.8749l-4.4533-12.539c-0.4203-1.25-0.7488-2.4087-0.9853-3.4765-0.1576-0.729-0.2626-1.263-0.3153-1.6014h-0.2364v16.757c0 0.9634-0.3415 1.7837-1.0247 2.4609-0.6832 0.6771-1.5108 1.0155-2.4828 1.0155s-1.8128-0.3384-2.5222-1.0155c-0.6832-0.6772-1.0247-1.4975-1.0247-2.4609zm39.088-4.6092v-10.195c0-0.9896 0.3547-1.8359 1.0641-2.539 0.7356-0.729 1.6026-1.0937 2.6011-1.0937 0.9986 0 1.8526 0.3647 2.5616 1.0937 0.736 0.7031 1.103 1.5494 1.103 2.539v9.0622c0 1.4583 0.29 2.4867 0.867 3.0858 0.605 0.5728 1.288 0.8593 2.05 0.8593 1.024 0 1.839-0.4037 2.443-1.2109 0.605-0.8071 0.907-1.979 0.907-3.5155v-8.2809c0-0.9896 0.354-1.8359 1.064-2.539 0.735-0.729 1.602-1.0937 2.601-1.0937 0.998 0 1.852 0.3647 2.561 1.0937 0.736 0.7031 1.104 1.5494 1.104 2.539v14.921c0 0.9115-0.342 1.7056-1.025 2.3827-0.657 0.6509-1.458 0.9765-2.404 0.9765-0.919 0-1.721-0.3256-2.404-0.9765-0.657-0.6771-0.985-1.4712-0.985-2.3827v-0.8203c-1.34 2.9165-3.521 4.3748-6.542 4.3748-5.0445 0-7.5668-2.7602-7.5668-8.2809zm23.814-11.132c0-0.6509 0.236-1.2109 0.709-1.6796s1.038-0.7031 1.695-0.7031h1.103v-0.664c0-2.9427 0.696-5.117 2.089-6.5232 1.392-1.4321 3.665-2.1484 6.818-2.1484 2.312 0 3.468 0.91156 3.468 2.7343 0 0.7812-0.197 1.4584-0.591 2.0312-0.395 0.5728-0.946 0.8593-1.656 0.8593-1.024 0-1.747 0.2085-2.167 0.625-0.42 0.3906-0.631 1.1196-0.631 2.1874v0.8984h2.168c0.657 0 1.222 0.2344 1.694 0.7031 0.473 0.4687 0.71 1.0287 0.71 1.6796 0 0.6772-0.237 1.25-0.71 1.7187-0.472 0.4687-1.037 0.7031-1.694 0.7031h-2.168v13.164c0 0.9896-0.368 1.849-1.103 2.578-0.71 0.7031-1.563 1.0546-2.562 1.0546-0.998 0-1.865-0.3515-2.601-1.0546-0.709-0.729-1.064-1.5884-1.064-2.578v-13.164h-1.103c-0.657 0-1.222-0.2344-1.695-0.7031s-0.709-1.0415-0.709-1.7187zm16.279 0c0-0.6509 0.237-1.2109 0.71-1.6796 0.472-0.4687 1.037-0.7031 1.694-0.7031h1.104v-0.664c0-2.9427 0.696-5.117 2.088-6.5232 1.393-1.4321 3.665-2.1484 6.818-2.1484 2.312 0 3.468 0.91156 3.468 2.7343 0 0.7812-0.197 1.4584-0.591 2.0312s-0.946 0.8593-1.655 0.8593c-1.025 0-1.747 0.2085-2.168 0.625-0.42 0.3906-0.63 1.1196-0.63 2.1874v0.8984h2.167c0.657 0 1.222 0.2344 1.695 0.7031s0.709 1.0287 0.709 1.6796c0 0.6772-0.236 1.25-0.709 1.7187s-1.038 0.7031-1.695 0.7031h-2.167v13.164c0 0.9896-0.368 1.849-1.104 2.578-0.709 0.7031-1.563 1.0546-2.561 1.0546-0.999 0-1.866-0.3515-2.601-1.0546-0.71-0.729-1.064-1.5884-1.064-2.578v-13.164h-1.104c-0.657 0-1.222-0.2344-1.694-0.7031-0.473-0.4687-0.71-1.0415-0.71-1.7187zm19.117-6.2888c-0.604-0.599-0.906-1.3149-0.906-2.1483s0.302-1.5494 0.906-2.1484c0.605-0.599 1.327-0.8984 2.168-0.8984h1.813c0.841 0 1.563 0.2994 2.167 0.8984 0.605 0.599 0.907 1.315 0.907 2.1484s-0.302 1.5493-0.907 2.1483c-0.604 0.5991-1.326 0.8984-2.167 0.8984h-1.813c-0.841 0-1.563-0.2993-2.168-0.8984zm-0.591 21.874v-14.648c0-0.9896 0.355-1.8359 1.064-2.539 0.736-0.729 1.603-1.0937 2.601-1.0937 0.999 0 1.853 0.3647 2.562 1.0937 0.735 0.7031 1.103 1.5494 1.103 2.539v14.648c0 0.9896-0.368 1.849-1.103 2.578-0.709 0.7031-1.563 1.0546-2.562 1.0546-0.998 0-1.865-0.3515-2.601-1.0546-0.709-0.729-1.064-1.5884-1.064-2.578zm12.47 0v-14.921c0-0.9116 0.328-1.6928 0.985-2.3437 0.683-0.6771 1.484-1.0156 2.404-1.0156 0.946 0 1.747 0.3385 2.404 1.0156 0.683 0.6509 1.025 1.4321 1.025 2.3437v0.5468c0.604-1.1718 1.484-2.1352 2.64-2.8905s2.588-1.1328 4.296-1.1328c5.044 0 7.566 2.7603 7.566 8.281v10.117c0 0.9896-0.368 1.849-1.103 2.578-0.71 0.7031-1.563 1.0546-2.562 1.0546-0.998 0-1.865-0.3515-2.601-1.0546-0.709-0.729-1.064-1.5884-1.064-2.578v-8.9841c0-1.4583-0.315-2.4739-0.946-3.0467-0.63-0.5728-1.353-0.8594-2.167-0.8594-2.365 0-3.547 1.6015-3.547 4.8045v8.0857c0 0.9896-0.368 1.849-1.104 2.578-0.709 0.7031-1.563 1.0546-2.561 1.0546-0.999 0-1.866-0.3515-2.601-1.0546-0.71-0.729-1.064-1.5884-1.064-2.578z"/>
</g>
<defs>
<clipPath id="b">
<rect transform="translate(0 .5)" width="188.33" height="50" fill="#fff"/>
</clipPath>
</defs>
</svg>
