<svg width="976" height="1080" viewBox="0 0 976 1080" fill="none" xmlns="http://www.w3.org/2000/svg">
<path d="M1213.08 15.2079V1061.79C1213.08 1074.04 1202.28 1084 1188.94 1084H103.284C101.316 1082.15 99.3885 1080.18 97.501 1078.22C72.5622 1051.99 55.0128 1019.79 37.7444 987.98C22.9257 960.591 7.82592 932.601 2.40446 901.919C-1.77208 878.225 -0.0452278 853.849 4.05099 830.115C20.6768 733.291 77.2608 643.938 157.74 587.554C241.029 529.243 350.422 502.538 409.135 419.529C451.181 360.094 457.527 277.286 424.998 212.148C413.271 188.615 397.127 167.652 383.554 145.163C355.804 99.1403 339.218 46.532 335.122 -7H1188.94C1202.28 -7 1213.08 2.91928 1213.08 15.2079Z" fill="#FF7AAF"/>
<path d="M374.478 217.448C368.052 205.842 359.94 194.558 348.173 188.413C336.447 182.269 320.383 182.711 311.428 192.469C305.725 198.694 303.717 207.69 304.48 216.123C305.243 224.556 308.537 232.508 312.271 240.098C320.142 256.041 330.905 271.422 346.647 279.655C358.655 285.919 385.682 289.775 392.228 273.55C398.332 258.41 381.465 230.259 374.437 217.488L374.478 217.448Z" fill="#FF7AAF"/>
</svg>
