<svg width="809" height="429" viewBox="0 0 809 429" fill="none" xmlns="http://www.w3.org/2000/svg">
<g clip-path="url(#clip0_322_1012)">
<path d="M147.053 395.599H104.175L104.812 393.356L106.53 387.098L108.441 380.258L110.186 374.028L112.069 367.16L113.814 360.902L115.726 354.062L117.443 347.804L119.354 340.964L122.041 331.3H129.187L131.874 340.964L133.785 347.804L135.503 354.062L137.414 360.902L139.159 367.16L141.042 374.028L142.787 380.258L144.699 387.098L146.056 392.083L146.416 393.356L147.053 395.599Z" fill="#FFCF56"/>
<path d="M150.349 399.31H100.935C100.935 397.261 102.597 395.6 104.646 395.6H146.638C148.687 395.6 150.349 397.261 150.349 399.31Z" fill="#FFCF56"/>
<path d="M133.786 347.805H117.471L119.354 340.965H131.902L133.786 347.805Z" fill="white"/>
<path d="M137.442 360.902H113.815L115.726 354.062H135.531L137.442 360.902Z" fill="white"/>
<path d="M141.07 374H110.186L112.07 367.161H139.159L141.07 374Z" fill="white"/>
<path d="M144.699 387.098H106.53L108.441 380.258H142.815L144.699 387.098Z" fill="white"/>
<path d="M147.053 395.6H104.175L104.812 393.357H146.444L147.053 395.6Z" fill="white"/>
<g style="mix-blend-mode:multiply" opacity="0.5">
<path d="M147.053 395.599H104.175L104.812 393.356L106.53 387.098L108.441 380.258L110.186 374.028L112.069 367.16L113.814 360.902L115.726 354.062L117.443 347.804L119.354 340.964L122.041 331.3H123.398C121.238 343.373 114.479 392.276 146.056 392.083L146.416 393.356L147.053 395.599Z" fill="#FFCF56"/>
</g>
<path d="M780.637 374.693H737.759L738.396 372.45L740.113 366.191L742.024 359.352L743.769 353.121L745.653 346.254L747.398 339.995L749.309 333.155L751.027 326.897L752.938 320.057L755.624 310.393H762.771L765.458 320.057L767.369 326.897L769.086 333.155L770.997 339.995L772.742 346.254L774.626 353.121L776.371 359.352L778.282 366.191L779.639 371.176L780 372.45L780.637 374.693Z" fill="#FFCF56"/>
<path d="M783.905 378.403H734.49C734.49 376.353 736.152 374.692 738.202 374.692H780.193C782.243 374.692 783.905 376.353 783.905 378.403Z" fill="#FFCF56"/>
<path d="M767.369 326.897H751.026L752.938 320.057H765.457L767.369 326.897Z" fill="white"/>
<path d="M770.997 339.996H747.397L749.309 333.156H769.086L770.997 339.996Z" fill="white"/>
<path d="M774.626 353.093H743.769L745.653 346.253H772.742L774.626 353.093Z" fill="white"/>
<path d="M778.282 366.191H740.113L741.997 359.351H776.371L778.282 366.191Z" fill="white"/>
<path d="M780.637 374.692H737.759L738.368 372.449H780L780.637 374.692Z" fill="white"/>
<g style="mix-blend-mode:multiply" opacity="0.5">
<path d="M780.637 374.693H737.759L738.396 372.45L740.113 366.191L742.024 359.352L743.769 353.121L745.653 346.254L747.398 339.995L749.309 333.155L751.027 326.897L752.938 320.057L755.624 310.393H756.982C754.821 322.467 748.063 371.37 779.639 371.176L780 372.45L780.637 374.693Z" fill="#FFCF56"/>
</g>
<path d="M711.195 424.758H668.317L668.954 422.515L670.672 416.257L672.583 409.417L674.328 403.186L676.212 396.319L677.957 390.061L679.868 383.221L681.585 376.963L683.496 370.123L686.183 360.458H693.329L696.016 370.123L697.927 376.963L699.645 383.221L701.556 390.061L703.301 396.319L705.185 403.186L706.93 409.417L708.841 416.257L710.198 421.241L710.558 422.515L711.195 424.758Z" fill="#FFCF56"/>
<path d="M714.464 428.469H665.049C665.049 426.42 666.711 424.758 668.761 424.758H710.752C712.802 424.758 714.464 426.42 714.464 428.469Z" fill="#FFCF56"/>
<path d="M697.928 376.991H681.585L683.497 370.151H696.017L697.928 376.991Z" fill="white"/>
<path d="M701.556 390.061H677.957L679.868 383.221H699.645L701.556 390.061Z" fill="white"/>
<path d="M705.185 403.187H674.328L676.212 396.319H703.301L705.185 403.187Z" fill="white"/>
<path d="M708.841 416.285H670.672L672.584 409.445H706.93L708.841 416.285Z" fill="white"/>
<path d="M711.195 424.759H668.317L668.954 422.516H710.558L711.195 424.759Z" fill="white"/>
<g style="mix-blend-mode:multiply" opacity="0.5">
<path d="M711.195 424.758H668.317L668.954 422.515L670.672 416.257L672.583 409.417L674.328 403.186L676.212 396.319L677.957 390.061L679.868 383.221L681.585 376.963L683.496 370.123L686.183 360.458H687.54C685.38 372.532 678.621 421.435 710.198 421.241L710.558 422.515L711.195 424.758Z" fill="#FFCF56"/>
</g>
<path d="M568.907 7.97461H560.652V328.919H568.907V7.97461Z" fill="white"/>
<path d="M790.912 7.97461H782.658V328.919H790.912V7.97461Z" fill="white"/>
<path d="M809 0H542.593V15.9503H809V0Z" fill="white"/>
<path d="M560.68 20.9899L562.286 12.9316L786.785 66.2101L785.179 74.2406L560.68 20.9899Z" fill="white"/>
<path d="M786.785 20.9899L785.179 12.9316L560.68 66.2101L562.286 74.2406L786.785 20.9899Z" fill="white"/>
<path d="M560.68 77.3414L562.286 69.2832L786.785 122.534L785.179 130.592L560.68 77.3414Z" fill="white"/>
<path d="M786.785 77.3414L785.179 69.2832L560.68 122.534L562.286 130.592L786.785 77.3414Z" fill="white"/>
<path d="M560.68 133.694L562.286 125.636L786.785 178.886L785.179 186.945L560.68 133.694Z" fill="white"/>
<path d="M786.785 133.694L785.179 125.636L560.68 178.886L562.286 186.945L786.785 133.694Z" fill="white"/>
<path d="M560.68 190.046L562.286 181.988L786.785 235.239L785.179 243.297L560.68 190.046Z" fill="white"/>
<path d="M786.785 190.046L785.179 181.988L560.68 235.239L562.286 243.297L786.785 190.046Z" fill="white"/>
<path d="M560.68 246.371L562.286 238.34L786.785 291.591L785.179 299.649L560.68 246.371Z" fill="white"/>
<path d="M786.785 246.371L785.179 238.34L560.68 291.591L562.286 299.649L786.785 246.371Z" fill="white"/>
<path d="M568.907 15.9502H560.652V26.916H568.907V15.9502Z" fill="#E8F3FF"/>
<path d="M790.912 15.9502H782.658V26.916H790.912V15.9502Z" fill="#E8F3FF"/>
<path d="M220.372 313.468H0V321H220.372V313.468Z" fill="#FFCF56"/>
<g style="mix-blend-mode:screen" opacity="0.5">
<path d="M108.967 313.468C80.6314 322.163 55.01 318.453 37.9475 313.468H108.967Z" fill="#FFCF56"/>
</g>
<path d="M12.9354 313.468H0V331.412H12.9354V313.468Z" fill="#083D77"/>
<path d="M194.252 182.266C195.387 186.419 156.886 247.922 143.563 246.565C143.563 246.565 142.427 227.32 142.649 209.874C142.843 196.444 143.84 184.066 146.776 182.266C149.601 180.521 158.132 179.524 167.19 179.247C179.876 178.86 193.615 179.857 194.252 182.266Z" fill="#083D77"/>
<g style="mix-blend-mode:multiply" opacity="0.5">
<path d="M194.252 182.266C195.387 186.419 156.886 247.922 143.563 246.565C143.563 246.565 142.427 227.32 142.649 209.874C144.754 209.403 146.942 207.908 148.826 204.613C152.205 198.714 159.684 187.859 167.19 179.247C179.876 178.86 193.615 179.857 194.252 182.266Z" fill="#083D77"/>
</g>
<path d="M368.976 307.237C368.976 311.474 368.782 315.683 368.422 319.837C367.813 327.314 361.608 333.101 354.13 333.101H149.74C143.646 333.101 138.522 328.449 137.913 322.385C137.414 317.4 137.137 312.36 137.137 307.237C137.137 302.114 137.248 296.798 137.469 291.702C137.885 283.34 138.577 275.198 139.658 267.334C147.635 209.099 175.417 166.592 235.828 166.592C272.778 166.592 306.211 182.487 330.336 208.185C337.677 215.994 344.158 224.717 349.615 234.16C352.883 239.836 355.792 245.79 358.285 251.965C365.182 268.94 368.976 287.632 368.976 307.237Z" fill="#6377C0"/>
<path d="M263.444 285.804C286.115 285.804 304.493 267.43 304.493 244.765C304.493 222.1 286.115 203.726 263.444 203.726C240.773 203.726 222.394 222.1 222.394 244.765C222.394 267.43 240.773 285.804 263.444 285.804Z" fill="#083D77"/>
<path d="M190.125 295.135C190.125 300.425 185.832 304.717 180.541 304.717C175.251 304.717 170.957 300.425 170.957 295.135C170.957 289.846 175.251 285.554 180.541 285.554C185.832 285.554 190.125 289.846 190.125 295.135Z" fill="#083D77"/>
<path d="M252.863 304.717H248.348V333.101H252.863V304.717Z" fill="#083D77"/>
<path d="M264.164 304.717H259.649V333.101H264.164V304.717Z" fill="#083D77"/>
<path d="M275.465 304.717H270.95V333.101H275.465V304.717Z" fill="#083D77"/>
<path d="M330.336 208.185C316.431 204.059 299.618 198.354 279.647 191.625C215.358 169.943 192.812 235.876 180.292 249.833C173.256 257.697 154.643 263.623 139.657 267.334C140.35 262.294 141.181 257.337 142.206 252.547C152.704 202.037 180.652 166.592 235.828 166.592C241.035 166.592 246.16 166.897 251.201 167.534C282.002 171.272 309.618 186.115 330.336 208.185Z" fill="#FFCF56"/>
<g style="mix-blend-mode:screen" opacity="0.4">
<path d="M251.2 167.534C203.42 169.223 179.294 240.418 168.464 249.833C161.539 255.87 150.044 254.485 142.206 252.547C152.703 202.037 180.652 166.592 235.828 166.592C241.035 166.592 246.159 166.897 251.2 167.534Z" fill="#FFCF56"/>
</g>
<g style="mix-blend-mode:multiply" opacity="0.5">
<path d="M358.284 251.965C355.514 274.34 346.208 310.422 337.566 333.101H149.74C143.646 333.101 138.522 328.449 137.912 322.385C137.414 317.4 137.137 312.36 137.137 307.238C137.137 302.115 137.248 296.798 137.469 291.703C143.978 307.265 155.224 326.566 170.957 326.289C197.299 325.874 305.047 335.981 313.966 304.856C321.085 279.851 337.981 244.018 349.615 234.16C352.883 239.836 355.791 245.79 358.284 251.965Z" fill="#6377C0"/>
</g>
<path d="M368.976 307.237C368.976 311.529 368.782 315.793 368.422 320.002C368.311 321.193 368.062 322.328 367.674 323.408C365.763 329.085 360.362 333.1 354.102 333.1H327.456C329.062 329.334 349.836 279.683 352.717 239.835C354.739 243.74 356.567 247.728 358.229 251.854C365.154 268.828 368.976 287.576 368.976 307.237Z" fill="#FFCF56"/>
<g style="mix-blend-mode:multiply" opacity="0.5">
<path d="M367.674 323.408C365.763 329.085 360.362 333.1 354.102 333.1H327.456C329.062 329.334 349.836 279.683 352.717 239.835C354.739 243.74 356.567 247.728 358.229 251.854C351.858 275.253 339.892 329.445 367.674 323.408Z" fill="#FFCF56"/>
</g>
<path d="M669.426 49.6229V261.435C669.426 265.893 667.93 270.019 665.382 273.315C663.747 275.475 661.642 277.275 659.233 278.604H659.177C656.934 279.85 654.441 280.625 651.782 280.875C651.145 280.958 650.507 280.985 649.87 280.985H242.227C231.424 280.985 222.671 272.262 222.671 261.435V49.6229C222.671 48.543 222.754 47.4907 222.948 46.4661C224.416 37.1895 232.504 30.0728 242.227 30.0728H649.87C660.645 30.0728 669.426 38.8233 669.426 49.6229Z" fill="white"/>
<path d="M676.738 273.232L659.233 278.604H659.177L651.782 280.875C651.144 280.958 650.507 280.986 649.87 280.986H242.227C231.424 280.986 222.671 272.263 222.671 261.436V244.184C222.754 243.934 222.81 243.824 222.81 243.824C222.81 243.824 238.57 271.432 313.967 273.232C380.388 274.838 611.369 273.62 665.382 273.315C672.666 273.26 676.738 273.232 676.738 273.232Z" fill="#E8F3FF"/>
<path d="M456.837 259.164C456.837 265.146 451.99 270.019 445.979 270.019C439.968 270.019 435.121 265.173 435.121 259.164C435.121 253.155 439.968 248.309 445.979 248.309C451.99 248.309 456.837 253.155 456.837 259.164Z" fill="#E8F3FF"/>
<path d="M500.546 333.102H391.551L393.074 325.126L394.902 315.462L403.24 271.433H488.857L497.194 315.462L499.022 325.126L500.546 333.102Z" fill="white"/>
<path d="M499.022 325.126H393.074L394.902 315.462H497.194L499.022 325.126Z" fill="#E8F3FF"/>
<path d="M509.327 333.074H382.771C382.771 328.671 386.344 325.099 390.748 325.099H501.349C505.753 325.099 509.327 328.671 509.327 333.074Z" fill="white"/>
<path d="M669.287 49.6229V243.823H222.81V46.4661C224.278 37.1895 232.366 30.0728 242.088 30.0728H649.732C660.507 30.0728 669.287 38.8233 669.287 49.6229Z" fill="#083D77"/>
<g style="mix-blend-mode:multiply" opacity="0.5">
<path d="M669.287 225.852V243.823H222.81V46.4661C224.278 37.1895 232.366 30.0728 242.088 30.0728H257.35C304.992 85.3727 468.415 253.848 669.287 225.852Z" fill="#083D77"/>
</g>
<path opacity="0.6" d="M309.535 41.9526H642.475C650.59 41.9526 657.155 48.5155 657.155 56.6291V209.32C657.155 209.32 448.721 184.315 309.535 41.9526Z" fill="url(#paint0_linear_322_1012)"/>
<path d="M672.75 160.583H220.206C218.523 160.583 217.159 161.947 217.159 163.63V180.66C217.159 182.342 218.523 183.706 220.206 183.706H672.75C674.432 183.706 675.796 182.342 675.796 180.66V163.63C675.796 161.947 674.432 160.583 672.75 160.583Z" fill="#FFCF56"/>
<path d="M254.137 183.706H231.009L245.384 160.583H268.513L254.137 183.706Z" fill="white"/>
<path d="M319.285 183.706H296.156L310.504 160.583H333.633L319.285 183.706Z" fill="white"/>
<path d="M384.432 183.706H361.304L375.652 160.583H398.78L384.432 183.706Z" fill="white"/>
<path d="M449.552 183.706H426.424L440.8 160.583H463.928L449.552 183.706Z" fill="white"/>
<path d="M514.7 183.706H491.572L505.92 160.583H529.048L514.7 183.706Z" fill="white"/>
<path d="M579.848 183.706H556.719L571.067 160.583H594.196L579.848 183.706Z" fill="white"/>
<path d="M644.967 183.706H621.839L636.215 160.583H659.343L644.967 183.706Z" fill="white"/>
<g style="mix-blend-mode:multiply" opacity="0.5">
<path d="M675.769 176.977V180.66C675.769 182.349 674.411 183.706 672.722 183.706H220.206C218.516 183.706 217.159 182.349 217.159 180.66V163.63C217.159 161.94 218.516 160.583 220.206 160.583H223.917C223.917 169.639 231.258 176.977 240.315 176.977H675.769Z" fill="#FFCF56"/>
</g>
<path d="M670.61 89.2455L216.502 185.909C214.826 186.266 213.757 187.913 214.113 189.589L217.638 206.137C217.995 207.812 219.642 208.881 221.318 208.525L675.427 111.861C677.102 111.504 678.172 109.857 677.815 108.182L674.29 91.6331C673.933 89.9578 672.286 88.8888 670.61 89.2455Z" fill="#FFCF56"/>
<path d="M255.411 201.262L232.199 206.191L241.783 180.521L264.995 175.564L255.411 201.262Z" fill="white"/>
<path d="M320.78 187.361L297.569 192.29L307.153 166.592L330.364 161.663L320.78 187.361Z" fill="white"/>
<path d="M386.122 173.432L362.91 178.361L372.522 152.691L395.706 147.734L386.122 173.432Z" fill="white"/>
<path d="M451.491 159.531L428.279 164.46L437.863 138.763L461.075 133.833L451.491 159.531Z" fill="white"/>
<path d="M516.861 145.602L493.649 150.531L503.233 124.861L526.444 119.932L516.861 145.602Z" fill="white"/>
<path d="M582.202 131.701L558.99 136.63L568.574 110.933L591.786 106.003L582.202 131.701Z" fill="white"/>
<path d="M647.571 117.772L624.36 122.701L633.944 97.0307L657.155 92.1016L647.571 117.772Z" fill="white"/>
<g style="mix-blend-mode:multiply" opacity="0.5">
<path d="M675.436 111.846L221.314 208.517C219.652 208.877 218.018 207.825 217.657 206.136L214.112 189.576C213.752 187.915 214.832 186.253 216.494 185.893L220.51 185.035C222.339 193.675 230.842 199.185 239.484 197.358L676.987 104.204L677.818 108.163C678.178 109.853 677.126 111.486 675.436 111.846Z" fill="#FFCF56"/>
</g>
<path d="M202.368 298.709C202.368 298.709 202.423 298.653 202.506 298.625C202.396 298.875 202.34 298.902 202.368 298.709Z" fill="#E8F3FF"/>
<path d="M718.203 280.819H473.844V331.246H718.203V280.819Z" fill="#FFCF56"/>
<path d="M551.041 279.878V301.367C551.041 302.391 550.182 303.222 549.157 303.222H471.656C470.631 303.222 469.772 302.391 469.772 301.367V279.878C469.772 278.854 470.631 278.023 471.656 278.023H549.157C550.182 278.023 551.041 278.854 551.041 279.878Z" fill="#6377C0"/>
<g style="mix-blend-mode:multiply" opacity="0.4">
<path d="M551.041 295.413V301.367C551.041 302.391 550.182 303.222 549.157 303.222H471.656C470.631 303.222 469.772 302.391 469.772 301.367V279.878C469.772 278.854 470.631 278.023 471.656 278.023H474.398C483.179 287.937 505.642 305.105 551.041 295.413Z" fill="#6377C0"/>
</g>
<path d="M487.25 280.819H545.75C547.274 280.819 548.52 282.065 548.52 283.588V292.228C548.52 292.228 519.603 299.151 487.25 280.819Z" fill="url(#paint1_linear_322_1012)"/>
<path d="M587.271 307.902H509.742C508.717 307.902 507.886 308.733 507.886 309.757V331.246C507.886 332.27 508.717 333.101 509.742 333.101H587.271C588.296 333.101 589.127 332.27 589.127 331.246V309.757C589.127 308.733 588.296 307.902 587.271 307.902Z" fill="#6377C0"/>
<g style="mix-blend-mode:multiply" opacity="0.4">
<path d="M589.155 325.292V331.246C589.155 332.27 588.296 333.101 587.271 333.101H509.77C508.745 333.101 507.886 332.27 507.886 331.246V309.757C507.886 308.733 508.745 307.902 509.77 307.902H512.512C521.292 317.815 543.756 334.984 589.155 325.292Z" fill="#6377C0"/>
</g>
<path d="M525.364 310.699H583.864C585.388 310.699 586.634 311.945 586.634 313.468V322.108C586.634 322.108 557.717 329.03 525.364 310.699Z" fill="url(#paint2_linear_322_1012)"/>
<path d="M671.697 307.902H594.168C593.143 307.902 592.312 308.733 592.312 309.757V331.246C592.312 332.27 593.143 333.101 594.168 333.101H671.697C672.722 333.101 673.553 332.27 673.553 331.246V309.757C673.553 308.733 672.722 307.902 671.697 307.902Z" fill="#6377C0"/>
<g style="mix-blend-mode:multiply" opacity="0.4">
<path d="M673.581 325.292V331.246C673.581 332.27 672.722 333.101 671.697 333.101H594.196C593.171 333.101 592.312 332.27 592.312 331.246V309.757C592.312 308.733 593.171 307.902 594.196 307.902H596.938C605.719 317.815 628.182 334.984 673.581 325.292Z" fill="#6377C0"/>
</g>
<path d="M609.791 310.699H668.291C669.814 310.699 671.06 311.945 671.06 313.468V322.108C671.06 322.108 642.143 329.03 609.791 310.699Z" fill="url(#paint3_linear_322_1012)"/>
<path d="M504.701 309.757V331.246C504.701 332.27 503.87 333.101 502.845 333.101H469.772V307.902H502.845C503.87 307.902 504.701 308.733 504.701 309.757Z" fill="#6377C0"/>
<g style="mix-blend-mode:multiply" opacity="0.4">
<path d="M495.809 333.101H469.772V307.902H473.124C474.426 313.136 479.439 327.923 495.809 333.101Z" fill="#6377C0"/>
</g>
<path d="M479.329 310.311H502.346V326.621C502.346 326.621 488.857 329.667 479.329 310.311Z" fill="url(#paint4_linear_322_1012)"/>
<path d="M720.253 307.901H678.594C677.569 307.901 676.738 308.732 676.738 309.757V331.217C676.738 332.242 677.569 333.073 678.594 333.073H720.253V307.874V307.901Z" fill="#6377C0"/>
<g style="mix-blend-mode:multiply" opacity="0.4">
<path d="M702.775 333.101H678.677C677.597 333.101 676.738 332.215 676.738 331.163V307.902H680.09C681.392 313.136 686.405 327.923 702.775 333.101Z" fill="#6377C0"/>
</g>
<path d="M693.441 310.311H716.459V326.621C716.459 326.621 702.969 329.667 693.441 310.311Z" fill="url(#paint5_linear_322_1012)"/>
<path d="M633.611 278.023H556.082C555.057 278.023 554.226 278.854 554.226 279.878V301.367C554.226 302.392 555.057 303.222 556.082 303.222H633.611C634.636 303.222 635.467 302.392 635.467 301.367V279.878C635.467 278.854 634.636 278.023 633.611 278.023Z" fill="#6377C0"/>
<g style="mix-blend-mode:multiply" opacity="0.4">
<path d="M635.467 295.413V301.367C635.467 302.391 634.608 303.222 633.584 303.222H556.082C555.057 303.222 554.199 302.391 554.199 301.367V279.878C554.199 278.854 555.057 278.023 556.082 278.023H558.824C567.605 287.937 590.069 305.105 635.467 295.413Z" fill="#6377C0"/>
</g>
<path d="M571.677 280.819H630.177C631.7 280.819 632.947 282.065 632.947 283.588V292.228C632.947 292.228 604.029 299.151 571.677 280.819Z" fill="url(#paint6_linear_322_1012)"/>
<path d="M718.037 278.023H640.508C639.483 278.023 638.652 278.854 638.652 279.878V301.367C638.652 302.392 639.483 303.222 640.508 303.222H718.037C719.062 303.222 719.893 302.392 719.893 301.367V279.878C719.893 278.854 719.062 278.023 718.037 278.023Z" fill="#6377C0"/>
<g style="mix-blend-mode:multiply" opacity="0.4">
<path d="M719.893 295.413V301.367C719.893 302.391 719.034 303.222 718.009 303.222H640.508C639.483 303.222 638.625 302.391 638.625 301.367V279.878C638.625 278.854 639.483 278.023 640.508 278.023H643.25C652.031 287.937 674.494 305.105 719.893 295.413Z" fill="#6377C0"/>
</g>
<path d="M656.103 280.819H714.602C716.126 280.819 717.372 282.065 717.372 283.588V292.228C717.372 292.228 688.455 299.151 656.103 280.819Z" fill="url(#paint7_linear_322_1012)"/>
<g style="mix-blend-mode:multiply" opacity="0.5">
<path d="M376.815 424.926C376.815 428.443 370.195 426.477 335.488 426.477C300.782 426.477 251.118 428.471 251.118 424.926C251.118 421.382 279.26 418.529 313.966 418.529C348.673 418.529 376.815 421.382 376.815 424.926Z" fill="#C3CFFA"/>
</g>
<path d="M277.847 330.082C278.706 334.18 279.454 341.878 280.035 349.549C280.839 360.459 281.309 371.259 281.309 371.259L284.993 418.528H292.14L295.741 366.801L296.405 360.819L297.264 353.204L297.679 307.818H281.586C281.586 307.818 275.797 320.141 277.875 330.082H277.847Z" fill="#083D77"/>
<path d="M305.934 423.79C304.853 424.039 303.773 424.233 302.693 424.344C300.782 424.537 298.843 424.537 296.932 424.51C294.3 424.51 291.669 424.482 289.037 424.454C287.929 424.454 286.794 424.454 285.686 424.454C285.132 424.454 284.467 424.399 284.162 423.873C284.024 423.624 284.024 423.291 284.024 422.987C284.024 420.937 284.024 418.888 284.024 416.839C284.384 416.451 284.855 416.451 285.353 416.534C285.88 416.618 286.351 416.839 286.849 417.005C287.985 417.393 289.231 417.476 290.422 417.227C290.921 417.116 291.392 416.95 291.918 416.922C292.86 416.867 293.802 417.338 294.549 417.919C295.325 418.501 295.99 419.221 296.765 419.83C299.12 421.602 302.139 421.934 305.02 422.156C305.407 422.184 305.795 422.211 306.128 422.405C306.46 422.599 306.737 422.959 306.709 423.347C306.682 423.734 306.294 424.011 305.961 423.817L305.934 423.79Z" fill="white"/>
<g style="mix-blend-mode:screen" opacity="0.5">
<path d="M293.636 307.846C293.636 307.846 291.558 321.027 297.513 320.944" stroke="#083D77" stroke-width="0.269667" stroke-miterlimit="10"/>
</g>
<path d="M288.206 307.846L283.054 353.232L282.223 360.847L281.531 366.829L277.958 418.556H270.812L269.094 396.514L267.155 371.287C267.155 371.287 266.684 360.487 265.853 349.549C265.41 343.485 264.829 337.365 264.164 333.045C264.025 331.937 263.859 330.913 263.693 330.082C261.616 320.141 267.405 307.846 267.405 307.846H288.206Z" fill="#083D77"/>
<path d="M291.946 423.79C290.865 424.039 289.785 424.233 288.705 424.344C286.794 424.538 284.855 424.538 282.944 424.51C280.312 424.51 277.681 424.482 275.049 424.455C273.941 424.455 272.806 424.455 271.698 424.455C271.144 424.455 270.479 424.399 270.174 423.873C270.036 423.624 270.036 423.292 270.036 422.987C270.036 420.938 270.036 418.889 270.036 416.84C270.396 416.452 270.867 416.452 271.365 416.535C271.892 416.618 272.363 416.84 272.861 417.006C273.997 417.393 275.243 417.476 276.434 417.227C276.933 417.117 277.404 416.95 277.93 416.923C278.872 416.867 279.814 417.338 280.561 417.92C281.337 418.501 282.002 419.221 282.777 419.83C285.132 421.603 288.151 421.935 291.032 422.156C291.419 422.184 291.807 422.212 292.14 422.406C292.472 422.599 292.749 422.959 292.721 423.347C292.694 423.735 292.306 424.012 291.973 423.818L291.946 423.79Z" fill="white"/>
<g style="mix-blend-mode:multiply" opacity="0.5">
<path d="M272.197 386.849C271.753 390.2 270.673 393.523 269.067 396.514L267.128 371.287C267.128 371.287 266.657 360.487 265.826 349.549C265.383 343.485 264.801 337.365 264.136 333.045C265.715 335.537 266.768 339.469 267.1 340.965C268.374 346.448 268.291 352.18 268.984 357.801C270.147 367.493 273.554 377.157 272.169 386.822L272.197 386.849Z" fill="#083D77"/>
</g>
<g style="mix-blend-mode:screen" opacity="0.5">
<path d="M285.381 307.929V321.193L282.39 330.249" stroke="#083D77" stroke-width="0.269667" stroke-miterlimit="10"/>
</g>
<g style="mix-blend-mode:screen" opacity="0.5">
<path d="M275.16 307.929C275.16 307.929 275.797 324.904 263.693 320.058" stroke="#083D77" stroke-width="0.269667" stroke-miterlimit="10"/>
</g>
<path d="M304.964 295.551C304.964 295.551 297.956 260.743 289.702 261.241C279.758 261.823 286.628 280.764 296.184 299.815C296.184 299.815 312.526 324.959 322.027 330.248L325.6 328.033C325.6 328.033 309.59 301.172 304.964 295.551Z" fill="#FFB894"/>
<path d="M287.098 279.933C287.098 279.933 281.005 264.758 286.96 261.684C293.968 258.085 298.76 271.57 300.809 275.973L287.098 279.933Z" fill="white"/>
<path d="M336.707 348.387H314.493L314.825 347.224L315.711 343.984L316.709 340.439L317.595 337.227L318.592 333.683L319.478 330.415L320.476 326.898L321.362 323.631L322.359 320.114L323.744 315.102H327.456L328.841 320.114L329.838 323.631L330.724 326.898L331.721 330.415L332.608 333.683L333.577 337.227L334.491 340.439L335.488 343.984L336.181 346.587L336.375 347.224L336.707 348.387Z" fill="#FFCF56"/>
<path d="M338.397 350.325H312.803C312.803 349.273 313.662 348.387 314.742 348.387H336.485C337.538 348.387 338.424 349.245 338.424 350.325H338.397Z" fill="#FFCF56"/>
<path d="M329.838 323.658H321.362L322.359 320.113H328.841L329.838 323.658Z" fill="white"/>
<path d="M331.721 330.442H319.479L320.476 326.898H330.724L331.721 330.442Z" fill="white"/>
<path d="M333.605 337.227H317.595L318.592 333.654H332.608L333.605 337.227Z" fill="white"/>
<path d="M335.488 344.011H315.711L316.709 340.466H334.491L335.488 344.011Z" fill="white"/>
<path d="M336.707 348.386H314.493L314.825 347.251H336.375L336.707 348.386Z" fill="white"/>
<g style="mix-blend-mode:multiply" opacity="0.5">
<path d="M336.707 348.386H314.493L314.825 347.223L315.711 343.983L316.709 340.439L317.623 337.199L318.592 333.654L319.506 330.414L320.503 326.87L321.39 323.63L322.387 320.085L323.772 315.073H324.464C323.356 321.332 319.839 346.642 336.209 346.558L336.402 347.223L336.735 348.386H336.707Z" fill="#FFCF56"/>
</g>
<path d="M287.403 258.194C287.403 258.194 297.402 263.622 298.898 266.972C300.394 270.323 297.569 307.817 297.569 307.817H273.914C273.914 307.817 279.924 291.147 279.454 285.997C278.983 280.846 273.997 258.028 287.375 258.194H287.403Z" fill="#FFCF56"/>
<path d="M297.652 307.79C296.765 304.246 295.547 299.178 294.743 295.938C293.94 292.698 294.217 289.403 294.937 286.939C296.294 282.425 299.037 273.481 298.76 270.351C298.15 263.622 289.564 260.715 285.436 259.164C281.309 257.613 275.465 257.724 272.612 260.77C266.49 267.305 271.116 282.84 271.698 290.262C272.28 297.683 270.174 301.837 267.349 307.929C277.431 307.846 287.569 307.901 297.652 307.79Z" fill="white"/>
<path d="M288.456 307.264C288.373 308.399 288.317 309.341 288.29 309.922C288.234 310.393 287.846 310.753 287.348 310.753H265.798C265.189 310.753 264.745 310.172 264.939 309.59C266.214 305.326 270.535 290.4 270.147 285.997C269.897 283.56 268.679 277.163 268.873 271.127C269.039 264.398 271.005 258.112 278.041 258.195C278.041 258.195 288.068 263.595 289.564 266.973C290.755 269.742 289.12 297.35 288.483 307.264H288.456Z" fill="#FFCF56"/>
<g style="mix-blend-mode:multiply" opacity="0.5">
<path d="M288.456 307.264C288.373 308.4 288.317 309.341 288.29 309.923C288.234 310.393 287.846 310.753 287.348 310.753H265.798C265.189 310.753 264.745 310.172 264.939 309.59C266.214 305.326 270.535 290.4 270.147 285.997C269.897 283.56 268.679 277.164 268.873 271.127C270.341 277.607 276.13 283.145 275.576 289.791C275.299 293.086 273.415 296.132 273.166 299.428C273.055 300.701 273.221 302.031 273.997 303.028C274.8 304.052 276.13 304.495 277.376 304.8C281.06 305.658 285.132 305.631 288.456 307.237V307.264Z" fill="#FFCF56"/>
</g>
<path d="M311.473 251.715L309.978 252.518C308.316 253.432 307.762 255.536 308.731 257.17C309.618 258.638 311.473 259.192 313.025 258.444L314.465 257.752L311.473 251.715Z" fill="#F5A54A"/>
<path d="M332.137 253.487C332.247 253.82 332.054 254.207 331.721 254.318C331.583 254.346 331.416 254.401 331.25 254.457C328.591 255.26 321.556 257.281 316.099 257.918C314.299 258.14 312.554 257.17 311.667 255.592C310.781 254.014 310.892 252.075 311.944 250.635C314.548 247.091 319.367 240.639 321.556 238.811C321.777 238.617 322.11 238.645 322.331 238.839C323.855 240.196 329.478 245.457 332.109 253.487H332.137Z" fill="#FFCF56"/>
<g style="mix-blend-mode:multiply" opacity="0.5">
<path d="M332.137 253.488C332.248 253.82 332.054 254.208 331.721 254.318C331.583 254.346 331.417 254.402 331.25 254.457C322.387 247.368 321.39 241.553 321.528 238.811C321.75 238.59 322.11 238.617 322.331 238.811C323.855 240.168 329.478 245.457 332.109 253.46L332.137 253.488Z" fill="#FFCF56"/>
</g>
<path d="M314.964 255.896L320.171 266.53C320.337 266.862 320.697 267.028 321.057 266.945L323.439 266.364C323.938 266.253 324.187 265.699 323.966 265.256L318.869 254.927L314.991 255.869L314.964 255.896Z" fill="#FFCF56"/>
<path d="M322.608 261.878C322.11 261.407 322.913 259.164 320.42 259.469C317.927 259.773 317.041 263.789 317.041 263.789C311.113 269.798 306.183 276.194 298.649 280.653C293.691 277.828 278.789 257.475 272.64 263.318C264.191 271.321 290.699 288.683 297.541 291.535C298.399 291.895 298.732 292.477 300.255 291.508C309.59 285.388 316.708 277.939 320.78 267.416H320.808C320.836 267.278 320.891 267.139 320.946 266.973C321.002 266.862 321.029 266.752 321.085 266.613C321.666 265.422 322.913 265.644 323.412 265.173C323.993 264.619 323.107 262.293 322.608 261.823V261.878Z" fill="#FFB894"/>
<path d="M279.094 280.404C279.094 280.404 267.294 269.05 271.504 263.817C276.434 257.669 286.323 267.998 289.979 271.182L279.094 280.404Z" fill="white"/>
<path d="M273.138 273.204L279.094 280.404L279.842 279.767C279.842 279.767 284.633 283.671 286.655 285.056C286.655 285.056 276.739 283.394 273.166 273.176L273.138 273.204Z" fill="#E8F3FF"/>
<path d="M276.822 240.777C277.21 240.473 277.626 240.417 278.013 240.473V232.498H287.68C290.866 232.498 293.525 234.962 293.802 238.147L294.411 245.983C294.411 250.192 291.004 253.598 286.794 253.598H281.143C279.426 253.598 278.041 252.214 278.041 250.497V245.402C276.656 244.128 275.964 241.497 276.85 240.777H276.822Z" fill="#FFB894"/>
<path d="M278.013 245.457L287.653 250.552L288.456 260.271C288.456 260.271 293.137 263.788 293.331 265.284C293.525 266.779 283.913 261.379 278.207 258.305L278.013 245.457Z" fill="#FFB894"/>
<g style="mix-blend-mode:multiply" opacity="0.5">
<path d="M287.902 253.515C287.902 253.515 283.581 252.934 282.279 250.746C282.279 250.746 283.498 256.34 288.151 256.617L287.902 253.543V253.515Z" fill="#FFB894"/>
</g>
<path d="M279.343 246.066C279.343 246.066 277.21 245.457 276.628 242.826C276.296 241.331 277.93 240.168 279.287 240.86H279.343C286.378 244.516 288.096 234.99 288.096 234.99C288.096 234.99 292.223 235.516 293.829 239.005L294.273 244.599C294.411 246.232 294.162 247.866 293.442 249.334C292.583 251.078 290.976 252.961 287.874 253.543C287.874 253.543 296.738 253.709 295.768 238.673C295.38 232.774 279.952 223.525 274.8 237.177C274.8 237.177 274.274 238.23 273.581 240.03C272.806 242.079 272.418 244.266 272.64 246.426C272.917 249.029 273.969 252.048 277.432 252.685C277.792 252.74 278.152 252.629 278.401 252.38C279.066 251.632 280.201 249.777 279.315 246.094L279.343 246.066Z" fill="#0F1A42"/>
<path d="M274.689 239.365C280.174 239.503 297.873 238.617 299.203 237.565C300.782 236.291 295.574 235.737 295.574 235.737C295.574 235.737 295.408 235.211 295.048 234.38C294.383 232.968 293.082 230.697 290.949 229.119C290.478 228.759 289.979 228.454 289.398 228.177C288.207 227.596 286.822 227.236 285.187 227.236C279.426 227.291 275.604 231.86 273.554 237.676C273.277 238.479 273.831 239.309 274.689 239.337V239.365Z" fill="#FFCF56"/>
<g style="mix-blend-mode:multiply" opacity="0.5">
<path d="M280.063 233.134C281.005 235.543 288.234 230.947 290.921 229.147C290.45 228.787 289.952 228.482 289.37 228.205C286.351 230.005 279.094 230.725 280.063 233.134Z" fill="#FFCF56"/>
</g>
<g style="mix-blend-mode:multiply" opacity="0.5">
<path d="M286.406 236.264L295.574 235.765C295.574 235.765 295.408 235.239 295.048 234.408L286.406 236.264Z" fill="#FFCF56"/>
</g>
<path d="M271.947 248.06C274.135 248.06 275.908 246.287 275.908 244.101C275.908 241.914 274.135 240.141 271.947 240.141C269.76 240.141 267.986 241.914 267.986 244.101C267.986 246.287 269.76 248.06 271.947 248.06Z" fill="#0F1A42"/>
<g style="mix-blend-mode:multiply" opacity="0.5">
<path d="M674.716 388.788C674.716 392.305 668.096 390.339 633.389 390.339C598.683 390.339 549.019 392.333 549.019 388.788C549.019 385.244 577.161 382.392 611.867 382.392C646.574 382.392 674.716 385.244 674.716 388.788Z" fill="#C3CFFA"/>
</g>
<path d="M547.467 192.981C552.564 203.144 574.612 221.06 574.612 221.06C592.533 232.608 610.649 241.441 612.283 231.611C613.64 223.469 579.764 212.808 579.764 212.808C575.222 208.156 554.669 192.621 550.431 189.437C550.404 189.381 550.376 189.326 550.348 189.27C550.348 189.27 543.867 182.098 540.931 182.403C537.994 182.68 543.063 188.107 543.645 188.827C543.645 188.827 542.232 189.16 542.122 189.658C542.011 190.184 547.467 193.009 547.467 193.009V192.981Z" fill="#FFB894"/>
<path d="M557.107 192.482L551.179 200.125C557.578 208.682 576.745 225.906 592.7 233.244C608.654 240.583 614.111 232.192 614.111 232.192C614.887 222.445 581.149 210.62 581.149 210.62L557.134 192.482H557.107Z" fill="#6377C0"/>
<path d="M617.047 270.794C616.936 272.982 616.853 274.284 616.853 274.284H588.101C587.132 270.213 588.738 254.733 590.345 242.078C590.65 239.697 590.927 237.426 591.204 235.349C592.09 228.62 596.827 223.027 603.308 221.033C617.988 220.673 617.545 258.915 617.047 270.794Z" fill="#FFCF56"/>
<g style="mix-blend-mode:multiply" opacity="0.5">
<path d="M617.047 270.794C616.936 272.982 616.853 274.283 616.853 274.283H588.101C587.132 270.213 588.738 254.733 590.345 242.078C590.65 242.106 590.927 242.217 591.231 242.494C593.89 244.82 591.453 251.909 590.954 254.65C590.428 257.668 590.262 260.936 591.813 263.594C594.001 267.333 598.849 268.551 603.197 268.745C607.546 268.939 612.116 268.496 616.077 270.296C616.41 270.434 616.742 270.6 617.047 270.794Z" fill="#FFCF56"/>
</g>
<path d="M608.903 381.976L605.303 383.444L601.729 381.478L600.898 372.367L609.54 372.976L608.903 381.976Z" fill="#FFB894"/>
<path d="M588.489 386.712C589.57 386.961 590.65 387.155 591.73 387.265C593.641 387.459 595.58 387.459 597.492 387.432C600.123 387.432 602.754 387.404 605.386 387.376C606.494 387.376 607.629 387.376 608.737 387.376C609.291 387.376 609.956 387.321 610.261 386.795C610.399 386.545 610.399 386.213 610.399 385.908C610.399 383.859 610.399 381.81 610.399 379.761C610.039 379.373 609.568 379.373 609.07 379.456C608.571 379.539 608.073 379.761 607.574 379.927C606.438 380.315 605.192 380.398 604.001 380.149C603.502 380.038 603.031 379.872 602.505 379.844C601.563 379.789 600.622 380.259 599.874 380.841C599.098 381.422 598.433 382.142 597.658 382.752C595.303 384.524 592.284 384.856 589.403 385.078C589.016 385.105 588.628 385.133 588.296 385.327C587.963 385.521 587.686 385.881 587.714 386.268C587.742 386.656 588.129 386.933 588.462 386.739L588.489 386.712Z" fill="white"/>
<path d="M594.001 270.546L599.209 374.832H610.15L610.981 270.546H594.001Z" fill="#083D77"/>
<g style="mix-blend-mode:multiply" opacity="0.5">
<path d="M599.209 374.832H605.164L595.608 302.308L599.209 374.832Z" fill="#F25657"/>
</g>
<path d="M600.843 270.518C600.843 270.518 602.81 282.342 594.472 279.628L600.843 270.518Z" fill="#083D77"/>
<path d="M639.122 381.007L635.798 383.029L631.948 381.644L629.732 372.755L638.347 372.035L639.122 381.007Z" fill="#FFB894"/>
<path d="M619.207 388.346C620.287 388.512 621.395 388.595 622.503 388.622C624.442 388.678 626.353 388.484 628.264 388.318C630.896 388.096 633.5 387.847 636.131 387.626C637.239 387.515 638.347 387.432 639.455 387.321C640.009 387.266 640.673 387.155 640.923 386.629C641.034 386.352 641.034 386.047 641.006 385.743C640.84 383.693 640.674 381.644 640.507 379.623C640.12 379.263 639.649 379.29 639.15 379.429C638.651 379.567 638.181 379.817 637.682 380.038C636.574 380.509 635.355 380.703 634.137 380.537C633.638 380.453 633.139 380.343 632.641 380.343C631.699 380.343 630.813 380.896 630.093 381.561C629.372 382.226 628.763 383.001 628.043 383.638C625.855 385.576 622.863 386.158 620.01 386.629C619.622 386.684 619.235 386.767 618.93 386.961C618.598 387.182 618.376 387.57 618.431 387.958C618.514 388.346 618.902 388.595 619.207 388.346Z" fill="white"/>
<path d="M639.704 373.696L632.946 374.748L628.902 375.385L619.54 330.996L611.978 304.163L602.505 270.628L624.304 270.518C624.304 270.518 631.949 281.788 631.45 291.923C630.952 302.058 634.469 333.156 634.469 333.156L639.704 373.696Z" fill="#083D77"/>
<g style="mix-blend-mode:multiply" opacity="0.5">
<path d="M632.946 374.749L628.902 375.386L619.54 330.996L611.978 304.163L610.981 300.009L632.946 374.749Z" fill="#F25657"/>
</g>
<g style="mix-blend-mode:screen" opacity="0.5">
<path d="M606.549 270.574L607.602 286.164L612.172 288.656" stroke="#083D77" stroke-width="0.249691" stroke-miterlimit="10"/>
</g>
<g style="mix-blend-mode:screen" opacity="0.5">
<path d="M619.291 270.518C619.291 270.518 620.98 285.249 629.179 280.043" stroke="#083D77" stroke-width="0.249691" stroke-miterlimit="10"/>
</g>
<path d="M594.029 270.49C594.915 266.973 592.616 236.18 592.921 233.079C593.308 228.704 597.075 225.934 600.787 224.107C602.809 223.138 604.803 222.418 606.244 221.864C608.847 220.895 612.116 220.562 614.886 221.227C616.548 221.587 617.988 222.335 619.068 223.47C625.217 230.005 621.506 264.536 624.331 270.601C614.249 270.518 604.111 270.573 594.029 270.462V270.49Z" fill="#6377C0"/>
<path d="M613.668 221.033L603.115 224.301L604.029 213.252L613.668 208.157V221.033Z" fill="#FFB894"/>
<path d="M615.662 202.839C614.942 202.258 614.166 202.563 613.668 202.839V195.169H598.683L597.27 208.655C597.27 212.864 600.677 216.27 604.887 216.27H610.538C612.255 216.27 613.64 214.885 613.64 213.168V207.99C615.524 207.215 616.687 203.67 615.634 202.839H615.662Z" fill="#FFB894"/>
<path d="M603.114 200.458C603.114 200.458 609.236 197.274 611.175 199.849C611.175 199.849 609.125 205.886 611.175 206.218C613.224 206.55 612.56 202.092 614.97 202.674C617.379 203.255 615.025 207.52 613.668 208.018V213.196C613.668 213.196 616.853 210.981 617.13 205.443C617.407 199.904 617.075 196.498 614.609 195.806C614.609 195.806 607.242 186.28 601.591 188.579C601.591 188.579 600.261 189.631 601.923 190.628C601.923 190.628 597.159 190.988 595.663 192.843C594.168 194.698 595.608 196.083 595.608 196.083C595.608 196.083 592.173 197.135 593.115 199.323C594.057 201.51 597.796 203.753 597.796 203.753L598.018 201.649C598.018 201.649 600.538 202.59 603.114 200.514V200.458Z" fill="#0F1A42"/>
<g style="mix-blend-mode:multiply" opacity="0.5">
<path d="M603.89 216.214C603.89 216.214 607.962 216.214 609.845 213.833C609.845 213.833 609.014 219.15 603.53 219.205L603.862 216.214H603.89Z" fill="#FFB894"/>
</g>
<path d="M616.77 200.043C610.814 199.517 591.785 196.388 590.456 195.086C588.905 193.508 594.611 193.563 594.611 193.563C594.611 193.563 594.86 193.009 595.358 192.179C596.245 190.711 597.934 188.44 600.455 186.973C601.009 186.64 601.591 186.363 602.255 186.142C603.613 185.643 605.164 185.45 606.909 185.643C613.141 186.419 616.714 191.819 618.21 198.381C618.432 199.268 617.684 200.126 616.77 200.043Z" fill="#FFCF56"/>
<g style="mix-blend-mode:multiply" opacity="0.5">
<path d="M611.728 192.621C610.399 195.086 603.169 189.271 600.482 186.972C601.036 186.64 601.618 186.363 602.283 186.142C605.33 188.468 613.085 190.129 611.756 192.621H611.728Z" fill="#FFCF56"/>
</g>
<g style="mix-blend-mode:multiply" opacity="0.5">
<path d="M604.471 195.225L594.638 193.535C594.638 193.535 594.887 192.982 595.386 192.151L604.499 195.225H604.471Z" fill="#FFCF56"/>
</g>
<path d="M627.407 270.794C627.296 272.982 627.213 274.284 627.213 274.284H598.461C597.492 270.213 599.098 254.733 600.705 242.078C601.924 232.359 603.115 224.3 603.115 224.3L613.668 221.033C628.348 220.673 627.905 258.915 627.407 270.794Z" fill="#FFCF56"/>
<g style="mix-blend-mode:multiply" opacity="0.5">
<path d="M627.407 270.794C627.296 272.982 627.213 274.283 627.213 274.283H598.461C597.492 270.213 599.098 254.733 600.705 242.078C601.01 242.106 601.287 242.217 601.591 242.494C604.25 244.82 601.813 251.909 601.314 254.65C600.788 257.668 600.622 260.936 602.173 263.594C604.361 267.333 609.208 268.551 613.557 268.745C617.906 268.939 622.476 268.496 626.437 270.296C626.77 270.434 627.102 270.6 627.407 270.794Z" fill="#FFCF56"/>
</g>
<path d="M621.119 236.928C621.119 244.294 617.795 247.644 613.668 247.644C609.541 247.644 606.217 244.294 606.217 236.928C606.217 229.562 609.541 223.581 613.668 223.581C617.795 223.581 621.119 229.562 621.119 236.928Z" fill="#6377C0"/>
<path d="M615.8 227.291C612.477 219.732 577.991 229.036 577.991 229.036C572.424 227.79 552.038 226.267 543.479 225.658C543.091 225.658 541.263 225.104 540.903 225.159C540.903 225.159 535.501 222.196 535.141 222.584C534.781 222.971 535.308 224.328 535.308 224.328C534.393 224.245 527.081 223.082 528.466 225.658C529.823 228.205 539.047 229.59 539.407 229.645C548.492 235.682 578.213 238.811 578.213 238.811C599.513 238.7 619.817 236.485 615.828 227.347L615.8 227.291Z" fill="#FFB894"/>
<path d="M579.044 226.931C579.044 226.931 617.933 220.23 618.515 228.288C619.152 237.675 596.577 238.589 585.387 240.085C580.817 240.694 576.163 240.528 571.648 239.586L545.999 234.214C545.999 234.214 544.309 225.186 545.307 223.387C546.304 221.587 579.044 226.931 579.044 226.931Z" fill="#6377C0"/>
<g style="mix-blend-mode:multiply" opacity="0.5">
<path d="M579.044 226.931C579.044 226.931 576.828 228.426 577.078 230.78L579.072 228.121L580.429 230.669C580.429 230.669 582.147 229.174 579.044 226.931Z" fill="#6377C0"/>
</g>
<g style="mix-blend-mode:multiply" opacity="0.5">
<path d="M606.687 237.066C606.687 237.066 613.197 236.484 616.05 235.017L611.064 240.472C610.427 241.164 609.319 241.081 608.792 240.306L606.66 237.066H606.687Z" fill="#6377C0"/>
</g>
</g>
<defs>
<linearGradient id="paint0_linear_322_1012" x1="561.012" y1="-13.9842" x2="477.562" y2="136.095" gradientUnits="userSpaceOnUse">
<stop stop-color="#6284A9"/>
<stop offset="0.23" stop-color="#4A719B"/>
<stop offset="0.75" stop-color="#1A4B81"/>
<stop offset="1" stop-color="#083D77"/>
</linearGradient>
<linearGradient id="paint1_linear_322_1012" x1="545.584" y1="255.039" x2="498.289" y2="308.828" gradientUnits="userSpaceOnUse">
<stop offset="0.01" stop-color="#8897CF"/>
<stop offset="0.95" stop-color="#6377C0"/>
</linearGradient>
<linearGradient id="paint2_linear_322_1012" x1="583.698" y1="284.918" x2="536.375" y2="338.707" gradientUnits="userSpaceOnUse">
<stop offset="0.01" stop-color="#8897CF"/>
<stop offset="0.95" stop-color="#6377C0"/>
</linearGradient>
<linearGradient id="paint3_linear_322_1012" x1="668.097" y1="284.918" x2="620.801" y2="338.707" gradientUnits="userSpaceOnUse">
<stop offset="0.01" stop-color="#8897CF"/>
<stop offset="0.95" stop-color="#6377C0"/>
</linearGradient>
<linearGradient id="paint4_linear_322_1012" x1="501.515" y1="308.373" x2="489.414" y2="319.812" gradientUnits="userSpaceOnUse">
<stop offset="0.01" stop-color="#8897CF"/>
<stop offset="0.95" stop-color="#6377C0"/>
</linearGradient>
<linearGradient id="paint5_linear_322_1012" x1="715.628" y1="308.373" x2="703.526" y2="319.812" gradientUnits="userSpaceOnUse">
<stop offset="0.01" stop-color="#8897CF"/>
<stop offset="0.95" stop-color="#6377C0"/>
</linearGradient>
<linearGradient id="paint6_linear_322_1012" x1="630.011" y1="255.039" x2="582.715" y2="308.828" gradientUnits="userSpaceOnUse">
<stop offset="0.01" stop-color="#8897CF"/>
<stop offset="0.95" stop-color="#6377C0"/>
</linearGradient>
<linearGradient id="paint7_linear_322_1012" x1="714.436" y1="255.039" x2="667.113" y2="308.828" gradientUnits="userSpaceOnUse">
<stop offset="0.01" stop-color="#8897CF"/>
<stop offset="0.95" stop-color="#6377C0"/>
</linearGradient>
<clipPath id="clip0_322_1012">
<rect width="809" height="428.47" fill="white"/>
</clipPath>
</defs>
</svg>
