<svg width="262" height="87" viewBox="0 0 262 87" fill="none" xmlns="http://www.w3.org/2000/svg">
<rect x="0.478271" width="260.87" height="86.9565" rx="10" fill="white"/>
<path d="M54.9714 43.2375C54.9957 41.3506 55.4983 39.5005 56.4324 37.8594C57.3665 36.2183 58.7016 34.8394 60.3137 33.8511C59.2896 32.3927 57.9386 31.1924 56.3679 30.3457C54.7973 29.4989 53.0503 29.0291 51.2657 28.9734C47.4589 28.5749 43.7684 31.245 41.8285 31.245C39.851 31.245 36.8643 29.013 33.648 29.0789C31.5677 29.146 29.5402 29.7492 27.7631 30.83C25.9861 31.9107 24.5201 33.432 23.508 35.2457C19.1237 42.8153 22.394 53.94 26.5938 60.0587C28.6951 63.0549 31.1508 66.4016 34.3642 66.283C37.5086 66.1529 38.683 64.2835 42.4786 64.2835C46.239 64.2835 47.3408 66.283 50.6194 66.2075C53.9936 66.1529 56.1194 63.1981 58.147 60.1735C59.6568 58.0387 60.8185 55.6792 61.5892 53.1825C59.629 52.3557 57.9561 50.9718 56.7792 49.2033C55.6024 47.4348 54.9736 45.3599 54.9714 43.2375Z" fill="black" fill-opacity="0.9"/>
<path d="M48.7788 24.9492C50.6186 22.7468 51.5249 19.9161 51.3055 17.0581C48.4948 17.3525 45.8985 18.692 44.0339 20.8099C43.1223 21.8445 42.424 23.0482 41.9791 24.352C41.5343 25.6559 41.3514 27.0344 41.4411 28.4088C42.847 28.4232 44.2378 28.1194 45.5088 27.5201C46.7798 26.9208 47.8979 26.0418 48.7788 24.9492V24.9492Z" fill="black" fill-opacity="0.9"/>
<path d="M92.6967 58.9993H82.3778L79.8997 66.2959H75.5291L85.3029 39.3003H89.8439L99.6178 66.2959H95.1726L92.6967 58.9993ZM83.4465 55.6323H91.6259L87.5937 43.7904H87.4808L83.4465 55.6323Z" fill="black" fill-opacity="0.9"/>
<path d="M120.726 56.4559C120.726 62.5722 117.443 66.5018 112.489 66.5018C111.234 66.5672 109.986 66.279 108.888 65.67C107.79 65.061 106.886 64.1559 106.279 63.0583H106.185V72.8069H102.134V46.6139H106.056V49.8875H106.13C106.764 48.7952 107.684 47.8947 108.79 47.282C109.897 46.6693 111.149 46.3672 112.415 46.4079C117.424 46.4079 120.726 50.3566 120.726 56.4559ZM116.562 56.4559C116.562 52.4711 114.497 49.8514 111.346 49.8514C108.25 49.8514 106.168 52.5263 106.168 56.4559C106.168 60.4216 108.25 63.0774 111.346 63.0774C114.497 63.0774 116.562 60.4768 116.562 56.4559H116.562Z" fill="black" fill-opacity="0.9"/>
<path d="M142.451 56.4559C142.451 62.5722 139.167 66.5018 134.213 66.5018C132.958 66.5672 131.71 66.279 130.611 65.67C129.513 65.061 128.609 64.1559 128.003 63.0583H127.909V72.8069H123.858V46.6139H127.779V49.8875H127.854C128.488 48.7952 129.407 47.8947 130.514 47.282C131.62 46.6693 132.873 46.3672 134.138 46.4079C139.148 46.4079 142.451 50.3566 142.451 56.4559ZM138.285 56.4559C138.285 52.4711 136.22 49.8514 133.069 49.8514C129.974 49.8514 127.892 52.5263 127.892 56.4559C127.892 60.4216 129.974 63.0774 133.069 63.0774C136.22 63.0774 138.285 60.4768 138.285 56.4559V56.4559Z" fill="black" fill-opacity="0.9"/>
<path d="M156.806 58.7742C157.106 61.4513 159.714 63.209 163.278 63.209C166.693 63.209 169.149 61.4512 169.149 59.0374C169.149 56.942 167.668 55.6874 164.159 54.8275L160.651 53.9847C155.68 52.7874 153.372 50.4691 153.372 46.7072C153.372 42.0494 157.442 38.8501 163.22 38.8501C168.943 38.8501 172.864 42.0494 172.996 46.7072H168.907C168.662 44.0131 166.429 42.387 163.165 42.387C159.901 42.387 157.668 44.0323 157.668 46.427C157.668 48.3355 159.094 49.4586 162.584 50.3183L165.566 51.0486C171.121 52.3584 173.426 54.5834 173.426 58.532C173.426 63.5825 169.394 66.7457 162.977 66.7457C156.974 66.7457 152.92 63.6568 152.659 58.774L156.806 58.7742Z" fill="black" fill-opacity="0.9"/>
<path d="M182.174 41.9558V46.6136H185.927V49.8129H182.174V60.6633C182.174 62.349 182.926 63.1345 184.576 63.1345C185.021 63.1267 185.466 63.0955 185.908 63.041V66.2212C185.167 66.3594 184.413 66.422 183.658 66.408C179.662 66.408 178.104 64.9113 178.104 61.0942V49.8129H175.234V46.6136H178.104V41.9558H182.174Z" fill="black" fill-opacity="0.9"/>
<path d="M188.099 56.4556C188.099 50.263 191.756 46.3716 197.46 46.3716C203.182 46.3716 206.823 50.2629 206.823 56.4556C206.823 62.6653 203.202 66.5397 197.46 66.5397C191.72 66.5397 188.099 62.6653 188.099 56.4556ZM202.695 56.4556C202.695 52.2076 200.743 49.7004 197.46 49.7004C194.177 49.7004 192.225 52.2267 192.225 56.4556C192.225 60.7207 194.177 63.2088 197.46 63.2088C200.743 63.2088 202.695 60.7207 202.695 56.4556H202.695Z" fill="black" fill-opacity="0.9"/>
<path d="M210.163 46.6137H214.027V49.9637H214.121C214.382 48.9174 214.997 47.9928 215.861 47.3452C216.726 46.6976 217.788 46.3666 218.868 46.4077C219.335 46.4061 219.801 46.4567 220.256 46.5585V50.3373C219.667 50.1577 219.052 50.0753 218.436 50.0932C217.848 50.0694 217.261 50.1729 216.716 50.3965C216.171 50.6202 215.682 50.9588 215.281 51.3889C214.88 51.8191 214.577 52.3308 214.393 52.8888C214.209 53.4468 214.148 54.0378 214.214 54.6215V66.2956H210.163L210.163 46.6137Z" fill="black" fill-opacity="0.9"/>
<path d="M238.936 60.5148C238.391 64.0877 234.901 66.5397 230.437 66.5397C224.695 66.5397 221.131 62.7035 221.131 56.5491C221.131 50.3755 224.714 46.3716 230.267 46.3716C235.727 46.3716 239.161 50.1122 239.161 56.0799V57.4641H225.221V57.7082C225.157 58.4325 225.248 59.1623 225.488 59.8489C225.728 60.5355 226.112 61.1633 226.614 61.6905C227.116 62.2178 227.725 62.6325 228.4 62.9071C229.076 63.1817 229.802 63.3098 230.531 63.2831C231.488 63.3725 232.449 63.1514 233.27 62.6526C234.091 62.1539 234.729 61.404 235.089 60.5147L238.936 60.5148ZM225.24 54.6405H235.108C235.144 53.9892 235.045 53.3375 234.817 52.7261C234.589 52.1148 234.236 51.5571 233.782 51.0881C233.327 50.619 232.78 50.2487 232.175 50.0004C231.57 49.7521 230.921 49.6312 230.267 49.6452C229.607 49.6413 228.953 49.7677 228.342 50.0171C227.732 50.2665 227.177 50.6341 226.71 51.0985C226.242 51.5629 225.872 52.115 225.62 52.723C225.367 53.3309 225.238 53.9826 225.24 54.6405V54.6405Z" fill="black" fill-opacity="0.9"/>
<path d="M82.94 18.9801C83.7893 18.9193 84.6416 19.0472 85.4354 19.3547C86.2292 19.6622 86.9446 20.1415 87.5302 20.758C88.1157 21.3746 88.5567 22.1131 88.8213 22.9202C89.086 23.7273 89.1677 24.5829 89.0606 25.4254C89.0606 29.5694 86.8146 31.9514 82.94 31.9514H78.2415V18.9801H82.94ZM80.2618 30.117H82.7143C83.3212 30.1532 83.9286 30.0539 84.4922 29.8265C85.0558 29.5991 85.5615 29.2492 85.9724 28.8023C86.3834 28.3555 86.6892 27.8228 86.8676 27.2432C87.0461 26.6636 87.0927 26.0516 87.0041 25.4518C87.0863 24.8543 87.0349 24.2461 86.8537 23.6708C86.6725 23.0954 86.366 22.5671 85.956 22.1238C85.546 21.6805 85.0428 21.3331 84.4823 21.1065C83.9219 20.8799 83.3181 20.7797 82.7143 20.8131H80.2618V30.117Z" fill="black" fill-opacity="0.9"/>
<path d="M91.3428 27.0525C91.2811 26.4092 91.3549 25.7601 91.5595 25.1469C91.7641 24.5337 92.0949 23.9699 92.5308 23.4917C92.9666 23.0135 93.4979 22.6314 94.0906 22.3699C94.6832 22.1085 95.3241 21.9734 95.9722 21.9734C96.6202 21.9734 97.2611 22.1085 97.8538 22.3699C98.4464 22.6314 98.9777 23.0135 99.4136 23.4917C99.8495 23.9699 100.18 24.5337 100.385 25.1469C100.589 25.7601 100.663 26.4092 100.602 27.0525C100.664 27.6964 100.591 28.3464 100.387 28.9606C100.183 29.5748 99.8528 30.1396 99.4168 30.6187C98.9808 31.0979 98.4491 31.4808 97.8559 31.7428C97.2626 32.0049 96.621 32.1402 95.9722 32.1402C95.3233 32.1402 94.6817 32.0049 94.0885 31.7428C93.4952 31.4808 92.9635 31.0979 92.5275 30.6187C92.0916 30.1396 91.7609 29.5748 91.5569 28.9606C91.3529 28.3464 91.2799 27.6964 91.3428 27.0525V27.0525ZM98.6088 27.0525C98.6088 24.9306 97.6529 23.6897 95.9754 23.6897C94.2914 23.6897 93.3441 24.9306 93.3441 27.0525C93.3441 29.1914 94.2915 30.4227 95.9754 30.4227C97.653 30.4227 98.6089 29.1829 98.6089 27.0525H98.6088Z" fill="black" fill-opacity="0.9"/>
<path d="M112.909 31.9511H110.899L108.87 24.7415H108.717L106.697 31.9511H104.706L102 22.1621H103.965L105.724 29.6317H105.869L107.887 22.1621H109.745L111.763 29.6317H111.917L113.667 22.1621H115.604L112.909 31.9511Z" fill="black" fill-opacity="0.9"/>
<path d="M117.88 22.162H119.745V23.717H119.889C120.135 23.1585 120.549 22.6903 121.074 22.3777C121.599 22.0651 122.209 21.9236 122.819 21.973C123.297 21.9372 123.776 22.009 124.222 22.1831C124.668 22.3573 125.069 22.6292 125.395 22.9789C125.722 23.3286 125.965 23.7469 126.107 24.2031C126.249 24.6592 126.287 25.1414 126.217 25.6139V31.9508H124.279V26.099C124.279 24.5259 123.594 23.7436 122.161 23.7436C121.837 23.7285 121.513 23.7836 121.212 23.9049C120.911 24.0263 120.64 24.2111 120.417 24.4467C120.195 24.6824 120.026 24.9632 119.922 25.27C119.819 25.5768 119.783 25.9023 119.817 26.2243V31.951H117.88L117.88 22.162Z" fill="black" fill-opacity="0.9"/>
<path d="M129.304 18.3408H131.241V31.9511H129.304V18.3408Z" fill="black" fill-opacity="0.9"/>
<path d="M133.934 27.0527C133.872 26.4093 133.946 25.7602 134.151 25.147C134.355 24.5338 134.686 23.97 135.122 23.4917C135.558 23.0135 136.09 22.6314 136.682 22.3699C137.275 22.1085 137.916 21.9734 138.564 21.9734C139.212 21.9734 139.853 22.1085 140.446 22.3699C141.038 22.6314 141.57 23.0135 142.006 23.4917C142.442 23.97 142.772 24.5338 142.977 25.147C143.182 25.7602 143.255 26.4093 143.194 27.0527C143.257 27.6966 143.184 28.3466 142.98 28.9608C142.775 29.575 142.445 30.1398 142.009 30.6189C141.573 31.0981 141.041 31.481 140.448 31.743C139.854 32.005 139.213 32.1404 138.564 32.1404C137.915 32.1404 137.273 32.005 136.68 31.743C136.087 31.481 135.555 31.0981 135.119 30.6189C134.683 30.1398 134.352 29.575 134.148 28.9608C133.944 28.3466 133.871 27.6966 133.934 27.0527V27.0527ZM141.2 27.0527C141.2 24.9308 140.244 23.6899 138.567 23.6899C136.883 23.6899 135.935 24.9308 135.935 27.0527C135.935 29.1916 136.883 30.4229 138.567 30.4229C140.244 30.4229 141.2 29.183 141.2 27.0527H141.2Z" fill="black" fill-opacity="0.9"/>
<path d="M145.233 29.183C145.233 27.4209 146.549 26.4051 148.884 26.2607L151.544 26.1078V25.2629C151.544 24.229 150.858 23.6452 149.534 23.6452C148.452 23.6452 147.703 24.0411 147.488 24.7332H145.612C145.81 23.0518 147.396 21.9734 149.623 21.9734C152.084 21.9734 153.472 23.1951 153.472 25.2629V31.9513H151.607V30.5756H151.454C151.143 31.0691 150.706 31.4714 150.188 31.7414C149.67 32.0114 149.089 32.1395 148.506 32.1126C148.093 32.1553 147.677 32.1115 147.283 31.9839C146.889 31.8563 146.526 31.6477 146.218 31.3717C145.909 31.0957 145.663 30.7583 145.493 30.3813C145.323 30.0043 145.235 29.5961 145.233 29.183V29.183ZM151.544 28.3465V27.5281L149.146 27.681C147.794 27.7712 147.181 28.2297 147.181 29.0927C147.181 29.9737 147.948 30.4864 149.002 30.4864C149.31 30.5176 149.622 30.4865 149.919 30.395C150.215 30.3035 150.49 30.1535 150.728 29.9538C150.965 29.7542 151.159 29.509 151.299 29.2328C151.44 28.9567 151.523 28.6553 151.544 28.3465V28.3465Z" fill="black" fill-opacity="0.9"/>
<path d="M156.019 27.0524C156.019 23.9593 157.613 21.9998 160.093 21.9998C160.707 21.9716 161.316 22.1181 161.849 22.4222C162.382 22.7264 162.817 23.1755 163.104 23.7172H163.248V18.3408H165.186V31.9511H163.329V30.4045H163.176C162.867 30.9426 162.417 31.3861 161.873 31.6872C161.33 31.9882 160.715 32.1353 160.093 32.1124C157.596 32.1126 156.019 30.153 156.019 27.0524ZM158.02 27.0524C158.02 29.1287 159.001 30.3781 160.643 30.3781C162.275 30.3781 163.285 29.1107 163.285 27.0609C163.285 25.0208 162.265 23.7353 160.643 23.7353C159.012 23.7353 158.02 24.9931 158.02 27.0524H158.02Z" fill="black" fill-opacity="0.9"/>
<path d="M173.201 27.0525C173.139 26.4092 173.213 25.7601 173.418 25.1469C173.622 24.5337 173.953 23.9699 174.389 23.4917C174.825 23.0135 175.356 22.6314 175.949 22.3699C176.541 22.1085 177.182 21.9734 177.83 21.9734C178.478 21.9734 179.119 22.1085 179.712 22.3699C180.305 22.6314 180.836 23.0135 181.272 23.4917C181.708 23.9699 182.039 24.5337 182.243 25.1469C182.448 25.7601 182.521 26.4092 182.46 27.0525C182.523 27.6964 182.45 28.3464 182.246 28.9606C182.042 29.5748 181.711 30.1396 181.275 30.6187C180.839 31.0979 180.307 31.4808 179.714 31.7428C179.121 32.0049 178.479 32.1402 177.83 32.1402C177.182 32.1402 176.54 32.0049 175.947 31.7428C175.353 31.4808 174.822 31.0979 174.386 30.6187C173.95 30.1396 173.619 29.5748 173.415 28.9606C173.211 28.3464 173.138 27.6964 173.201 27.0525V27.0525ZM180.467 27.0525C180.467 24.9306 179.511 23.6897 177.834 23.6897C176.15 23.6897 175.202 24.9306 175.202 27.0525C175.202 29.1914 176.15 30.4227 177.834 30.4227C179.511 30.4227 180.467 29.1829 180.467 27.0525Z" fill="black" fill-opacity="0.9"/>
<path d="M185.059 22.162H186.924V23.717H187.069C187.314 23.1585 187.729 22.6903 188.254 22.3777C188.779 22.0651 189.389 21.9236 189.998 21.973C190.476 21.9372 190.955 22.009 191.401 22.1831C191.847 22.3573 192.249 22.6292 192.575 22.9789C192.901 23.3286 193.144 23.7469 193.287 24.2031C193.429 24.6592 193.466 25.1414 193.396 25.6139V31.9508H191.459V26.099C191.459 24.5259 190.773 23.7436 189.34 23.7436C189.016 23.7285 188.692 23.7836 188.391 23.9049C188.09 24.0263 187.819 24.2111 187.597 24.4467C187.374 24.6824 187.205 24.9632 187.102 25.27C186.998 25.5768 186.962 25.9023 186.996 26.2243V31.951H185.059V22.162Z" fill="black" fill-opacity="0.9"/>
<path d="M204.343 19.7251V22.2068H206.47V23.8341H204.343V28.8676C204.343 29.893 204.767 30.342 205.731 30.342C205.978 30.3412 206.225 30.3264 206.47 30.2974V31.9066C206.122 31.9687 205.769 32.0017 205.416 32.0054C203.261 32.0054 202.403 31.2496 202.403 29.3623V23.834H200.845V22.2067H202.403V19.7251H204.343Z" fill="black" fill-opacity="0.9"/>
<path d="M209.116 18.3408H211.036V23.7353H211.189C211.447 23.1715 211.873 22.7007 212.408 22.3869C212.944 22.0731 213.563 21.9316 214.183 21.9817C214.658 21.9559 215.133 22.035 215.574 22.2134C216.015 22.3917 216.411 22.6649 216.734 23.0135C217.057 23.3621 217.298 23.7774 217.442 24.2299C217.585 24.6823 217.627 25.1608 217.563 25.6311V31.9511H215.624V26.1077C215.624 24.5441 214.894 23.7522 213.525 23.7522C213.192 23.725 212.857 23.7706 212.544 23.886C212.23 24.0013 211.946 24.1836 211.71 24.4199C211.475 24.6563 211.294 24.9412 211.181 25.2545C211.067 25.5678 211.024 25.9021 211.053 26.234V31.9511H209.116L209.116 18.3408Z" fill="black" fill-opacity="0.9"/>
<path d="M228.86 29.3079C228.596 30.2025 228.026 30.9764 227.249 31.4941C226.471 32.0119 225.536 32.2404 224.606 32.1399C223.959 32.1569 223.317 32.0334 222.723 31.7779C222.128 31.5224 221.597 31.1411 221.166 30.6603C220.734 30.1796 220.413 29.611 220.224 28.994C220.035 28.377 219.983 27.7264 220.071 27.0873C219.985 26.4462 220.038 25.7942 220.227 25.1753C220.415 24.5565 220.735 23.9853 221.164 23.5003C221.593 23.0154 222.122 22.628 222.714 22.3646C223.307 22.1011 223.949 21.9675 224.597 21.9731C227.329 21.9731 228.977 23.8339 228.977 26.9078V27.582H222.045V27.6902C222.015 28.0494 222.06 28.411 222.178 28.7518C222.296 29.0926 222.484 29.405 222.73 29.669C222.976 29.933 223.275 30.1429 223.607 30.285C223.939 30.4272 224.298 30.4986 224.659 30.4946C225.123 30.55 225.592 30.4668 226.008 30.2555C226.424 30.0442 226.767 29.7143 226.995 29.3078L228.86 29.3079ZM222.045 26.1532H227.003C227.028 25.8246 226.983 25.4946 226.872 25.1844C226.761 24.8741 226.586 24.5905 226.358 24.3516C226.131 24.1128 225.855 23.9241 225.55 23.7977C225.245 23.6712 224.917 23.6098 224.587 23.6173C224.252 23.6131 223.919 23.6758 223.609 23.8018C223.298 23.9278 223.017 24.1144 222.78 24.3508C222.543 24.5871 222.356 24.8683 222.23 25.1779C222.103 25.4874 222.041 25.819 222.045 26.1532H222.045Z" fill="black" fill-opacity="0.9"/>
<rect x="1.47827" y="1" width="258.87" height="84.9565" rx="9" stroke="black" stroke-opacity="0.9" stroke-width="2"/>
</svg>
