<svg width="81" height="80" viewBox="0 0 81 80" fill="none" xmlns="http://www.w3.org/2000/svg">
<rect x="0.5" width="80" height="80" rx="20" fill="#FFDEEB"/>
<g clip-path="url(#clip0_4_648)">
<path d="M25.9412 32.5883C25.9412 30.3954 27.7189 28.6177 29.9118 28.6177H33.8823C36.0752 28.6177 37.8529 30.3954 37.8529 32.5883V36.5589C37.8529 38.7517 36.0752 40.5294 33.8823 40.5294H29.9118C27.7189 40.5294 25.9412 38.7517 25.9412 36.5589V32.5883Z" stroke="#FF599B" stroke-width="1.76471" stroke-linecap="round" stroke-linejoin="round"/>
<path d="M25.9412 49.7941C25.9412 47.6013 27.7189 45.8236 29.9118 45.8236H33.8823C36.0752 45.8236 37.8529 47.6013 37.8529 49.7941V53.7647C37.8529 55.9576 36.0752 57.7353 33.8823 57.7353H29.9118C27.7189 57.7353 25.9412 55.9576 25.9412 53.7647V49.7941Z" stroke="#FF599B" stroke-width="1.76471" stroke-linecap="round" stroke-linejoin="round"/>
<path d="M43.147 32.5883C43.147 30.3954 44.9247 28.6177 47.1176 28.6177H51.0882C53.2811 28.6177 55.0588 30.3954 55.0588 32.5883V36.5589C55.0588 38.7517 53.2811 40.5294 51.0882 40.5294H47.1176C44.9247 40.5294 43.147 38.7517 43.147 36.5589V32.5883Z" stroke="#FF599B" stroke-width="1.76471" stroke-linecap="round" stroke-linejoin="round"/>
<path d="M43.147 49.7941C43.147 47.6013 44.9247 45.8236 47.1176 45.8236H51.0882C53.2811 45.8236 55.0588 47.6013 55.0588 49.7941V53.7647C55.0588 55.9576 53.2811 57.7353 51.0882 57.7353H47.1176C44.9247 57.7353 43.147 55.9576 43.147 53.7647V49.7941Z" stroke="#FF599B" stroke-width="1.76471" stroke-linecap="round" stroke-linejoin="round"/>
</g>
<defs>
<clipPath id="clip0_4_648">
<rect width="48" height="48" fill="white" transform="translate(16.5 16)"/>
</clipPath>
</defs>
</svg>
