<svg width="81" height="80" viewBox="0 0 81 80" fill="none" xmlns="http://www.w3.org/2000/svg">
<rect x="0.5" width="80" height="80" rx="20" fill="#FFDEEB"/>
<g clip-path="url(#clip0_4_629)">
<path d="M39.75 58H41.25V59.5H39.75V58Z" fill="#FF599B"/>
<path d="M52.6903 53.2585L53.751 52.1979L54.8116 53.2585L53.751 54.3192L52.6903 53.2585Z" fill="#FF599B"/>
<path d="M58.5 39.25H60V40.75H58.5V39.25Z" fill="#FF599B"/>
<path d="M62.25 34.7499H56.9325C56.6423 33.8349 56.2747 32.9461 55.8337 32.0934L59.592 28.3344C59.7326 28.1938 59.8115 28.0031 59.8115 27.8042C59.8115 27.6053 59.7326 27.4146 59.592 27.2739L56.4097 24.0924C54.3278 21.9705 51.846 20.2822 49.1078 19.125C46.3696 17.9678 43.4292 17.3647 40.4566 17.3505C37.4839 17.3363 34.5379 17.9113 31.7888 19.0423C29.0396 20.1733 26.5419 21.8378 24.4398 23.9398C22.3377 26.0417 20.673 28.5393 19.5418 31.2884C18.4106 34.0375 17.8354 36.9834 17.8494 39.9561C17.8634 42.9287 18.4663 45.8692 19.6233 48.6075C20.7803 51.3458 22.4684 53.8276 24.5902 55.9097L27.7717 59.0919C27.9124 59.2325 28.1031 59.3115 28.302 59.3115C28.5008 59.3115 28.6916 59.2325 28.8322 59.0919L32.5912 55.3337C33.4447 55.7745 34.3341 56.1418 35.25 56.4317V61.7499C35.25 61.9489 35.329 62.1396 35.4696 62.2803C35.6103 62.4209 35.801 62.4999 36 62.4999H45C45.1989 62.4999 45.3896 62.4209 45.5303 62.2803C45.6709 62.1396 45.75 61.9489 45.75 61.7499V56.4324C46.665 56.1425 47.5537 55.7751 48.4065 55.3344L52.1655 59.0927C52.3061 59.2333 52.4968 59.3123 52.6957 59.3123C52.8946 59.3123 53.0853 59.2333 53.226 59.0927L59.5897 52.7289C59.7303 52.5883 59.8093 52.3976 59.8093 52.1987C59.8093 51.9998 59.7303 51.8091 59.5897 51.6684L55.8315 47.9094C56.2731 47.0558 56.6412 46.1661 56.9317 45.2499H62.25C62.4489 45.2499 62.6396 45.1709 62.7803 45.0303C62.9209 44.8896 63 44.6989 63 44.4999V35.4999C63 35.301 62.9209 35.1103 62.7803 34.9696C62.6396 34.829 62.4489 34.7499 62.25 34.7499ZM25.65 25.1499C29.4957 21.303 34.6845 19.0991 40.1232 19.0025C45.5619 18.906 50.8256 20.9244 54.8055 24.6324L53.7465 25.6914C50.0453 22.2758 45.1661 20.4246 40.1308 20.5256C35.0954 20.6265 30.2944 22.6718 26.7331 26.2331C23.1718 29.7943 21.1266 34.5954 21.0256 39.6307C20.9246 44.6661 22.7758 49.5453 26.1915 53.2464L25.1325 54.3054C21.4244 50.3256 19.406 45.0618 19.5026 39.6232C19.5991 34.1845 21.803 28.9957 25.65 25.1499ZM46.8637 33.6362C48.5288 35.3287 49.4577 37.6105 49.4481 39.9848C49.4384 42.359 48.4909 44.6332 46.8121 46.3121C45.1332 47.9909 42.859 48.9384 40.4848 48.948C38.1105 48.9577 35.8287 48.0288 34.1362 46.3637C33.9956 46.2231 33.8048 46.1441 33.606 46.1441C33.4071 46.1441 33.2163 46.2231 33.0757 46.3637L27.2527 52.1867C24.1072 48.7691 22.4045 44.2678 22.5007 39.624C22.597 34.9802 24.4846 30.5533 27.769 27.2689C31.0533 23.9846 35.4802 22.0969 40.124 22.0007C44.7679 21.9045 49.2691 23.6072 52.6867 26.7527L46.8637 32.5749C46.794 32.6446 46.7387 32.7273 46.7009 32.8184C46.6632 32.9094 46.6437 33.007 46.6437 33.1056C46.6437 33.2041 46.6632 33.3017 46.7009 33.3928C46.7387 33.4838 46.794 33.5665 46.8637 33.6362ZM61.5 43.7499H56.373C56.209 43.7498 56.0495 43.8035 55.919 43.9026C55.7884 44.0018 55.6939 44.141 55.65 44.2989C55.3205 45.4754 54.852 46.6084 54.2542 47.6739C54.1736 47.8169 54.1422 47.9824 54.1647 48.1449C54.1871 48.3075 54.2623 48.4582 54.3787 48.5739L58.0005 52.1964L52.698 57.4989L49.0755 53.8772C48.9597 53.7608 48.809 53.6856 48.6465 53.6632C48.4839 53.6407 48.3184 53.6721 48.1755 53.7527C47.1099 54.3504 45.9769 54.819 44.8005 55.1484C44.6425 55.1924 44.5033 55.2869 44.4041 55.4174C44.305 55.548 44.2514 55.7075 44.2515 55.8714V60.9999H36.75V55.8729C36.75 55.709 36.6964 55.5495 36.5973 55.4189C36.4981 55.2884 36.3589 55.1939 36.201 55.1499C35.0245 54.8205 33.8915 54.3519 32.826 53.7542C32.683 53.6736 32.5175 53.6422 32.355 53.6646C32.1924 53.6871 32.0417 53.7623 31.926 53.8787L28.3035 57.5004L26.1825 55.3794L33.6262 47.9364C35.633 49.6738 38.2234 50.5867 40.8761 50.4913C43.5288 50.3959 46.0469 49.2994 47.9238 47.4223C49.8006 45.5453 50.8969 43.027 50.992 40.3743C51.0872 37.7216 50.1741 35.1313 48.4365 33.1247L55.8795 25.6809L58.0005 27.8019L54.3787 31.4244C54.2623 31.5402 54.1871 31.6909 54.1647 31.8534C54.1422 32.016 54.1736 32.1815 54.2542 32.3244C54.8521 33.3899 55.3206 34.5229 55.65 35.6994C55.6939 35.8574 55.7884 35.9966 55.919 36.0958C56.0495 36.1949 56.209 36.2485 56.373 36.2484H61.5V43.7499Z" fill="#FF599B"/>
<path d="M41.25 37.1065V28.75C41.25 28.5511 41.171 28.3603 41.0303 28.2197C40.8897 28.079 40.6989 28 40.5 28C40.3011 28 40.1103 28.079 39.9697 28.2197C39.829 28.3603 39.75 28.5511 39.75 28.75V37.1065C39.2346 37.2413 38.7643 37.5109 38.3876 37.8876C38.0109 38.2643 37.7413 38.7346 37.6065 39.25H32.25C32.0511 39.25 31.8603 39.329 31.7197 39.4697C31.579 39.6103 31.5 39.8011 31.5 40C31.5 40.1989 31.579 40.3897 31.7197 40.5303C31.8603 40.671 32.0511 40.75 32.25 40.75H37.6065C37.7377 41.2618 38.0019 41.7298 38.3724 42.1064C38.7429 42.4831 39.2065 42.755 39.7161 42.8945C40.2256 43.034 40.7631 43.0362 41.2738 42.9009C41.7845 42.7655 42.2503 42.4975 42.6239 42.1239C42.9975 41.7503 43.2655 41.2845 43.4009 40.7738C43.5362 40.2631 43.534 39.7256 43.3945 39.2161C43.255 38.7065 42.9831 38.2429 42.6064 37.8724C42.2298 37.5019 41.7618 37.2377 41.25 37.1065ZM40.5 41.5C40.2033 41.5 39.9133 41.412 39.6666 41.2472C39.42 41.0824 39.2277 40.8481 39.1142 40.574C39.0006 40.2999 38.9709 39.9983 39.0288 39.7074C39.0867 39.4164 39.2296 39.1491 39.4393 38.9393C39.6491 38.7296 39.9164 38.5867 40.2074 38.5288C40.4983 38.4709 40.7999 38.5006 41.074 38.6142C41.3481 38.7277 41.5824 38.92 41.7472 39.1666C41.912 39.4133 42 39.7033 42 40C42 40.3978 41.842 40.7794 41.5607 41.0607C41.2794 41.342 40.8978 41.5 40.5 41.5Z" fill="#FF599B"/>
<path d="M40.5 25.75C40.3011 25.75 40.1103 25.671 39.9697 25.5303C39.829 25.3897 39.75 25.1989 39.75 25V23.5C39.75 23.3011 39.829 23.1103 39.9697 22.9697C40.1103 22.829 40.3011 22.75 40.5 22.75C40.6989 22.75 40.8897 22.829 41.0303 22.9697C41.171 23.1103 41.25 23.3011 41.25 23.5V25C41.25 25.1989 41.171 25.3897 41.0303 25.5303C40.8897 25.671 40.6989 25.75 40.5 25.75Z" fill="#FF599B"/>
<path d="M48 27.76C47.8684 27.7599 47.7391 27.7252 47.6252 27.6593C47.5113 27.5934 47.4168 27.4987 47.351 27.3847C47.2853 27.2707 47.2507 27.1414 47.2507 27.0099C47.2508 26.8783 47.2854 26.749 47.3512 26.635L48.1012 25.3353C48.2014 25.1644 48.3651 25.0401 48.5565 24.9895C48.748 24.9389 48.9517 24.9661 49.1232 25.0651C49.2948 25.1641 49.4201 25.327 49.472 25.5181C49.5239 25.7092 49.4981 25.9131 49.4002 26.0853L48.6502 27.385C48.5843 27.4992 48.4895 27.5939 48.3754 27.6597C48.2612 27.7256 48.1317 27.7602 48 27.76Z" fill="#FF599B"/>
<path d="M33 27.76C32.8682 27.7602 32.7387 27.7256 32.6246 27.6597C32.5104 27.5939 32.4156 27.4992 32.3497 27.385L31.5997 26.0853C31.5018 25.9131 31.476 25.7092 31.5279 25.5181C31.5798 25.327 31.7052 25.1641 31.8767 25.0651C32.0482 24.9661 32.2519 24.9389 32.4434 24.9895C32.6349 25.0401 32.7986 25.1644 32.8987 25.3353L33.6487 26.635C33.7145 26.749 33.7492 26.8783 33.7492 27.0099C33.7492 27.1414 33.7147 27.2707 33.6489 27.3847C33.5832 27.4987 33.4886 27.5934 33.3747 27.6593C33.2608 27.7252 33.1316 27.7599 33 27.76Z" fill="#FF599B"/>
<path d="M27.5093 33.25C27.3776 33.2502 27.2482 33.2156 27.1343 33.1495L25.8346 32.3995C25.6637 32.2993 25.5394 32.1356 25.4888 31.9441C25.4382 31.7527 25.4653 31.5489 25.5644 31.3774C25.6634 31.2059 25.8262 31.0805 26.0174 31.0286C26.2085 30.9768 26.4124 31.0026 26.5846 31.1005L27.8843 31.8505C28.0273 31.933 28.139 32.0604 28.2022 32.213C28.2654 32.3655 28.2765 32.5346 28.2337 32.6941C28.191 32.8535 28.0968 32.9945 27.9659 33.095C27.8349 33.1955 27.6744 33.2499 27.5093 33.25Z" fill="#FF599B"/>
<path d="M25.5 40.75H24C23.8011 40.75 23.6103 40.671 23.4697 40.5303C23.329 40.3897 23.25 40.1989 23.25 40C23.25 39.8011 23.329 39.6103 23.4697 39.4697C23.6103 39.329 23.8011 39.25 24 39.25H25.5C25.6989 39.25 25.8897 39.329 26.0303 39.4697C26.171 39.6103 26.25 39.8011 26.25 40C26.25 40.1989 26.171 40.3897 26.0303 40.5303C25.8897 40.671 25.6989 40.75 25.5 40.75Z" fill="#FF599B"/>
<path d="M26.211 49C26.0459 49 25.8855 48.9456 25.7545 48.8451C25.6235 48.7445 25.5293 48.6036 25.4866 48.4442C25.4439 48.2847 25.455 48.1156 25.5181 47.9631C25.5813 47.8105 25.6931 47.6831 25.836 47.6005L27.1358 46.8505C27.2211 46.8005 27.3155 46.7679 27.4135 46.7545C27.5115 46.7411 27.6112 46.7472 27.7068 46.7725C27.8024 46.7978 27.8921 46.8417 27.9707 46.9018C28.0492 46.9619 28.1151 47.0369 28.1646 47.1226C28.2141 47.2082 28.2461 47.3028 28.2588 47.4009C28.2716 47.499 28.2648 47.5986 28.2389 47.6941C28.213 47.7895 28.1684 47.8789 28.1078 47.9571C28.0472 48.0352 27.9718 48.1007 27.8858 48.1495L26.586 48.8995C26.4721 48.9656 26.3427 49.0003 26.211 49Z" fill="#FF599B"/>
<path d="M40.5 47.5C39.5147 47.5027 38.5386 47.3096 37.6286 46.9319C36.7186 46.5541 35.8927 45.9992 35.199 45.2995C35.1275 45.2302 35.0705 45.1474 35.0313 45.0558C34.9921 44.9643 34.9716 44.8658 34.9708 44.7662C34.9701 44.6667 34.9892 44.5679 35.0271 44.4758C35.0649 44.3837 35.1207 44.3 35.1912 44.2297C35.2618 44.1594 35.3456 44.1038 35.4378 44.0663C35.53 44.0287 35.6288 44.0098 35.7284 44.0108C35.828 44.0118 35.9263 44.0327 36.0178 44.0721C36.1092 44.1115 36.1919 44.1688 36.261 44.2405C36.8156 44.807 37.477 45.2579 38.2071 45.5671C38.9371 45.8763 39.7211 46.0377 40.5139 46.0419C41.3067 46.0461 42.0925 45.8931 42.8257 45.5917C43.559 45.2902 44.2252 44.8464 44.7858 44.2858C45.3464 43.7252 45.7902 43.059 46.0917 42.3257C46.3931 41.5925 46.5461 40.8067 46.5419 40.0139C46.5377 39.2211 46.3763 38.4371 46.0671 37.7071C45.7579 36.977 45.307 36.3156 44.7405 35.761C44.6688 35.6919 44.6115 35.6092 44.5721 35.5178C44.5327 35.4263 44.5118 35.328 44.5108 35.2284C44.5098 35.1288 44.5287 35.03 44.5663 34.9378C44.6038 34.8456 44.6594 34.7618 44.7297 34.6912C44.8 34.6207 44.8837 34.5649 44.9758 34.5271C45.0679 34.4892 45.1667 34.4701 45.2662 34.4708C45.3658 34.4716 45.4643 34.4921 45.5558 34.5313C45.6474 34.5705 45.7302 34.6275 45.7995 34.699C46.8474 35.7478 47.5609 37.0836 47.85 38.5377C48.139 39.9918 47.9906 41.499 47.4235 42.8688C46.8564 44.2386 45.8961 45.4096 44.6638 46.2339C43.4315 47.0582 41.9826 47.4988 40.5 47.5Z" fill="#FF599B"/>
</g>
<defs>
<clipPath id="clip0_4_629">
<rect width="48" height="48" fill="white" transform="translate(16.5 16)"/>
</clipPath>
</defs>
</svg>
