<svg width="294" height="87" viewBox="0 0 294 87" fill="none" xmlns="http://www.w3.org/2000/svg">
<rect width="293.478" height="86.9565" rx="10" fill="white"/>
<path d="M103.087 22.2608C103.123 23.0581 102.997 23.8543 102.716 24.6015C102.436 25.3487 102.008 26.0315 101.457 26.6087C100.839 27.2463 100.094 27.7463 99.2695 28.0759C98.4454 28.4056 97.5609 28.5575 96.6739 28.5217C95.7819 28.5416 94.8952 28.3782 94.0689 28.0417C93.2425 27.7051 92.494 27.2026 91.8696 26.5652C90.6029 25.2695 89.8936 23.5294 89.8936 21.7174C89.8936 19.9053 90.6029 18.1653 91.8696 16.8695C92.8381 15.9232 94.0646 15.2842 95.3952 15.0328C96.7257 14.7814 98.1008 14.9288 99.3479 15.4565C100.132 15.7787 100.831 16.2771 101.391 16.913L100.239 18.0652C99.8074 17.5451 99.2604 17.1329 98.6416 16.8612C98.0227 16.5895 97.349 16.4658 96.6739 16.5C95.8218 16.5059 94.9841 16.7204 94.234 17.1248C93.484 17.5292 92.8444 18.1112 92.3711 18.8198C91.8979 19.5285 91.6054 20.3423 91.5193 21.1901C91.4332 22.0378 91.5561 22.8938 91.8772 23.6831C92.1983 24.4725 92.7078 25.1712 93.3613 25.7181C94.0147 26.2651 94.7922 26.6436 95.6257 26.8207C96.4593 26.9978 97.3235 26.968 98.1429 26.734C98.9623 26.5 99.7118 26.0688 100.326 25.4782C100.99 24.7502 101.375 23.8107 101.413 22.8261H96.6739V21.2608H103C103.05 21.5921 103.079 21.926 103.087 22.2608Z" fill="black" fill-opacity="0.9" stroke="black" stroke-opacity="0.9" stroke-width="0.411304" stroke-miterlimit="10"/>
<path d="M113.043 16.8262H107.174V20.9567H112.522V22.5219H107.174V26.6523H113.043V28.261H105.478V15.2175H113.043V16.8262Z" fill="black" fill-opacity="0.9" stroke="black" stroke-opacity="0.9" stroke-width="0.411304" stroke-miterlimit="10"/>
<path d="M120.174 28.261H118.5V16.8262H114.848V15.2175H123.913V16.8262H120.174V28.261Z" fill="black" fill-opacity="0.9" stroke="black" stroke-opacity="0.9" stroke-width="0.411304" stroke-miterlimit="10"/>
<path d="M130.304 28.261V15.2175H131.978V28.261H130.304Z" fill="black" fill-opacity="0.9" stroke="black" stroke-opacity="0.9" stroke-width="0.411304" stroke-miterlimit="10"/>
<path d="M139.413 28.261H137.739V16.8262H134.087V15.2175H143.043V16.8262H139.413V28.261Z" fill="black" fill-opacity="0.9" stroke="black" stroke-opacity="0.9" stroke-width="0.411304" stroke-miterlimit="10"/>
<path d="M160.022 26.565C159.394 27.1934 158.648 27.6919 157.828 28.032C157.007 28.3721 156.127 28.5472 155.239 28.5472C154.351 28.5472 153.471 28.3721 152.651 28.032C151.83 27.6919 151.084 27.1934 150.456 26.565C149.228 25.2586 148.543 23.5325 148.543 21.7389C148.543 19.9453 149.228 18.2192 150.456 16.9128C151.071 16.2667 151.814 15.7568 152.638 15.416C153.462 15.0753 154.348 14.9112 155.239 14.9346C156.129 14.9205 157.013 15.0887 157.835 15.4289C158.658 15.7692 159.402 16.2742 160.022 16.9128C160.647 17.5487 161.138 18.3033 161.467 19.1322C161.795 19.9611 161.954 20.8475 161.935 21.7389C161.963 22.6314 161.808 23.5203 161.479 24.3505C161.15 25.1807 160.654 25.9344 160.022 26.565ZM151.696 25.478C152.159 25.9473 152.71 26.32 153.319 26.5743C153.927 26.8286 154.58 26.9596 155.239 26.9596C155.898 26.9596 156.551 26.8286 157.159 26.5743C157.768 26.32 158.319 25.9473 158.783 25.478C159.721 24.4587 160.241 23.1241 160.241 21.7389C160.241 20.3537 159.721 19.0191 158.783 17.9998C158.319 17.5305 157.768 17.1578 157.159 16.9035C156.551 16.6492 155.898 16.5182 155.239 16.5182C154.58 16.5182 153.927 16.6492 153.319 16.9035C152.71 17.1578 152.159 17.5305 151.696 17.9998C150.758 19.0191 150.237 20.3537 150.237 21.7389C150.237 23.1241 150.758 24.4587 151.696 25.478Z" fill="black" fill-opacity="0.9" stroke="black" stroke-opacity="0.9" stroke-width="0.411304" stroke-miterlimit="10"/>
<path d="M164.304 28.261V15.2175H166.326L172.674 25.3697V22.848V15.2175H174.348V28.261H172.609L165.978 17.6306V20.1306V28.261H164.304Z" fill="black" fill-opacity="0.9" stroke="black" stroke-opacity="0.9" stroke-width="0.411304" stroke-miterlimit="10"/>
<path d="M148.13 47.2827C146.299 47.287 144.51 47.8344 142.989 48.8555C141.468 49.8767 140.285 51.3258 139.588 53.0197C138.891 54.7135 138.712 56.576 139.073 58.3716C139.435 60.1672 140.321 61.8152 141.619 63.1073C142.917 64.3994 144.57 65.2776 146.367 65.6307C148.164 65.9838 150.026 65.796 151.716 65.0911C153.407 64.3862 154.85 63.1959 155.864 61.6705C156.878 60.1452 157.417 58.3535 157.413 56.5218C157.431 55.3 157.202 54.087 156.742 52.9552C156.281 51.8234 155.597 50.7959 154.731 49.9338C153.865 49.0717 152.834 48.3928 151.7 47.9373C150.566 47.4819 149.352 47.2592 148.13 47.2827ZM148.13 62.1305C147.008 62.209 145.887 61.948 144.915 61.3814C143.943 60.8147 143.163 59.9687 142.678 58.9532C142.193 57.9378 142.025 56.7998 142.195 55.6874C142.365 54.5749 142.866 53.5394 143.632 52.7154C144.399 51.8914 145.396 51.317 146.493 51.067C147.59 50.817 148.737 50.9028 149.785 51.3133C150.833 51.7239 151.733 52.4401 152.368 53.369C153.004 54.2979 153.345 55.3964 153.348 56.5218C153.383 57.2349 153.275 57.9478 153.03 58.6184C152.785 59.289 152.408 59.9038 151.922 60.4266C151.436 60.9493 150.85 61.3694 150.199 61.662C149.547 61.9547 148.844 62.114 148.13 62.1305ZM127.87 47.2827C126.038 47.287 124.249 47.8344 122.728 48.8555C121.208 49.8767 120.024 51.3258 119.327 53.0197C118.63 54.7135 118.451 56.576 118.813 58.3716C119.174 60.1672 120.06 61.8152 121.358 63.1073C122.656 64.3994 124.309 65.2776 126.106 65.6307C127.903 65.9838 129.765 65.796 131.455 65.0911C133.146 64.3862 134.589 63.1959 135.603 61.6705C136.617 60.1452 137.156 58.3535 137.152 56.5218C137.17 55.3 136.942 54.087 136.481 52.9552C136.02 51.8234 135.336 50.7959 134.47 49.9338C133.604 49.0717 132.573 48.3928 131.439 47.9373C130.305 47.4819 129.091 47.2592 127.87 47.2827ZM127.87 62.1305C126.747 62.209 125.627 61.948 124.654 61.3814C123.682 60.8147 122.903 59.9687 122.417 58.9532C121.932 57.9378 121.764 56.7998 121.934 55.6874C122.104 54.5749 122.605 53.5394 123.372 52.7154C124.138 51.8914 125.135 51.317 126.232 51.067C127.329 50.817 128.476 50.9028 129.524 51.3133C130.572 51.7239 131.472 52.4401 132.108 53.369C132.743 54.2979 133.084 55.3964 133.087 56.5218C133.122 57.2349 133.014 57.9478 132.769 58.6184C132.524 59.289 132.147 59.9038 131.661 60.4266C131.175 60.9493 130.589 61.3694 129.938 61.662C129.286 61.9547 128.583 62.114 127.87 62.1305ZM103.783 50.1305V54.0436H113.174C113.027 55.8866 112.26 57.6257 111 58.9784C110.058 59.9382 108.925 60.6895 107.674 61.1838C106.423 61.6781 105.083 61.9044 103.739 61.8479C100.972 61.8479 98.3175 60.7485 96.3606 58.7916C94.4037 56.8347 93.3043 54.1806 93.3043 51.4131C93.3043 48.6457 94.4037 45.9915 96.3606 44.0346C98.3175 42.0777 100.972 40.9784 103.739 40.9784C106.392 40.9389 108.954 41.9465 110.87 43.7827L113.63 41.0218C112.335 39.7403 110.796 38.7303 109.105 38.0509C107.414 37.3715 105.605 37.0364 103.783 37.0653C101.85 36.9901 99.922 37.3058 98.1143 37.9935C96.3067 38.6812 94.6564 39.7268 93.2625 41.0675C91.8685 42.4083 90.7596 44.0166 90.0021 45.7962C89.2446 47.5758 88.8542 49.4899 88.8542 51.424C88.8542 53.3581 89.2446 55.2723 90.0021 57.0518C90.7596 58.8314 91.8685 60.4398 93.2625 61.7805C94.6564 63.1213 96.3067 64.1668 98.1143 64.8545C99.922 65.5422 101.85 65.8579 103.783 65.7827C105.642 65.857 107.496 65.5371 109.224 64.8439C110.951 64.1508 112.512 63.1001 113.804 61.761C116.087 59.2532 117.304 55.9548 117.196 52.5653C117.203 51.7495 117.138 50.9346 117 50.1305H103.783ZM202.283 53.174C201.716 51.506 200.655 50.0496 199.242 48.9976C197.829 47.9456 196.13 47.3475 194.37 47.2827C193.18 47.2804 192.003 47.522 190.911 47.9926C189.819 48.4631 188.835 49.1527 188.02 50.0186C187.205 50.8846 186.577 51.9085 186.173 53.027C185.769 54.1456 185.6 55.335 185.674 56.5218C185.655 58.5063 186.279 60.4435 187.452 62.0441C188.626 63.6448 190.285 64.8229 192.183 65.4026C194.081 65.9823 196.116 65.9324 197.983 65.2603C199.85 64.5883 201.45 63.3302 202.543 61.674L199.391 59.5001C198.921 60.2833 198.255 60.9301 197.458 61.3762C196.661 61.8224 195.761 62.0525 194.848 62.0436C193.906 62.0825 192.974 61.8355 192.174 61.3349C191.375 60.8344 190.746 60.1039 190.37 59.2392L202.739 54.1305L202.283 53.174ZM189.674 56.261C189.63 55.5857 189.721 54.9084 189.942 54.2688C190.163 53.6292 190.509 53.0401 190.961 52.536C191.412 52.0319 191.96 51.623 192.571 51.3331C193.183 51.0432 193.846 50.8783 194.522 50.8479C195.222 50.8052 195.92 50.9701 196.527 51.322C197.134 51.6739 197.624 52.1971 197.935 52.8262L189.674 56.261ZM179.63 65.2175H183.696V38.0436H179.63V65.2175ZM172.978 49.3479H172.826C172.219 48.6563 171.469 48.104 170.629 47.7288C169.788 47.3536 168.877 47.1644 167.956 47.174C165.581 47.2892 163.34 48.3141 161.7 50.0361C160.059 51.7582 159.144 54.0455 159.144 56.424C159.144 58.8025 160.059 61.0898 161.7 62.8119C163.34 64.534 165.581 65.5588 167.956 65.674C168.878 65.6925 169.793 65.5072 170.634 65.1314C171.476 64.7556 172.224 64.1986 172.826 63.5001H172.978V64.8262C172.978 68.3697 171.087 70.261 168.043 70.261C167.027 70.2386 166.04 69.9147 165.207 69.3302C164.375 68.7457 163.736 67.9271 163.37 66.9784L159.848 68.4349C160.499 70.0702 161.631 71.4694 163.094 72.4476C164.558 73.4257 166.283 73.9368 168.043 73.9131C172.804 73.9131 176.739 71.1088 176.739 64.2827V47.8262H172.978V49.3479ZM168.304 62.1305C166.88 62.0417 165.543 61.4133 164.566 60.3733C163.589 59.3332 163.045 57.9598 163.045 56.5327C163.045 55.1056 163.589 53.7322 164.566 52.6921C165.543 51.6521 166.88 51.0237 168.304 50.9349C169 50.9649 169.683 51.1347 170.313 51.4341C170.942 51.7335 171.504 52.1564 171.967 52.6776C172.429 53.1989 172.782 53.8079 173.004 54.4683C173.227 55.1287 173.314 55.827 173.261 56.5218C173.32 57.219 173.237 57.9209 173.018 58.5852C172.798 59.2495 172.446 59.8623 171.982 60.3866C171.519 60.9109 170.954 61.3357 170.322 61.6355C169.69 61.9352 169.003 62.1037 168.304 62.1305ZM221.326 38.0436H211.587V65.2175H215.652V54.9131H221.326C222.485 54.9964 223.648 54.84 224.743 54.4539C225.839 54.0677 226.843 53.4599 227.693 52.6686C228.544 51.8772 229.222 50.9191 229.686 49.8541C230.149 48.7891 230.389 47.6399 230.389 46.4784C230.389 45.3168 230.149 44.1677 229.686 43.1026C229.222 42.0376 228.544 41.0795 227.693 40.2882C226.843 39.4968 225.839 38.889 224.743 38.5029C223.648 38.1167 222.485 37.9603 221.326 38.0436ZM221.326 51.0871H215.652V41.8262H221.413C222.024 41.8262 222.629 41.9465 223.193 42.1803C223.758 42.4141 224.271 42.7568 224.703 43.1888C225.135 43.6208 225.477 44.1336 225.711 44.698C225.945 45.2625 226.065 45.8674 226.065 46.4784C226.065 47.0893 225.945 47.6942 225.711 48.2587C225.477 48.8231 225.135 49.3359 224.703 49.7679C224.271 50.1999 223.758 50.5426 223.193 50.7764C222.629 51.0102 222.024 51.1305 221.413 51.1305L221.326 51.0871ZM246.413 47.1957C244.933 47.1045 243.458 47.4491 242.171 48.1871C240.885 48.9251 239.843 50.024 239.174 51.3479L242.761 52.8479C243.123 52.1945 243.667 51.6599 244.327 51.3089C244.987 50.9578 245.734 50.8053 246.478 50.8697C246.994 50.8094 247.517 50.8525 248.016 50.9965C248.516 51.1404 248.981 51.3824 249.386 51.7082C249.791 52.034 250.126 52.4371 250.374 52.8941C250.621 53.351 250.775 53.8526 250.826 54.3697V54.6305C249.519 53.9434 248.064 53.5852 246.587 53.5871C242.717 53.5871 238.761 55.761 238.761 59.7175C238.799 60.5585 239.006 61.3831 239.369 62.1426C239.732 62.902 240.245 63.5807 240.875 64.1384C241.506 64.696 242.242 65.1213 243.04 65.3888C243.839 65.6563 244.682 65.7607 245.522 65.6958C246.542 65.7522 247.559 65.5363 248.468 65.0702C249.377 64.6042 250.146 63.9047 250.696 63.0436H250.826V65.2175H254.739V54.761C254.739 50.0001 251.13 47.2392 246.5 47.2392L246.413 47.1957ZM245.913 62.0871C244.587 62.0871 242.739 61.4131 242.739 59.7827C242.739 57.6088 245.043 56.8697 247.087 56.8697C248.378 56.8378 249.655 57.1531 250.783 57.7827C250.646 58.9633 250.086 60.0544 249.207 60.8538C248.328 61.6533 247.188 62.1068 246 62.1305L245.913 62.0871ZM269 47.8262L264.348 59.6088H264.217L259.391 47.8262H255.043L262.283 64.3044L258.152 73.4566H262.391L273.522 47.8262H269ZM232.478 65.2175H236.522V38.0436H232.478V65.2175Z" fill="black" fill-opacity="0.9"/>
<path d="M22.6956 16.3914C21.9793 17.2384 21.6137 18.3272 21.6739 19.4349V67.5219C21.5999 68.6314 21.9671 69.7252 22.6956 70.5653L22.8478 70.7393L49.7826 43.8045V43.1523L22.8478 16.2393L22.6956 16.3914Z" fill="url(#paint0_linear_10_507)"/>
<path d="M58.6956 52.7828L49.7825 43.8045V43.1523L58.6956 34.1741L58.8912 34.3045L69.5651 40.348C72.6086 42.0654 72.6086 44.8915 69.5651 46.6306L58.9347 52.6741L58.6956 52.7828Z" fill="url(#paint1_linear_10_507)"/>
<path d="M58.9565 52.6522L49.7826 43.4783L22.6957 70.5652C23.31 71.112 24.0963 71.4266 24.9182 71.4544C25.7401 71.4822 26.5459 71.2214 27.1957 70.7174L58.9565 52.6522Z" fill="url(#paint2_linear_10_507)"/>
<path d="M58.9565 34.3046L27.1957 16.2611C26.5501 15.7501 25.745 15.483 24.9219 15.5068C24.0989 15.5307 23.3106 15.844 22.6957 16.3916L49.7826 43.4785L58.9565 34.3046Z" fill="url(#paint3_linear_10_507)"/>
<path opacity="0.2" d="M58.6957 52.4563L27.1957 70.3911C26.5695 70.8637 25.8063 71.1194 25.0218 71.1194C24.2372 71.1194 23.4741 70.8637 22.8479 70.3911L22.6957 70.5433L22.8479 70.7172C23.4741 71.1898 24.2372 71.4454 25.0218 71.4454C25.8063 71.4454 26.5695 71.1898 27.1957 70.7172L58.9565 52.652L58.6957 52.4563Z" fill="black" fill-opacity="0.9"/>
<path opacity="0.12" d="M22.6957 70.2608C21.9974 69.3985 21.6552 68.3019 21.7392 67.1956V67.5216C21.6652 68.6312 22.0324 69.725 22.7609 70.5651L22.9131 70.4129L22.6957 70.2608Z" fill="black" fill-opacity="0.9"/>
<path opacity="0.12" d="M69.5652 46.3044L58.6956 52.4565L58.8913 52.6522L69.5652 46.6087C70.1952 46.3423 70.7418 45.9109 71.1473 45.36C71.5529 44.8091 71.8024 44.159 71.8695 43.4783C71.7336 44.0969 71.4543 44.6749 71.054 45.1658C70.6538 45.6567 70.1438 46.0467 69.5652 46.3044Z" fill="black" fill-opacity="0.9"/>
<path opacity="0.25" d="M27.1957 16.5649L69.5653 40.6519C70.1439 40.9096 70.6538 41.2996 71.0541 41.7904C71.4544 42.2813 71.7337 42.8594 71.8696 43.478C71.8024 42.7972 71.553 42.1472 71.1474 41.5962C70.7419 41.0453 70.1953 40.614 69.5653 40.3476L27.1957 16.2606C24.174 14.5215 21.674 15.9563 21.674 19.4345V19.7606C21.7392 16.2823 24.174 14.8476 27.1957 16.5649Z" fill="white"/>
<rect x="1" y="1" width="291.478" height="84.9565" rx="9" stroke="black" stroke-opacity="0.9" stroke-width="2"/>
<defs>
<linearGradient id="paint0_linear_10_507" x1="47.3913" y1="18.9349" x2="10.913" y2="55.4132" gradientUnits="userSpaceOnUse">
<stop stop-color="#00A0FF"/>
<stop offset="0.01" stop-color="#00A1FF"/>
<stop offset="0.26" stop-color="#00BEFF"/>
<stop offset="0.51" stop-color="#00D2FF"/>
<stop offset="0.76" stop-color="#00DFFF"/>
<stop offset="1" stop-color="#00E3FF"/>
</linearGradient>
<linearGradient id="paint1_linear_10_507" x1="73.5434" y1="43.4784" x2="20.9565" y2="43.4784" gradientUnits="userSpaceOnUse">
<stop stop-color="#FFE000"/>
<stop offset="0.41" stop-color="#FFBD00"/>
<stop offset="0.78" stop-color="#FFA500"/>
<stop offset="1" stop-color="#FF9C00"/>
</linearGradient>
<linearGradient id="paint2_linear_10_507" x1="53.9783" y1="48.4783" x2="4.50002" y2="97.9348" gradientUnits="userSpaceOnUse">
<stop stop-color="#FF3A44"/>
<stop offset="1" stop-color="#C31162"/>
</linearGradient>
<linearGradient id="paint3_linear_10_507" x1="15.8696" y1="0.391559" x2="37.9565" y2="22.4785" gradientUnits="userSpaceOnUse">
<stop stop-color="#32A071"/>
<stop offset="0.07" stop-color="#2DA771"/>
<stop offset="0.48" stop-color="#15CF74"/>
<stop offset="0.8" stop-color="#06E775"/>
<stop offset="1" stop-color="#00F076"/>
</linearGradient>
</defs>
</svg>
