<svg width="189" height="49" viewBox="0 0 189 49" fill="none" xmlns="http://www.w3.org/2000/svg">
<mask id="mask0_135_473" style="mask-type:luminance" maskUnits="userSpaceOnUse" x="0" y="0" width="50" height="49">
<path d="M49.5153 0.481445H0V48.0901H49.5153V0.481445Z" fill="white"/>
</mask>
<g mask="url(#mask0_135_473)">
<path d="M24.7576 14.2376C25.0785 14.0325 25.3703 13.8342 25.6739 13.6538C26.3217 13.269 27.0132 12.9611 27.734 12.7368C28.1958 12.594 28.6854 12.5421 29.1592 12.4292C29.9994 12.2269 30.8517 12.2995 31.6971 12.3306C32.1183 12.3639 32.5358 12.435 32.9444 12.5433C33.2806 12.6175 33.6119 12.7212 33.9429 12.8171C34.6621 13.0365 35.3478 13.3511 35.982 13.7524C37.0202 14.381 37.9282 15.1998 38.6573 16.1653C39.2204 16.8788 39.6653 17.6768 39.9753 18.5288C40.1668 19.0403 40.3282 19.5621 40.4584 20.0922C40.5843 20.617 40.6444 21.1557 40.6364 21.6955C40.6179 22.2027 40.6441 22.7138 40.6034 23.2183C40.5625 23.5918 40.4935 23.9616 40.3968 24.3248C40.3131 24.6779 40.2096 25.0279 40.0997 25.3758C39.9039 25.9397 39.6539 26.4841 39.3537 27.0011C38.7321 28.1387 37.8118 29.0262 36.9048 29.9252C35.6156 31.2017 34.3277 32.4794 33.0281 33.7455C31.4668 35.2542 29.6629 36.4947 27.6906 37.4166C26.9569 37.7566 26.2035 38.0532 25.4344 38.3053C24.7164 38.546 23.9836 38.7413 23.2407 38.8903C22.4953 39.0429 21.7406 39.1484 20.9817 39.2067C20.1873 39.2638 19.3942 39.3364 18.5983 39.2845C17.7202 39.2238 16.8381 39.1548 15.9677 39.0251C15.2741 38.9202 14.5933 38.7255 13.9089 38.5582C12.4101 38.178 10.9704 37.5979 9.62891 36.8341C7.83362 35.8405 6.21505 34.5606 4.83878 33.0464C3.89942 32.0113 3.07273 30.8806 2.3729 29.6734C1.81809 28.7198 1.3541 27.717 0.986788 26.6782C0.747251 26.0023 0.594229 25.2964 0.407033 24.6025C-0.0378662 22.9162 -0.0406356 21.2051 0.040647 19.4876C0.0806726 18.9502 0.157952 18.4162 0.272179 17.8892C0.403032 17.2407 0.51972 16.5999 0.706916 15.9734C0.96585 15.1104 1.29129 14.2687 1.68046 13.4555C2.19587 12.3746 2.80918 11.3425 3.51301 10.3718C4.2698 9.34338 5.11773 8.38394 6.04663 7.50507C7.02757 6.57279 8.08824 5.72657 9.21665 4.97648C10.2561 4.27216 11.3531 3.65542 12.4966 3.13329C13.4455 2.70514 14.4194 2.32491 15.3997 1.96573C16.0539 1.73228 16.7214 1.56993 17.3902 1.39874C17.9767 1.24951 18.5682 1.12256 19.1639 1.00965C19.6873 0.908336 20.2107 0.840897 20.7345 0.750264C22.7878 0.397494 24.8599 0.466154 26.9276 0.529628C27.5219 0.547938 28.1149 0.659321 28.7075 0.739885C29.0518 0.783828 29.396 0.8293 29.7377 0.887587C30.154 0.960216 30.5675 1.042 30.981 1.12897C31.4157 1.21991 31.8502 1.30932 32.2794 1.42101C32.7911 1.55071 33.3003 1.69963 33.8043 1.86075C34.2348 1.99808 34.6615 2.15127 35.0802 2.3185C35.7493 2.5846 36.422 2.84521 37.0723 3.15007C38.8362 3.98653 40.4981 5.0192 42.0262 6.22857C42.8153 6.85995 43.5619 7.54169 44.2618 8.26889C45.066 9.11725 45.8006 10.0285 46.4579 10.9931C47.0035 11.7948 47.4847 12.6376 47.8976 13.5137C48.2421 14.2159 48.5233 14.9471 48.7378 15.6984C48.8425 16.0875 48.9866 16.4766 49.0873 16.8657C49.1634 17.1565 49.1985 17.4574 49.2508 17.7531C49.3216 18.1553 49.3924 18.5587 49.4589 18.9609C49.4805 19.0668 49.4925 19.1745 49.4956 19.2826C49.4956 20.3528 49.5205 21.423 49.4891 22.492C49.4746 22.9601 49.3582 23.4273 49.2733 23.893C49.2286 24.1524 49.1815 24.4221 49.1227 24.6843C49.0297 25.0901 48.946 25.5003 48.8228 25.8985C48.692 26.3383 48.5152 26.7649 48.3558 27.1958C47.9755 28.1836 47.5069 29.1357 46.9552 30.0405C46.4592 30.8812 45.8585 31.6466 45.2787 32.4275C44.6777 33.2103 44.2017 34.08 43.8677 35.0065C43.6786 35.5167 43.5161 36.0361 43.3809 36.5631C43.2682 37.052 43.2408 37.5619 43.1688 38.0627C43.1013 38.5445 43.1013 39.0337 43.1688 39.5156C43.2343 39.9852 43.2787 40.4585 43.3652 40.923C43.424 41.2721 43.5167 41.6145 43.6426 41.9453C43.8757 42.5303 44.1374 43.1037 44.4108 43.6719C44.5641 43.9871 44.7812 44.2724 44.9437 44.58C45.1694 45.0152 45.2556 45.5084 45.191 45.9933C45.126 46.4785 44.9133 46.9323 44.581 47.2942C44.2488 47.6561 43.8129 47.9088 43.3316 48.0183C42.8507 48.1279 42.347 48.0891 41.8889 47.9073C41.3547 47.7077 40.8051 47.5453 40.2644 47.3573C39.1228 46.9585 38.0178 46.4623 36.9623 45.8746C35.8558 45.2764 34.825 44.5495 33.8921 43.7094C33.1864 43.0808 32.57 42.3603 32.0595 41.5678C31.6159 40.8583 31.7978 39.9956 32.4077 39.5818C33.2036 39.0395 34.0556 39.2794 34.5608 40.0072C35.1049 40.7887 35.7671 41.4826 36.5239 42.0646C37.5972 42.8952 38.7755 43.5831 40.0289 44.1104C40.5212 44.3191 41.0132 44.5254 41.5132 44.7357C41.6047 44.5916 41.5249 44.4867 41.4778 44.3881C41.1653 43.7293 40.9079 43.0466 40.7081 42.3463C40.128 40.4042 40.0381 38.3504 40.4464 36.366C40.5563 35.7648 40.7013 35.1703 40.8811 34.5859C41.2558 33.3985 41.8067 32.2725 42.5157 31.2456C42.9582 30.6139 43.4188 29.995 43.8729 29.3725C44.4348 28.6001 44.9111 27.7704 45.2944 26.8973C45.5854 26.229 45.8425 25.5467 46.0638 24.853C46.2104 24.4054 46.272 23.9305 46.3782 23.47C46.6399 22.3427 46.6544 21.1999 46.6045 20.0543C46.5691 19.5172 46.5007 18.9826 46.4004 18.4537C46.3286 18.0186 46.2313 17.588 46.1097 17.1641C45.9462 16.5986 45.7747 16.0317 45.5561 15.4842C45.0672 14.2821 44.4293 13.1454 43.6571 12.0996C42.8889 11.0541 42.0114 10.0919 41.0394 9.22894C39.9221 8.23471 38.7025 7.3595 37.4008 6.61765C36.382 6.03295 35.3185 5.5276 34.2206 5.10648C33.5282 4.83519 32.812 4.62371 32.0974 4.41101C31.4862 4.22944 30.8698 4.05946 30.2454 3.92702C29.6408 3.79732 29.0256 3.71554 28.4132 3.63406C27.8008 3.55228 27.2026 3.49521 26.6003 3.43815C26.2078 3.40427 25.8152 3.3939 25.4227 3.38749C24.9316 3.37834 24.4396 3.36155 23.95 3.38749C23.0929 3.43937 22.2357 3.51718 21.381 3.59775C20.9374 3.64047 20.4937 3.69754 20.0565 3.7781C19.5448 3.8727 19.038 3.99202 18.5343 4.11652C18.0303 4.24103 17.5029 4.37592 16.9988 4.5343C16.3104 4.75462 15.626 4.99082 14.9532 5.25296C14.0705 5.60115 13.2137 6.01098 12.3894 6.4788C11.5104 6.97439 10.6634 7.52399 9.85398 8.12486C8.80839 8.91066 7.84193 9.79472 6.96814 10.7648C6.34651 11.4331 5.79262 12.1603 5.31509 12.9364C4.94993 13.5385 4.60571 14.1558 4.29813 14.7875C4.06906 15.2819 3.87078 15.7897 3.7039 16.3078C3.52194 16.8437 3.35322 17.3872 3.2236 17.9374C3.12692 18.3536 3.12292 18.7922 3.03517 19.2124C2.88461 19.9414 2.93295 20.6756 2.92649 21.4099C2.93388 22.0782 3.01085 22.7437 3.15679 23.3962C3.25377 23.8695 3.33105 24.3483 3.46591 24.81C3.61954 25.344 3.80397 25.8692 4.01795 26.3822C4.3594 27.2003 4.77135 27.988 5.24981 28.7356C5.6162 29.3115 6.01523 29.8669 6.44473 30.3985C6.96106 31.039 7.53034 31.6362 8.14612 32.1837C9.406 33.3049 10.8321 34.2271 12.375 34.9183C13.1333 35.253 13.9135 35.5371 14.71 35.7691C15.1654 35.8987 15.6417 35.9573 16.1026 36.0715C17.0724 36.3101 18.0657 36.3516 19.0512 36.3592C19.8653 36.3592 20.6846 36.3736 21.4934 36.2115C21.865 36.1377 22.2474 36.1182 22.6178 36.0403C23.0615 35.9454 23.4999 35.8249 23.9343 35.6976C24.3691 35.5707 24.7995 35.4383 25.2235 35.2787C26.4914 34.8032 27.6955 34.1758 28.8098 33.4107C30.0807 32.5532 31.1525 31.4778 32.2258 30.4012C33.4561 29.1687 34.7021 27.952 35.9244 26.7118C36.471 26.1344 36.9029 25.4603 37.1979 24.7246C37.4451 24.1386 37.6083 23.5219 37.6837 22.8914C37.7638 22.3232 37.7524 21.7462 37.6496 21.1816C37.5775 20.769 37.4818 20.3604 37.3629 19.9585C37.0405 18.967 36.4903 18.0631 35.7557 17.3185C34.9275 16.4513 33.8841 15.8147 32.7298 15.4726C31.8951 15.2129 31.0167 15.1217 30.146 15.204C28.5345 15.3441 27.0234 16.0393 25.8753 17.1693C25.7327 17.3149 25.5618 17.4308 25.3734 17.5102C25.185 17.5895 24.9824 17.631 24.7776 17.6319C24.5726 17.6329 24.3697 17.5935 24.1803 17.5157C23.9913 17.4382 23.8195 17.324 23.6754 17.1797C22.9626 16.4827 22.1067 15.9456 21.1661 15.6053C20.2258 15.2648 19.2224 15.129 18.2239 15.2065C16.5493 15.3514 14.9831 16.0881 13.8107 17.2822C13.1216 17.9762 12.5899 18.8074 12.2506 19.7211C11.8802 20.6814 11.741 21.7141 11.8436 22.737C11.9572 23.8286 12.3229 24.8793 12.9129 25.8076C13.3827 26.5458 14.0188 27.1347 14.6327 27.7445C15.3002 28.4073 15.9625 29.0768 16.6469 29.7228C17.2307 30.274 17.1913 31.3146 16.7242 31.7983C16.4468 32.0824 16.0678 32.2468 15.6691 32.2566C15.2704 32.2661 14.884 32.1196 14.5933 31.8489C14.1241 31.3924 13.6589 30.9304 13.1983 30.4635C12.5031 29.7576 11.8057 29.0561 11.1302 28.3322C10.6052 27.7478 10.1788 27.0832 9.86722 26.3642C9.61722 25.8305 9.40754 25.2787 9.24036 24.7142C9.04392 24.0733 8.93709 23.409 8.92231 22.7398C8.92231 22.34 8.92231 21.9405 8.92231 21.5411C8.93801 20.9808 9.01622 20.4239 9.15507 19.8807C9.32934 19.1065 9.60151 18.357 9.96544 17.6505C10.5427 16.5135 11.3395 15.4998 12.3109 14.667C13.1158 13.9752 14.028 13.4161 15.012 13.0118C15.4883 12.8378 15.9733 12.6883 16.465 12.5641C17.5266 12.2516 18.6168 12.2723 19.703 12.3254C20.1578 12.3654 20.6085 12.4408 21.051 12.5513C21.3875 12.6227 21.7172 12.7289 22.0485 12.825C22.7881 13.0584 23.4925 13.3902 24.1425 13.8107C24.3429 13.9391 24.5403 14.0871 24.7576 14.2376Z" fill="#FF599B"/>
<path d="M24.7576 14.2376C25.0785 14.0325 25.3703 13.8342 25.6739 13.6538C26.3217 13.269 27.0132 12.9611 27.734 12.7368C28.1958 12.594 28.6854 12.5421 29.1592 12.4292C29.9994 12.2269 30.8517 12.2995 31.6971 12.3306C32.1183 12.3639 32.5358 12.435 32.9444 12.5433C33.2806 12.6175 33.6119 12.7212 33.9429 12.8171C34.6621 13.0365 35.3478 13.3511 35.982 13.7524C37.0202 14.381 37.9282 15.1998 38.6573 16.1653C39.2204 16.8788 39.6653 17.6768 39.9753 18.5288C40.1668 19.0403 40.3282 19.5621 40.4584 20.0922C40.5843 20.617 40.6444 21.1557 40.6364 21.6955C40.6179 22.2027 40.6441 22.7138 40.6034 23.2183C40.5625 23.5918 40.4935 23.9616 40.3968 24.3248C40.3131 24.6779 40.2096 25.0279 40.0997 25.3758C39.9039 25.9397 39.6539 26.4841 39.3537 27.0011C38.7321 28.1387 37.8118 29.0262 36.9048 29.9252C35.6156 31.2017 34.3277 32.4794 33.0281 33.7455C31.4668 35.2542 29.6629 36.4947 27.6906 37.4166C26.9569 37.7566 26.2035 38.0532 25.4344 38.3053C24.7164 38.546 23.9836 38.7413 23.2407 38.8903C22.4953 39.0429 21.7406 39.1484 20.9817 39.2067C20.1873 39.2638 19.3942 39.3364 18.5983 39.2845C17.7202 39.2238 16.8381 39.1548 15.9677 39.0251C15.2741 38.9202 14.5933 38.7255 13.9089 38.5582C12.4101 38.178 10.9704 37.5979 9.62891 36.8341C7.83362 35.8405 6.21505 34.5606 4.83878 33.0464C3.89942 32.0113 3.07273 30.8806 2.3729 29.6734C1.81809 28.7198 1.3541 27.717 0.986788 26.6782C0.747251 26.0023 0.594229 25.2964 0.407033 24.6025C-0.0378662 22.9162 -0.0406356 21.2051 0.040647 19.4876C0.0806726 18.9502 0.157952 18.4162 0.272179 17.8892C0.403032 17.2407 0.51972 16.5999 0.706916 15.9734C0.96585 15.1104 1.29129 14.2687 1.68046 13.4555C2.19587 12.3746 2.80918 11.3425 3.51301 10.3718C4.2698 9.34338 5.11773 8.38394 6.04663 7.50507C7.02757 6.57279 8.08824 5.72657 9.21665 4.97648C10.2561 4.27216 11.3531 3.65542 12.4966 3.13329C13.4455 2.70514 14.4194 2.32491 15.3997 1.96573C16.0539 1.73228 16.7214 1.56993 17.3902 1.39874C17.9767 1.24951 18.5682 1.12256 19.1639 1.00965C19.6873 0.908336 20.2107 0.840897 20.7345 0.750264C22.7878 0.397494 24.8599 0.466154 26.9276 0.529628C27.5219 0.547938 28.1149 0.659321 28.7075 0.739885C29.0518 0.783828 29.396 0.8293 29.7377 0.887587C30.154 0.960216 30.5675 1.042 30.981 1.12897C31.4157 1.21991 31.8502 1.30932 32.2794 1.42101C32.7911 1.55071 33.3003 1.69963 33.8043 1.86075C34.2348 1.99808 34.6615 2.15127 35.0802 2.3185C35.7493 2.5846 36.422 2.84521 37.0723 3.15007C38.8362 3.98653 40.4981 5.0192 42.0262 6.22857C42.8153 6.85995 43.5619 7.54169 44.2618 8.26889C45.066 9.11725 45.8006 10.0285 46.4579 10.9931C47.0035 11.7948 47.4847 12.6376 47.8976 13.5137C48.2421 14.2159 48.5233 14.9471 48.7378 15.6984C48.8425 16.0875 48.9866 16.4766 49.0873 16.8657C49.1634 17.1565 49.1985 17.4574 49.2508 17.7531C49.3216 18.1553 49.3924 18.5587 49.4589 18.9609C49.4805 19.0668 49.4925 19.1745 49.4956 19.2826C49.4956 20.3528 49.5205 21.423 49.4891 22.492C49.4746 22.9601 49.3582 23.4273 49.2733 23.893C49.2286 24.1524 49.1815 24.4221 49.1227 24.6843C49.0297 25.0901 48.946 25.5003 48.8228 25.8985C48.692 26.3383 48.5152 26.7649 48.3558 27.1958C47.9755 28.1836 47.5069 29.1357 46.9552 30.0405C46.4592 30.8812 45.8585 31.6466 45.2787 32.4275C44.6777 33.2103 44.2017 34.08 43.8677 35.0065C43.6786 35.5167 43.5161 36.0361 43.3809 36.5631C43.2682 37.052 43.2408 37.5619 43.1688 38.0627C43.1013 38.5445 43.1013 39.0337 43.1688 39.5156C43.2343 39.9852 43.2787 40.4585 43.3652 40.923C43.424 41.2721 43.5167 41.6145 43.6426 41.9453C43.8757 42.5303 44.1374 43.1037 44.4108 43.6719C44.5641 43.9871 44.7812 44.2724 44.9437 44.58C45.1694 45.0152 45.2556 45.5084 45.191 45.9933C45.126 46.4785 44.9133 46.9323 44.581 47.2942C44.2488 47.6561 43.8129 47.9088 43.3316 48.0183C42.8507 48.1279 42.347 48.0891 41.8889 47.9073C41.3547 47.7077 40.8051 47.5453 40.2644 47.3573C39.1228 46.9585 38.0178 46.4623 36.9623 45.8746C35.8558 45.2764 34.825 44.5495 33.8921 43.7094C33.1864 43.0808 32.57 42.3603 32.0595 41.5678C31.6159 40.8583 31.7978 39.9956 32.4077 39.5818C33.2036 39.0395 34.0556 39.2794 34.5608 40.0072C35.1049 40.7887 35.7671 41.4826 36.5239 42.0646C37.5972 42.8952 38.7755 43.5831 40.0289 44.1104C40.5212 44.3191 41.0132 44.5254 41.5132 44.7357C41.6047 44.5916 41.5249 44.4867 41.4778 44.3881C41.1653 43.7293 40.9079 43.0466 40.7081 42.3463C40.128 40.4042 40.0381 38.3504 40.4464 36.366C40.5563 35.7648 40.7013 35.1703 40.8811 34.5859C41.2558 33.3985 41.8067 32.2725 42.5157 31.2456C42.9582 30.6139 43.4188 29.995 43.8729 29.3725C44.4348 28.6001 44.9111 27.7704 45.2944 26.8973C45.5854 26.229 45.8425 25.5467 46.0638 24.853C46.2104 24.4054 46.272 23.9305 46.3782 23.47C46.6399 22.3427 46.6544 21.1999 46.6045 20.0543C46.5691 19.5172 46.5007 18.9826 46.4004 18.4537C46.3286 18.0186 46.2313 17.588 46.1097 17.1641C45.9462 16.5986 45.7747 16.0317 45.5561 15.4842C45.0672 14.2821 44.4293 13.1454 43.6571 12.0996C42.8889 11.0541 42.0114 10.0919 41.0394 9.22894C39.9221 8.23471 38.7025 7.3595 37.4008 6.61765C36.382 6.03295 35.3185 5.5276 34.2206 5.10648C33.5282 4.83519 32.812 4.62371 32.0974 4.41101C31.4862 4.22944 30.8698 4.05946 30.2454 3.92702C29.6408 3.79732 29.0256 3.71554 28.4132 3.63406C27.8008 3.55228 27.2026 3.49521 26.6003 3.43815C26.2078 3.40427 25.8152 3.3939 25.4227 3.38749C24.9316 3.37834 24.4396 3.36155 23.95 3.38749C23.0929 3.43937 22.2357 3.51718 21.381 3.59775C20.9374 3.64047 20.4937 3.69754 20.0565 3.7781C19.5448 3.8727 19.038 3.99202 18.5343 4.11652C18.0303 4.24103 17.5029 4.37592 16.9988 4.5343C16.3104 4.75462 15.626 4.99082 14.9532 5.25296C14.0705 5.60115 13.2137 6.01098 12.3894 6.4788C11.5104 6.97439 10.6634 7.52399 9.85398 8.12486C8.80839 8.91066 7.84193 9.79472 6.96814 10.7648C6.34651 11.4331 5.79262 12.1603 5.31509 12.9364C4.94993 13.5385 4.60571 14.1558 4.29813 14.7875C4.06906 15.2819 3.87078 15.7897 3.7039 16.3078C3.52194 16.8437 3.35322 17.3872 3.2236 17.9374C3.12692 18.3536 3.12292 18.7922 3.03517 19.2124C2.88461 19.9414 2.93295 20.6756 2.92649 21.4099C2.93388 22.0782 3.01085 22.7437 3.15679 23.3962C3.25377 23.8695 3.33105 24.3483 3.46591 24.81C3.61954 25.344 3.80397 25.8692 4.01795 26.3822C4.3594 27.2003 4.77135 27.988 5.24981 28.7356C5.6162 29.3115 6.01523 29.8669 6.44473 30.3985C6.96106 31.039 7.53034 31.6362 8.14612 32.1837C9.406 33.3049 10.8321 34.2271 12.375 34.9183C13.1333 35.253 13.9135 35.5371 14.71 35.7691C15.1654 35.8987 15.6417 35.9573 16.1026 36.0715C17.0724 36.3101 18.0657 36.3516 19.0512 36.3592C19.8653 36.3592 20.6846 36.3736 21.4934 36.2115C21.865 36.1377 22.2474 36.1182 22.6178 36.0403C23.0615 35.9454 23.4999 35.8249 23.9343 35.6976C24.3691 35.5707 24.7995 35.4383 25.2235 35.2787C26.4914 34.8032 27.6955 34.1758 28.8098 33.4107C30.0807 32.5532 31.1525 31.4778 32.2258 30.4012C33.4561 29.1687 34.7021 27.952 35.9244 26.7118C36.471 26.1344 36.9029 25.4603 37.1979 24.7246C37.4451 24.1386 37.6083 23.5219 37.6837 22.8914C37.7638 22.3232 37.7524 21.7462 37.6496 21.1816C37.5775 20.769 37.4818 20.3604 37.3629 19.9585C37.0405 18.967 36.4903 18.0631 35.7557 17.3185C34.9275 16.4513 33.8841 15.8147 32.7298 15.4726C31.8951 15.2129 31.0167 15.1217 30.146 15.204C28.5345 15.3441 27.0234 16.0393 25.8753 17.1693C25.7327 17.3149 25.5618 17.4308 25.3734 17.5102C25.185 17.5895 24.9824 17.631 24.7776 17.6319C24.5726 17.6329 24.3697 17.5935 24.1803 17.5157C23.9913 17.4382 23.8195 17.324 23.6754 17.1797C22.9626 16.4827 22.1067 15.9456 21.1661 15.6053C20.2258 15.2648 19.2224 15.129 18.2239 15.2065C16.5493 15.3514 14.9831 16.0881 13.8107 17.2822C13.1216 17.9762 12.5899 18.8074 12.2506 19.7211C11.8802 20.6814 11.741 21.7141 11.8436 22.737C11.9572 23.8286 12.3229 24.8793 12.9129 25.8076C13.3827 26.5458 14.0188 27.1347 14.6327 27.7445C15.3002 28.4073 15.9625 29.0768 16.6469 29.7228C17.2307 30.274 17.1913 31.3146 16.7242 31.7983C16.4468 32.0824 16.0678 32.2468 15.6691 32.2566C15.2704 32.2661 14.884 32.1196 14.5933 31.8489C14.1241 31.3924 13.6589 30.9304 13.1983 30.4635C12.5031 29.7576 11.8057 29.0561 11.1302 28.3322C10.6052 27.7478 10.1788 27.0832 9.86722 26.3642C9.61722 25.8305 9.40754 25.2787 9.24036 24.7142C9.04392 24.0733 8.93709 23.409 8.92231 22.7398C8.92231 22.34 8.92231 21.9405 8.92231 21.5411C8.93801 20.9808 9.01622 20.4239 9.15507 19.8807C9.32934 19.1065 9.60151 18.357 9.96544 17.6505C10.5427 16.5135 11.3395 15.4998 12.3109 14.667C13.1158 13.9752 14.028 13.4161 15.012 13.0118C15.4883 12.8378 15.9733 12.6883 16.465 12.5641C17.5266 12.2516 18.6168 12.2723 19.703 12.3254C20.1578 12.3654 20.6085 12.4408 21.051 12.5513C21.3875 12.6227 21.7172 12.7289 22.0485 12.825C22.7881 13.0584 23.4925 13.3902 24.1425 13.8107C24.3429 13.9391 24.5403 14.0871 24.7576 14.2376Z" fill="white"/>
<path d="M24.8245 30.8887C23.8288 30.896 22.8469 30.6574 21.9673 30.1948C21.1945 29.7895 20.4811 29.2814 19.8471 28.6848C19.1298 28.0428 19.2437 26.7092 20.1821 26.2954C20.4158 26.18 20.676 26.1281 20.9368 26.1449C21.1972 26.1617 21.4485 26.2469 21.6649 26.3912C21.841 26.5139 22.0073 26.6497 22.1625 26.7974C22.6637 27.2689 23.2626 27.6259 23.9174 27.8441C24.3297 27.9839 24.7709 28.0186 25.2001 27.9454C26.1164 27.7678 26.8387 27.2707 27.5231 26.6897C27.637 26.5911 27.7497 26.4898 27.8701 26.3991C28.4853 25.9386 29.662 26.1123 30.0272 26.9426C30.2821 27.5224 30.1697 28.2579 29.7039 28.6848C28.904 29.4139 28.0364 30.0419 27.0271 30.4477C26.3328 30.748 25.5819 30.8985 24.8245 30.8887Z" fill="white"/>
<path d="M19.7763 20.2112C20.9765 20.1733 21.7551 21.1489 21.7656 22.1712C21.7524 22.6848 21.5371 23.1731 21.1658 23.5317C20.7945 23.8905 20.2967 24.091 19.7782 24.091C19.2597 24.091 18.7618 23.8905 18.3905 23.5317C18.0192 23.1731 17.804 22.6848 17.7908 22.1712C17.7791 21.1294 18.6769 20.1449 19.7763 20.2112Z" fill="white"/>
<path d="M29.7873 20.2124C30.7886 20.1398 31.76 21.0803 31.7507 22.1582C31.7427 22.6727 31.5324 23.1634 31.1642 23.5262C30.796 23.8887 30.2993 24.0941 29.7805 24.0987C29.2614 24.1033 28.7614 23.9068 28.3867 23.5506C28.012 23.1945 27.7928 22.7075 27.7759 22.1933C27.7642 21.1749 28.5952 20.1566 29.7873 20.2124Z" fill="white"/>
</g>
<path d="M56.8362 35.7682V14.9487C56.8362 13.3341 57.4012 11.967 58.5309 10.8473C59.687 9.70143 61.0793 9.12863 62.7083 9.12863C63.9694 9.12863 65.099 9.4933 66.0975 10.2223C67.1222 10.9254 67.8316 11.8498 68.2257 12.9957L72.9154 26.1592C73.2569 27.1748 73.4933 28.0473 73.6248 28.7763L73.8218 29.87H74.0583L74.2553 28.7763C74.518 27.7348 74.7677 26.8623 75.0041 26.1592L79.6939 12.8394C80.0618 11.7457 80.7318 10.8604 81.7038 10.1833C82.7023 9.48018 83.8057 9.12863 85.0142 9.12863C86.538 9.12863 87.8517 9.67549 88.9552 10.7692C90.0587 11.837 90.6104 13.1388 90.6104 14.6753V35.612C90.6104 36.6016 90.2425 37.461 89.5069 38.19C88.7975 38.8931 87.9305 39.2446 86.9059 39.2446C85.9074 39.2446 85.0404 38.8931 84.3048 38.19C83.5955 37.461 83.2408 36.6016 83.2408 35.612V19.0111H83.0043L82.689 20.6126C82.4787 21.6281 82.1505 22.7869 81.7038 24.089L77.2899 36.6276C77.0273 37.3828 76.5544 38.0078 75.8712 38.5025C75.1879 38.9972 74.4262 39.2446 73.5854 39.2446C72.7445 39.2446 71.9828 38.9972 71.2996 38.5025C70.6164 38.0078 70.1435 37.3828 69.8809 36.6276L65.4276 24.089C65.0073 22.839 64.6788 21.6803 64.4423 20.6126C64.2847 19.8835 64.1797 19.3495 64.127 19.0111H63.8906V35.7682C63.8906 36.7316 63.5491 37.5519 62.8659 38.2291C62.1827 38.9062 61.3551 39.2446 60.3831 39.2446C59.4111 39.2446 58.5703 38.9062 57.8609 38.2291C57.1777 37.5519 56.8362 36.7316 56.8362 35.7682ZM95.9242 31.159V20.9641C95.9242 19.9745 96.2789 19.1282 96.9883 18.4251C97.7239 17.6961 98.5909 17.3314 99.5894 17.3314C100.588 17.3314 101.442 17.6961 102.151 18.4251C102.887 19.1282 103.254 19.9745 103.254 20.9641V30.0263C103.254 31.4846 103.544 32.513 104.121 33.1121C104.726 33.6849 105.409 33.9714 106.171 33.9714C107.195 33.9714 108.01 33.5677 108.614 32.7605C109.219 31.9534 109.521 30.7815 109.521 29.245V20.9641C109.521 19.9745 109.875 19.1282 110.585 18.4251C111.32 17.6961 112.187 17.3314 113.186 17.3314C114.184 17.3314 115.038 17.6961 115.747 18.4251C116.483 19.1282 116.851 19.9745 116.851 20.9641V35.8854C116.851 36.7969 116.509 37.591 115.826 38.2681C115.169 38.919 114.368 39.2446 113.422 39.2446C112.503 39.2446 111.701 38.919 111.018 38.2681C110.361 37.591 110.033 36.7969 110.033 35.8854V35.0651C108.693 37.9816 106.512 39.44 103.491 39.44C98.4465 39.44 95.9242 36.6798 95.9242 31.159ZM119.738 20.0266C119.738 19.3757 119.974 18.8158 120.447 18.347C120.92 17.8783 121.485 17.6439 122.142 17.6439H123.245V16.9799C123.245 14.0372 123.941 11.8629 125.334 10.4567C126.726 9.02457 128.999 8.30835 132.152 8.30835C134.464 8.30835 135.62 9.21988 135.62 11.0426C135.62 11.8238 135.423 12.501 135.029 13.0738C134.634 13.6466 134.083 13.9331 133.373 13.9331C132.349 13.9331 131.626 14.1416 131.206 14.5581C130.786 14.9487 130.575 15.6778 130.575 16.7455V17.6439H132.743C133.4 17.6439 133.965 17.8783 134.437 18.347C134.91 18.8158 135.147 19.3757 135.147 20.0266C135.147 20.7038 134.91 21.2766 134.437 21.7453C133.965 22.2141 133.4 22.4484 132.743 22.4484H130.575V35.612C130.575 36.6016 130.207 37.461 129.472 38.19C128.762 38.8931 127.909 39.2446 126.91 39.2446C125.912 39.2446 125.045 38.8931 124.309 38.19C123.6 37.461 123.245 36.6016 123.245 35.612V22.4484H122.142C121.485 22.4484 120.92 22.2141 120.447 21.7453C119.974 21.2766 119.738 20.7038 119.738 20.0266ZM136.017 20.0266C136.017 19.3757 136.254 18.8158 136.727 18.347C137.199 17.8783 137.764 17.6439 138.421 17.6439H139.525V16.9799C139.525 14.0372 140.221 11.8629 141.613 10.4567C143.006 9.02457 145.278 8.30835 148.431 8.30835C150.743 8.30835 151.899 9.21988 151.899 11.0426C151.899 11.8238 151.702 12.501 151.308 13.0738C150.914 13.6466 150.362 13.9331 149.653 13.9331C148.628 13.9331 147.906 14.1416 147.485 14.5581C147.065 14.9487 146.855 15.6778 146.855 16.7455V17.6439H149.022C149.679 17.6439 150.244 17.8783 150.717 18.347C151.19 18.8158 151.426 19.3757 151.426 20.0266C151.426 20.7038 151.19 21.2766 150.717 21.7453C150.244 22.2141 149.679 22.4484 149.022 22.4484H146.855V35.612C146.855 36.6016 146.487 37.461 145.751 38.19C145.042 38.8931 144.188 39.2446 143.19 39.2446C142.191 39.2446 141.324 38.8931 140.589 38.19C139.879 37.461 139.525 36.6016 139.525 35.612V22.4484H138.421C137.764 22.4484 137.199 22.2141 136.727 21.7453C136.254 21.2766 136.017 20.7038 136.017 20.0266ZM155.134 13.7378C154.53 13.1388 154.228 12.4229 154.228 11.5895C154.228 10.7561 154.53 10.0402 155.134 9.44112C155.739 8.84208 156.461 8.54272 157.302 8.54272H159.115C159.956 8.54272 160.678 8.84208 161.282 9.44112C161.887 10.0402 162.189 10.7561 162.189 11.5895C162.189 12.4229 161.887 13.1388 161.282 13.7378C160.678 14.3369 159.956 14.6362 159.115 14.6362H157.302C156.461 14.6362 155.739 14.3369 155.134 13.7378ZM154.543 35.612V20.9641C154.543 19.9745 154.898 19.1282 155.607 18.4251C156.343 17.6961 157.21 17.3314 158.208 17.3314C159.207 17.3314 160.061 17.6961 160.77 18.4251C161.505 19.1282 161.873 19.9745 161.873 20.9641V35.612C161.873 36.6016 161.505 37.461 160.77 38.19C160.061 38.8931 159.207 39.2446 158.208 39.2446C157.21 39.2446 156.343 38.8931 155.607 38.19C154.898 37.461 154.543 36.6016 154.543 35.612ZM167.013 35.612V20.6907C167.013 19.7792 167.341 18.9979 167.998 18.347C168.681 17.6699 169.482 17.3314 170.402 17.3314C171.348 17.3314 172.149 17.6699 172.806 18.347C173.489 18.9979 173.831 19.7792 173.831 20.6907V21.2375C174.435 20.0657 175.315 19.1023 176.471 18.347C177.627 17.5917 179.059 17.2143 180.767 17.2143C185.811 17.2143 188.333 19.9745 188.333 25.4952V35.612C188.333 36.6016 187.965 37.461 187.23 38.19C186.52 38.8931 185.667 39.2446 184.668 39.2446C183.67 39.2446 182.803 38.8931 182.067 38.19C181.358 37.461 181.003 36.6016 181.003 35.612V26.628C181.003 25.1696 180.688 24.154 180.057 23.5812C179.427 23.0084 178.704 22.7219 177.89 22.7219C175.525 22.7219 174.343 24.3234 174.343 27.5264V35.612C174.343 36.6016 173.975 37.461 173.239 38.19C172.53 38.8931 171.676 39.2446 170.678 39.2446C169.679 39.2446 168.812 38.8931 168.077 38.19C167.367 37.461 167.013 36.6016 167.013 35.612Z" fill="white"/>
</svg>
