<svg width="189" height="51" viewBox="0 0 189 51" fill="none" xmlns="http://www.w3.org/2000/svg">
<g clip-path="url(#clip0_4_782)">
<mask id="mask0_4_782" style="mask-type:luminance" maskUnits="userSpaceOnUse" x="0" y="1" width="50" height="49">
<path d="M49.5153 1.98148H0V49.5901H49.5153V1.98148Z" fill="white"/>
</mask>
<g mask="url(#mask0_4_782)">
<path d="M24.7576 15.7376C25.0785 15.5325 25.3703 15.3342 25.6739 15.1538C26.3217 14.769 27.0132 14.4611 27.734 14.2368C28.1958 14.094 28.6854 14.0421 29.1592 13.9292C29.9994 13.7269 30.8517 13.7995 31.6971 13.8306C32.1183 13.8639 32.5358 13.935 32.9444 14.0433C33.2806 14.1175 33.6119 14.2212 33.9429 14.317C34.6621 14.5365 35.3478 14.8511 35.982 15.2524C37.0202 15.881 37.9282 16.6998 38.6573 17.6653C39.2204 18.3788 39.6653 19.1768 39.9753 20.0288C40.1668 20.5403 40.3282 21.0621 40.4584 21.5922C40.5843 22.117 40.6444 22.6556 40.6364 23.1955C40.6179 23.7027 40.6441 24.2138 40.6034 24.7183C40.5625 25.0918 40.4935 25.4616 40.3968 25.8248C40.3131 26.1779 40.2096 26.5279 40.0997 26.8758C39.9039 27.4397 39.6539 27.9841 39.3537 28.5011C38.7321 29.6387 37.8118 30.5261 36.9048 31.4252C35.6156 32.7017 34.3277 33.9794 33.0281 35.2455C31.4668 36.7542 29.6629 37.9947 27.6906 38.9166C26.9569 39.2566 26.2035 39.5532 25.4344 39.8053C24.7164 40.046 23.9836 40.2413 23.2407 40.3903C22.4953 40.5428 21.7406 40.6484 20.9817 40.7067C20.1873 40.7638 19.3942 40.8364 18.5983 40.7845C17.7202 40.7238 16.8381 40.6548 15.9677 40.5251C15.2741 40.4202 14.5933 40.2255 13.9089 40.0582C12.4101 39.678 10.9704 39.0979 9.62891 38.3341C7.83362 37.3404 6.21505 36.0606 4.83878 34.5464C3.89942 33.5113 3.07273 32.3806 2.3729 31.1734C1.81809 30.2198 1.3541 29.217 0.986788 28.1782C0.747251 27.5023 0.594229 26.7964 0.407033 26.1025C-0.0378662 24.4161 -0.0406356 22.7051 0.040647 20.9876C0.0806726 20.4502 0.157952 19.9162 0.272179 19.3892C0.403032 18.7407 0.51972 18.0999 0.706916 17.4734C0.96585 16.6104 1.29129 15.7687 1.68046 14.9555C2.19587 13.8746 2.80918 12.8425 3.51301 11.8718C4.2698 10.8434 5.11773 9.88393 6.04663 9.00506C7.02757 8.07278 8.08824 7.22656 9.21665 6.47647C10.2561 5.77215 11.3531 5.15541 12.4966 4.63328C13.4455 4.20513 14.4194 3.8249 15.3997 3.46572C16.0539 3.23227 16.7214 3.06992 17.3902 2.89873C17.9767 2.7495 18.5682 2.62255 19.1639 2.50964C19.6873 2.40832 20.2107 2.34089 20.7345 2.25025C22.7878 1.89748 24.8599 1.96614 26.9276 2.02962C27.5219 2.04793 28.1149 2.15931 28.7075 2.23987C29.0518 2.28382 29.396 2.32929 29.7377 2.38758C30.154 2.4602 30.5675 2.54199 30.981 2.62896C31.4157 2.7199 31.8502 2.80931 32.2794 2.921C32.7911 3.0507 33.3003 3.19962 33.8043 3.36074C34.2348 3.49807 34.6615 3.65126 35.0802 3.81849C35.7493 4.08459 36.422 4.3452 37.0723 4.65006C38.8362 5.48652 40.4981 6.51919 42.0262 7.72856C42.8153 8.35994 43.5619 9.04168 44.2618 9.76888C45.066 10.6172 45.8006 11.5285 46.4579 12.4931C47.0035 13.2947 47.4847 14.1376 47.8976 15.0137C48.2421 15.7159 48.5233 16.4471 48.7378 17.1984C48.8425 17.5875 48.9866 17.9766 49.0873 18.3657C49.1634 18.6565 49.1985 18.9574 49.2508 19.2531C49.3216 19.6553 49.3924 20.0587 49.4589 20.4609C49.4805 20.5668 49.4925 20.6745 49.4956 20.7826C49.4956 21.8528 49.5205 22.923 49.4891 23.992C49.4746 24.4601 49.3582 24.9273 49.2733 25.393C49.2286 25.6524 49.1815 25.9221 49.1227 26.1843C49.0297 26.5901 48.946 27.0003 48.8228 27.3985C48.692 27.8383 48.5152 28.2649 48.3558 28.6958C47.9755 29.6836 47.5069 30.6357 46.9552 31.5405C46.4592 32.3812 45.8585 33.1466 45.2787 33.9275C44.6777 34.7102 44.2017 35.58 43.8677 36.5064C43.6786 37.0167 43.5161 37.5361 43.3809 38.0631C43.2682 38.5519 43.2408 39.0619 43.1688 39.5627C43.1013 40.0445 43.1013 40.5337 43.1688 41.0155C43.2343 41.4852 43.2787 41.9585 43.3652 42.423C43.424 42.7721 43.5167 43.1145 43.6426 43.4453C43.8757 44.0303 44.1374 44.6037 44.4108 45.1719C44.5641 45.4871 44.7812 45.7724 44.9437 46.08C45.1694 46.5152 45.2556 47.0084 45.191 47.4933C45.126 47.9785 44.9133 48.4322 44.581 48.7942C44.2488 49.1561 43.8129 49.4088 43.3316 49.5183C42.8507 49.6279 42.347 49.5891 41.8889 49.4072C41.3547 49.2077 40.8051 49.0453 40.2644 48.8573C39.1228 48.4585 38.0178 47.9623 36.9623 47.3745C35.8558 46.7764 34.825 46.0495 33.8921 45.2094C33.1864 44.5808 32.57 43.8603 32.0595 43.0678C31.6159 42.3583 31.7978 41.4956 32.4077 41.0818C33.2036 40.5395 34.0556 40.7793 34.5608 41.5072C35.1049 42.2887 35.7671 42.9826 36.5239 43.5646C37.5972 44.3952 38.7755 45.0831 40.0289 45.6104C40.5212 45.8191 41.0132 46.0254 41.5132 46.2357C41.6047 46.0916 41.5249 45.9867 41.4778 45.8881C41.1653 45.2292 40.9079 44.5466 40.7081 43.8462C40.128 41.9042 40.0381 39.8504 40.4464 37.8659C40.5563 37.2648 40.7013 36.6703 40.8811 36.0859C41.2558 34.8985 41.8067 33.7725 42.5157 32.7456C42.9582 32.1139 43.4188 31.495 43.8729 30.8725C44.4348 30.1001 44.9111 29.2704 45.2944 28.3973C45.5854 27.729 45.8425 27.0467 46.0638 26.353C46.2104 25.9053 46.272 25.4305 46.3782 24.97C46.6399 23.8427 46.6544 22.6999 46.6045 21.5543C46.5691 21.0172 46.5007 20.4826 46.4004 19.9537C46.3286 19.5186 46.2313 19.088 46.1097 18.6641C45.9462 18.0986 45.7747 17.5316 45.5561 16.9842C45.0672 15.7821 44.4293 14.6454 43.6571 13.5996C42.8889 12.5541 42.0114 11.5919 41.0394 10.7289C39.9221 9.7347 38.7025 8.85949 37.4008 8.11764C36.382 7.53294 35.3185 7.02759 34.2206 6.60647C33.5282 6.33518 32.812 6.1237 32.0974 5.911C31.4862 5.72943 30.8698 5.55945 30.2454 5.42701C29.6408 5.29731 29.0256 5.21553 28.4132 5.13405C27.8008 5.05227 27.2026 4.9952 26.6003 4.93814C26.2078 4.90426 25.8152 4.89389 25.4227 4.88748C24.9316 4.87832 24.4396 4.86154 23.95 4.88748C23.0929 4.93936 22.2357 5.01717 21.381 5.09774C20.9374 5.14046 20.4937 5.19753 20.0565 5.27809C19.5448 5.37269 19.038 5.49201 18.5343 5.61651C18.0303 5.74102 17.5029 5.8759 16.9988 6.03428C16.3104 6.25461 15.626 6.49081 14.9532 6.75294C14.0705 7.10114 13.2137 7.51097 12.3894 7.97879C11.5104 8.47437 10.6634 9.02398 9.85398 9.62485C8.80839 10.4106 7.84193 11.2947 6.96814 12.2648C6.34651 12.9331 5.79262 13.6603 5.31509 14.4364C4.94993 15.0385 4.60571 15.6558 4.29813 16.2875C4.06906 16.7819 3.87078 17.2896 3.7039 17.8078C3.52194 18.3437 3.35322 18.8872 3.2236 19.4374C3.12692 19.8536 3.12292 20.2922 3.03517 20.7124C2.88461 21.4414 2.93295 22.1756 2.92649 22.9098C2.93388 23.5782 3.01085 24.2437 3.15679 24.8962C3.25377 25.3695 3.33105 25.8483 3.46591 26.31C3.61954 26.844 3.80397 27.3692 4.01795 27.8822C4.3594 28.7003 4.77135 29.488 5.24981 30.2356C5.6162 30.8115 6.01523 31.3669 6.44473 31.8985C6.96106 32.539 7.53034 33.1362 8.14612 33.6837C9.406 34.8048 10.8321 35.7271 12.375 36.4182C13.1333 36.753 13.9135 37.0371 14.71 37.269C15.1654 37.3987 15.6417 37.4573 16.1026 37.5715C17.0724 37.8101 18.0657 37.8516 19.0512 37.8592C19.8653 37.8592 20.6846 37.8736 21.4934 37.7115C21.865 37.6377 22.2474 37.6182 22.6178 37.5403C23.0615 37.4454 23.4999 37.3249 23.9343 37.1976C24.3691 37.0707 24.7995 36.9382 25.2235 36.7786C26.4914 36.3032 27.6955 35.6758 28.8098 34.9107C30.0807 34.0532 31.1525 32.9778 32.2258 31.9012C33.4561 30.6686 34.7021 29.452 35.9244 28.2118C36.471 27.6344 36.9029 26.9603 37.1979 26.2245C37.4451 25.6386 37.6083 25.0219 37.6837 24.3914C37.7638 23.8232 37.7524 23.2461 37.6496 22.6816C37.5775 22.269 37.4818 21.8604 37.3629 21.4585C37.0405 20.467 36.4903 19.5631 35.7557 18.8185C34.9275 17.9512 33.8841 17.3147 32.7298 16.9726C31.8951 16.7129 31.0167 16.6216 30.146 16.704C28.5345 16.8441 27.0234 17.5393 25.8753 18.6693C25.7327 18.8149 25.5618 18.9308 25.3734 19.0102C25.185 19.0895 24.9824 19.131 24.7776 19.1319C24.5726 19.1328 24.3697 19.0935 24.1803 19.0157C23.9913 18.9381 23.8195 18.824 23.6754 18.6797C22.9626 17.9827 22.1067 17.4456 21.1661 17.1053C20.2258 16.7648 19.2224 16.629 18.2239 16.7065C16.5493 16.8514 14.9831 17.5881 13.8107 18.7822C13.1216 19.4761 12.5899 20.3074 12.2506 21.2211C11.8802 22.1814 11.741 23.2141 11.8436 24.237C11.9572 25.3286 12.3229 26.3793 12.9129 27.3076C13.3827 28.0458 14.0188 28.6347 14.6327 29.2445C15.3002 29.9073 15.9625 30.5768 16.6469 31.2228C17.2307 31.774 17.1913 32.8146 16.7242 33.2983C16.4468 33.5824 16.0678 33.7468 15.6691 33.7566C15.2704 33.7661 14.884 33.6196 14.5933 33.3489C14.1241 32.8924 13.6589 32.4304 13.1983 31.9635C12.5031 31.2576 11.8057 30.556 11.1302 29.8322C10.6052 29.2478 10.1788 28.5832 9.86722 27.8642C9.61722 27.3305 9.40754 26.7787 9.24036 26.2142C9.04392 25.5733 8.93709 24.909 8.92231 24.2398C8.92231 23.84 8.92231 23.4405 8.92231 23.0411C8.93801 22.4808 9.01622 21.9239 9.15507 21.3807C9.32934 20.6065 9.60151 19.857 9.96544 19.1505C10.5427 18.0135 11.3395 16.9997 12.3109 16.1669C13.1158 15.4751 14.028 14.9161 15.012 14.5117C15.4883 14.3378 15.9733 14.1883 16.465 14.0641C17.5266 13.7516 18.6168 13.7723 19.703 13.8254C20.1578 13.8654 20.6085 13.9408 21.051 14.0512C21.3875 14.1227 21.7172 14.2289 22.0485 14.325C22.7881 14.5584 23.4925 14.8901 24.1425 15.3107C24.3429 15.4391 24.5403 15.5871 24.7576 15.7376Z" fill="#FF599B"/>
<path d="M24.7576 15.7376C25.0785 15.5325 25.3703 15.3342 25.6739 15.1538C26.3217 14.769 27.0132 14.4611 27.734 14.2368C28.1958 14.094 28.6854 14.0421 29.1592 13.9292C29.9994 13.7269 30.8517 13.7995 31.6971 13.8306C32.1183 13.8639 32.5358 13.935 32.9444 14.0433C33.2806 14.1175 33.6119 14.2212 33.9429 14.317C34.6621 14.5365 35.3478 14.8511 35.982 15.2524C37.0202 15.881 37.9282 16.6998 38.6573 17.6653C39.2204 18.3788 39.6653 19.1768 39.9753 20.0288C40.1668 20.5403 40.3282 21.0621 40.4584 21.5922C40.5843 22.117 40.6444 22.6556 40.6364 23.1955C40.6179 23.7027 40.6441 24.2138 40.6034 24.7183C40.5625 25.0918 40.4935 25.4616 40.3968 25.8248C40.3131 26.1779 40.2096 26.5279 40.0997 26.8758C39.9039 27.4397 39.6539 27.9841 39.3537 28.5011C38.7321 29.6387 37.8118 30.5261 36.9048 31.4252C35.6156 32.7017 34.3277 33.9794 33.0281 35.2455C31.4668 36.7542 29.6629 37.9947 27.6906 38.9166C26.9569 39.2566 26.2035 39.5532 25.4344 39.8053C24.7164 40.046 23.9836 40.2413 23.2407 40.3903C22.4953 40.5428 21.7406 40.6484 20.9817 40.7067C20.1873 40.7638 19.3942 40.8364 18.5983 40.7845C17.7202 40.7238 16.8381 40.6548 15.9677 40.5251C15.2741 40.4202 14.5933 40.2255 13.9089 40.0582C12.4101 39.678 10.9704 39.0979 9.62891 38.3341C7.83362 37.3404 6.21505 36.0606 4.83878 34.5464C3.89942 33.5113 3.07273 32.3806 2.3729 31.1734C1.81809 30.2198 1.3541 29.217 0.986788 28.1782C0.747251 27.5023 0.594229 26.7964 0.407033 26.1025C-0.0378662 24.4161 -0.0406356 22.7051 0.040647 20.9876C0.0806726 20.4502 0.157952 19.9162 0.272179 19.3892C0.403032 18.7407 0.51972 18.0999 0.706916 17.4734C0.96585 16.6104 1.29129 15.7687 1.68046 14.9555C2.19587 13.8746 2.80918 12.8425 3.51301 11.8718C4.2698 10.8434 5.11773 9.88393 6.04663 9.00506C7.02757 8.07278 8.08824 7.22656 9.21665 6.47647C10.2561 5.77215 11.3531 5.15541 12.4966 4.63328C13.4455 4.20513 14.4194 3.8249 15.3997 3.46572C16.0539 3.23227 16.7214 3.06992 17.3902 2.89873C17.9767 2.7495 18.5682 2.62255 19.1639 2.50964C19.6873 2.40832 20.2107 2.34089 20.7345 2.25025C22.7878 1.89748 24.8599 1.96614 26.9276 2.02962C27.5219 2.04793 28.1149 2.15931 28.7075 2.23987C29.0518 2.28382 29.396 2.32929 29.7377 2.38758C30.154 2.4602 30.5675 2.54199 30.981 2.62896C31.4157 2.7199 31.8502 2.80931 32.2794 2.921C32.7911 3.0507 33.3003 3.19962 33.8043 3.36074C34.2348 3.49807 34.6615 3.65126 35.0802 3.81849C35.7493 4.08459 36.422 4.3452 37.0723 4.65006C38.8362 5.48652 40.4981 6.51919 42.0262 7.72856C42.8153 8.35994 43.5619 9.04168 44.2618 9.76888C45.066 10.6172 45.8006 11.5285 46.4579 12.4931C47.0035 13.2947 47.4847 14.1376 47.8976 15.0137C48.2421 15.7159 48.5233 16.4471 48.7378 17.1984C48.8425 17.5875 48.9866 17.9766 49.0873 18.3657C49.1634 18.6565 49.1985 18.9574 49.2508 19.2531C49.3216 19.6553 49.3924 20.0587 49.4589 20.4609C49.4805 20.5668 49.4925 20.6745 49.4956 20.7826C49.4956 21.8528 49.5205 22.923 49.4891 23.992C49.4746 24.4601 49.3582 24.9273 49.2733 25.393C49.2286 25.6524 49.1815 25.9221 49.1227 26.1843C49.0297 26.5901 48.946 27.0003 48.8228 27.3985C48.692 27.8383 48.5152 28.2649 48.3558 28.6958C47.9755 29.6836 47.5069 30.6357 46.9552 31.5405C46.4592 32.3812 45.8585 33.1466 45.2787 33.9275C44.6777 34.7102 44.2017 35.58 43.8677 36.5064C43.6786 37.0167 43.5161 37.5361 43.3809 38.0631C43.2682 38.5519 43.2408 39.0619 43.1688 39.5627C43.1013 40.0445 43.1013 40.5337 43.1688 41.0155C43.2343 41.4852 43.2787 41.9585 43.3652 42.423C43.424 42.7721 43.5167 43.1145 43.6426 43.4453C43.8757 44.0303 44.1374 44.6037 44.4108 45.1719C44.5641 45.4871 44.7812 45.7724 44.9437 46.08C45.1694 46.5152 45.2556 47.0084 45.191 47.4933C45.126 47.9785 44.9133 48.4322 44.581 48.7942C44.2488 49.1561 43.8129 49.4088 43.3316 49.5183C42.8507 49.6279 42.347 49.5891 41.8889 49.4072C41.3547 49.2077 40.8051 49.0453 40.2644 48.8573C39.1228 48.4585 38.0178 47.9623 36.9623 47.3745C35.8558 46.7764 34.825 46.0495 33.8921 45.2094C33.1864 44.5808 32.57 43.8603 32.0595 43.0678C31.6159 42.3583 31.7978 41.4956 32.4077 41.0818C33.2036 40.5395 34.0556 40.7793 34.5608 41.5072C35.1049 42.2887 35.7671 42.9826 36.5239 43.5646C37.5972 44.3952 38.7755 45.0831 40.0289 45.6104C40.5212 45.8191 41.0132 46.0254 41.5132 46.2357C41.6047 46.0916 41.5249 45.9867 41.4778 45.8881C41.1653 45.2292 40.9079 44.5466 40.7081 43.8462C40.128 41.9042 40.0381 39.8504 40.4464 37.8659C40.5563 37.2648 40.7013 36.6703 40.8811 36.0859C41.2558 34.8985 41.8067 33.7725 42.5157 32.7456C42.9582 32.1139 43.4188 31.495 43.8729 30.8725C44.4348 30.1001 44.9111 29.2704 45.2944 28.3973C45.5854 27.729 45.8425 27.0467 46.0638 26.353C46.2104 25.9053 46.272 25.4305 46.3782 24.97C46.6399 23.8427 46.6544 22.6999 46.6045 21.5543C46.5691 21.0172 46.5007 20.4826 46.4004 19.9537C46.3286 19.5186 46.2313 19.088 46.1097 18.6641C45.9462 18.0986 45.7747 17.5316 45.5561 16.9842C45.0672 15.7821 44.4293 14.6454 43.6571 13.5996C42.8889 12.5541 42.0114 11.5919 41.0394 10.7289C39.9221 9.7347 38.7025 8.85949 37.4008 8.11764C36.382 7.53294 35.3185 7.02759 34.2206 6.60647C33.5282 6.33518 32.812 6.1237 32.0974 5.911C31.4862 5.72943 30.8698 5.55945 30.2454 5.42701C29.6408 5.29731 29.0256 5.21553 28.4132 5.13405C27.8008 5.05227 27.2026 4.9952 26.6003 4.93814C26.2078 4.90426 25.8152 4.89389 25.4227 4.88748C24.9316 4.87832 24.4396 4.86154 23.95 4.88748C23.0929 4.93936 22.2357 5.01717 21.381 5.09774C20.9374 5.14046 20.4937 5.19753 20.0565 5.27809C19.5448 5.37269 19.038 5.49201 18.5343 5.61651C18.0303 5.74102 17.5029 5.8759 16.9988 6.03428C16.3104 6.25461 15.626 6.49081 14.9532 6.75294C14.0705 7.10114 13.2137 7.51097 12.3894 7.97879C11.5104 8.47437 10.6634 9.02398 9.85398 9.62485C8.80839 10.4106 7.84193 11.2947 6.96814 12.2648C6.34651 12.9331 5.79262 13.6603 5.31509 14.4364C4.94993 15.0385 4.60571 15.6558 4.29813 16.2875C4.06906 16.7819 3.87078 17.2896 3.7039 17.8078C3.52194 18.3437 3.35322 18.8872 3.2236 19.4374C3.12692 19.8536 3.12292 20.2922 3.03517 20.7124C2.88461 21.4414 2.93295 22.1756 2.92649 22.9098C2.93388 23.5782 3.01085 24.2437 3.15679 24.8962C3.25377 25.3695 3.33105 25.8483 3.46591 26.31C3.61954 26.844 3.80397 27.3692 4.01795 27.8822C4.3594 28.7003 4.77135 29.488 5.24981 30.2356C5.6162 30.8115 6.01523 31.3669 6.44473 31.8985C6.96106 32.539 7.53034 33.1362 8.14612 33.6837C9.406 34.8048 10.8321 35.7271 12.375 36.4182C13.1333 36.753 13.9135 37.0371 14.71 37.269C15.1654 37.3987 15.6417 37.4573 16.1026 37.5715C17.0724 37.8101 18.0657 37.8516 19.0512 37.8592C19.8653 37.8592 20.6846 37.8736 21.4934 37.7115C21.865 37.6377 22.2474 37.6182 22.6178 37.5403C23.0615 37.4454 23.4999 37.3249 23.9343 37.1976C24.3691 37.0707 24.7995 36.9382 25.2235 36.7786C26.4914 36.3032 27.6955 35.6758 28.8098 34.9107C30.0807 34.0532 31.1525 32.9778 32.2258 31.9012C33.4561 30.6686 34.7021 29.452 35.9244 28.2118C36.471 27.6344 36.9029 26.9603 37.1979 26.2245C37.4451 25.6386 37.6083 25.0219 37.6837 24.3914C37.7638 23.8232 37.7524 23.2461 37.6496 22.6816C37.5775 22.269 37.4818 21.8604 37.3629 21.4585C37.0405 20.467 36.4903 19.5631 35.7557 18.8185C34.9275 17.9512 33.8841 17.3147 32.7298 16.9726C31.8951 16.7129 31.0167 16.6216 30.146 16.704C28.5345 16.8441 27.0234 17.5393 25.8753 18.6693C25.7327 18.8149 25.5618 18.9308 25.3734 19.0102C25.185 19.0895 24.9824 19.131 24.7776 19.1319C24.5726 19.1328 24.3697 19.0935 24.1803 19.0157C23.9913 18.9381 23.8195 18.824 23.6754 18.6797C22.9626 17.9827 22.1067 17.4456 21.1661 17.1053C20.2258 16.7648 19.2224 16.629 18.2239 16.7065C16.5493 16.8514 14.9831 17.5881 13.8107 18.7822C13.1216 19.4761 12.5899 20.3074 12.2506 21.2211C11.8802 22.1814 11.741 23.2141 11.8436 24.237C11.9572 25.3286 12.3229 26.3793 12.9129 27.3076C13.3827 28.0458 14.0188 28.6347 14.6327 29.2445C15.3002 29.9073 15.9625 30.5768 16.6469 31.2228C17.2307 31.774 17.1913 32.8146 16.7242 33.2983C16.4468 33.5824 16.0678 33.7468 15.6691 33.7566C15.2704 33.7661 14.884 33.6196 14.5933 33.3489C14.1241 32.8924 13.6589 32.4304 13.1983 31.9635C12.5031 31.2576 11.8057 30.556 11.1302 29.8322C10.6052 29.2478 10.1788 28.5832 9.86722 27.8642C9.61722 27.3305 9.40754 26.7787 9.24036 26.2142C9.04392 25.5733 8.93709 24.909 8.92231 24.2398C8.92231 23.84 8.92231 23.4405 8.92231 23.0411C8.93801 22.4808 9.01622 21.9239 9.15507 21.3807C9.32934 20.6065 9.60151 19.857 9.96544 19.1505C10.5427 18.0135 11.3395 16.9997 12.3109 16.1669C13.1158 15.4751 14.028 14.9161 15.012 14.5117C15.4883 14.3378 15.9733 14.1883 16.465 14.0641C17.5266 13.7516 18.6168 13.7723 19.703 13.8254C20.1578 13.8654 20.6085 13.9408 21.051 14.0512C21.3875 14.1227 21.7172 14.2289 22.0485 14.325C22.7881 14.5584 23.4925 14.8901 24.1425 15.3107C24.3429 15.4391 24.5403 15.5871 24.7576 15.7376Z" fill="#FF599B"/>
<path d="M24.8245 32.3886C23.8288 32.396 22.8469 32.1573 21.9673 31.6947C21.1945 31.2895 20.4811 30.7814 19.8471 30.1848C19.1298 29.5427 19.2437 28.2091 20.1821 27.7953C20.4158 27.68 20.676 27.6281 20.9368 27.6449C21.1972 27.6617 21.4485 27.7468 21.6649 27.8911C21.841 28.0138 22.0073 28.1496 22.1625 28.2973C22.6637 28.7688 23.2626 29.1258 23.9174 29.344C24.3297 29.4838 24.7709 29.5186 25.2001 29.4453C26.1164 29.2677 26.8387 28.7706 27.5231 28.1896C27.637 28.091 27.7497 27.9897 27.8701 27.8991C28.4853 27.4386 29.662 27.6122 30.0272 28.4426C30.2821 29.0224 30.1697 29.7578 29.7039 30.1848C28.904 30.9138 28.0364 31.5418 27.0271 31.9477C26.3328 32.248 25.5819 32.3984 24.8245 32.3886Z" fill="#FF599B"/>
<path d="M19.7763 21.7113C20.9765 21.6734 21.7551 22.649 21.7656 23.6713C21.7524 24.1849 21.5371 24.6732 21.1658 25.0317C20.7945 25.3906 20.2967 25.5911 19.7782 25.5911C19.2597 25.5911 18.7618 25.3906 18.3905 25.0317C18.0192 24.6732 17.804 24.1849 17.7908 23.6713C17.7791 22.6295 18.6769 21.645 19.7763 21.7113Z" fill="#FF599B"/>
<path d="M29.7873 21.7125C30.7886 21.6399 31.76 22.5804 31.7507 23.6582C31.7427 24.1727 31.5324 24.6634 31.1642 25.0263C30.796 25.3888 30.2993 25.5942 29.7805 25.5987C29.2614 25.6033 28.7614 25.4068 28.3867 25.0507C28.012 24.6945 27.7928 24.2075 27.7759 23.6933C27.7642 22.675 28.5952 21.6566 29.7873 21.7125Z" fill="#FF599B"/>
</g>
<path d="M56.8362 37.2682V16.4487C56.8362 14.8341 57.4012 13.467 58.5309 12.3473C59.687 11.2014 61.0793 10.6286 62.7083 10.6286C63.9694 10.6286 65.099 10.9933 66.0975 11.7223C67.1222 12.4254 67.8316 13.3498 68.2257 14.4957L72.9154 27.6592C73.2569 28.6748 73.4933 29.5473 73.6248 30.2763L73.8218 31.37H74.0583L74.2553 30.2763C74.518 29.2348 74.7677 28.3623 75.0041 27.6592L79.6939 14.3394C80.0618 13.2457 80.7318 12.3604 81.7038 11.6833C82.7023 10.9802 83.8057 10.6286 85.0142 10.6286C86.538 10.6286 87.8517 11.1755 88.9552 12.2692C90.0587 13.337 90.6104 14.6388 90.6104 16.1753V37.112C90.6104 38.1016 90.2425 38.961 89.5069 39.69C88.7975 40.3931 87.9305 40.7446 86.9059 40.7446C85.9074 40.7446 85.0404 40.3931 84.3048 39.69C83.5955 38.961 83.2408 38.1016 83.2408 37.112V20.5111H83.0043L82.689 22.1125C82.4787 23.1281 82.1505 24.2868 81.7038 25.589L77.2899 38.1276C77.0273 38.8828 76.5544 39.5078 75.8712 40.0025C75.1879 40.4972 74.4262 40.7446 73.5854 40.7446C72.7445 40.7446 71.9828 40.4972 71.2996 40.0025C70.6164 39.5078 70.1435 38.8828 69.8809 38.1276L65.4276 25.589C65.0073 24.339 64.6788 23.1803 64.4423 22.1125C64.2847 21.3835 64.1797 20.8495 64.127 20.5111H63.8906V37.2682C63.8906 38.2316 63.5491 39.0519 62.8659 39.7291C62.1827 40.4062 61.3551 40.7446 60.3831 40.7446C59.4111 40.7446 58.5703 40.4062 57.8609 39.7291C57.1777 39.0519 56.8362 38.2316 56.8362 37.2682ZM95.9242 32.659V22.4641C95.9242 21.4745 96.2789 20.6282 96.9883 19.9251C97.7239 19.1961 98.5909 18.8314 99.5894 18.8314C100.588 18.8314 101.442 19.1961 102.151 19.9251C102.887 20.6282 103.254 21.4745 103.254 22.4641V31.5263C103.254 32.9846 103.544 34.013 104.121 34.6121C104.726 35.1849 105.409 35.4714 106.171 35.4714C107.195 35.4714 108.01 35.0677 108.614 34.2605C109.219 33.4534 109.521 32.2815 109.521 30.745V22.4641C109.521 21.4745 109.875 20.6282 110.585 19.9251C111.32 19.1961 112.187 18.8314 113.186 18.8314C114.184 18.8314 115.038 19.1961 115.747 19.9251C116.483 20.6282 116.851 21.4745 116.851 22.4641V37.3854C116.851 38.2969 116.509 39.091 115.826 39.7681C115.169 40.419 114.368 40.7446 113.422 40.7446C112.503 40.7446 111.701 40.419 111.018 39.7681C110.361 39.091 110.033 38.2969 110.033 37.3854V36.5651C108.693 39.4816 106.512 40.9399 103.491 40.9399C98.4465 40.9399 95.9242 38.1797 95.9242 32.659ZM119.738 21.5266C119.738 20.8757 119.974 20.3157 120.447 19.847C120.92 19.3783 121.485 19.1439 122.142 19.1439H123.245V18.4799C123.245 15.5372 123.941 13.3629 125.334 11.9567C126.726 10.5246 128.999 9.80834 132.152 9.80834C134.464 9.80834 135.62 10.7199 135.62 12.5426C135.62 13.3238 135.423 14.001 135.029 14.5738C134.634 15.1466 134.083 15.4331 133.373 15.4331C132.349 15.4331 131.626 15.6416 131.206 16.0581C130.786 16.4487 130.575 17.1777 130.575 18.2455V19.1439H132.743C133.4 19.1439 133.965 19.3783 134.437 19.847C134.91 20.3157 135.147 20.8757 135.147 21.5266C135.147 22.2038 134.91 22.7766 134.437 23.2453C133.965 23.714 133.4 23.9484 132.743 23.9484H130.575V37.112C130.575 38.1016 130.207 38.961 129.472 39.69C128.762 40.3931 127.909 40.7446 126.91 40.7446C125.912 40.7446 125.045 40.3931 124.309 39.69C123.6 38.961 123.245 38.1016 123.245 37.112V23.9484H122.142C121.485 23.9484 120.92 23.714 120.447 23.2453C119.974 22.7766 119.738 22.2038 119.738 21.5266ZM136.017 21.5266C136.017 20.8757 136.254 20.3157 136.727 19.847C137.199 19.3783 137.764 19.1439 138.421 19.1439H139.525V18.4799C139.525 15.5372 140.221 13.3629 141.613 11.9567C143.006 10.5246 145.278 9.80834 148.431 9.80834C150.743 9.80834 151.899 10.7199 151.899 12.5426C151.899 13.3238 151.702 14.001 151.308 14.5738C150.914 15.1466 150.362 15.4331 149.653 15.4331C148.628 15.4331 147.906 15.6416 147.485 16.0581C147.065 16.4487 146.855 17.1777 146.855 18.2455V19.1439H149.022C149.679 19.1439 150.244 19.3783 150.717 19.847C151.19 20.3157 151.426 20.8757 151.426 21.5266C151.426 22.2038 151.19 22.7766 150.717 23.2453C150.244 23.714 149.679 23.9484 149.022 23.9484H146.855V37.112C146.855 38.1016 146.487 38.961 145.751 39.69C145.042 40.3931 144.188 40.7446 143.19 40.7446C142.191 40.7446 141.324 40.3931 140.589 39.69C139.879 38.961 139.525 38.1016 139.525 37.112V23.9484H138.421C137.764 23.9484 137.199 23.714 136.727 23.2453C136.254 22.7766 136.017 22.2038 136.017 21.5266ZM155.134 15.2378C154.53 14.6388 154.228 13.9229 154.228 13.0895C154.228 12.2561 154.53 11.5401 155.134 10.9411C155.739 10.3421 156.461 10.0427 157.302 10.0427H159.115C159.956 10.0427 160.678 10.3421 161.282 10.9411C161.887 11.5401 162.189 12.2561 162.189 13.0895C162.189 13.9229 161.887 14.6388 161.282 15.2378C160.678 15.8369 159.956 16.1362 159.115 16.1362H157.302C156.461 16.1362 155.739 15.8369 155.134 15.2378ZM154.543 37.112V22.4641C154.543 21.4745 154.898 20.6282 155.607 19.9251C156.343 19.1961 157.21 18.8314 158.208 18.8314C159.207 18.8314 160.061 19.1961 160.77 19.9251C161.505 20.6282 161.873 21.4745 161.873 22.4641V37.112C161.873 38.1016 161.505 38.961 160.77 39.69C160.061 40.3931 159.207 40.7446 158.208 40.7446C157.21 40.7446 156.343 40.3931 155.607 39.69C154.898 38.961 154.543 38.1016 154.543 37.112ZM167.013 37.112V22.1907C167.013 21.2791 167.341 20.4979 167.998 19.847C168.681 19.1699 169.482 18.8314 170.402 18.8314C171.348 18.8314 172.149 19.1699 172.806 19.847C173.489 20.4979 173.831 21.2791 173.831 22.1907V22.7375C174.435 21.5657 175.315 20.6023 176.471 19.847C177.627 19.0917 179.059 18.7142 180.767 18.7142C185.811 18.7142 188.333 21.4745 188.333 26.9952V37.112C188.333 38.1016 187.965 38.961 187.23 39.69C186.52 40.3931 185.667 40.7446 184.668 40.7446C183.67 40.7446 182.803 40.3931 182.067 39.69C181.358 38.961 181.003 38.1016 181.003 37.112V28.1279C181.003 26.6696 180.688 25.654 180.057 25.0812C179.427 24.5084 178.704 24.2218 177.89 24.2218C175.525 24.2218 174.343 25.8233 174.343 29.0263V37.112C174.343 38.1016 173.975 38.961 173.239 39.69C172.53 40.3931 171.676 40.7446 170.678 40.7446C169.679 40.7446 168.812 40.3931 168.077 39.69C167.367 38.961 167.013 38.1016 167.013 37.112Z" fill="#FF599B"/>
</g>
<defs>
<clipPath id="clip0_4_782">
<rect width="188.333" height="50" fill="white" transform="translate(0 0.5)"/>
</clipPath>
</defs>
</svg>
