<svg width="40" height="41" viewBox="0 0 40 41" fill="none" xmlns="http://www.w3.org/2000/svg">
<mask id="path-1-inside-1_1213_2820" fill="white">
<path fill-rule="evenodd" clip-rule="evenodd" d="M20 40.5C31.0457 40.5 40 31.5457 40 20.5C40 20.4339 39.9997 20.3679 39.999 20.302C39.9918 19.5582 38.8769 19.4507 38.5396 20.1136C36.3093 24.4971 31.7553 27.5 26.5 27.5C19.0442 27.5 13 21.4558 13 14C13 8.74469 16.0029 4.19074 20.3864 1.9604C21.0493 1.62312 20.9418 0.508176 20.1981 0.50096C20.1321 0.500321 20.0661 0.5 20 0.5C8.9543 0.5 0 9.4543 0 20.5C0 31.5457 8.9543 40.5 20 40.5Z"/>
</mask>
<path fill-rule="evenodd" clip-rule="evenodd" d="M20 40.5C31.0457 40.5 40 31.5457 40 20.5C40 20.4339 39.9997 20.3679 39.999 20.302C39.9918 19.5582 38.8769 19.4507 38.5396 20.1136C36.3093 24.4971 31.7553 27.5 26.5 27.5C19.0442 27.5 13 21.4558 13 14C13 8.74469 16.0029 4.19074 20.3864 1.9604C21.0493 1.62312 20.9418 0.508176 20.1981 0.50096C20.1321 0.500321 20.0661 0.5 20 0.5C8.9543 0.5 0 9.4543 0 20.5C0 31.5457 8.9543 40.5 20 40.5Z" fill="#FF599B"/>
<path d="M39.999 20.302L38.297 20.3185L39.999 20.302ZM38.5396 20.1136L37.0225 19.3417L38.5396 20.1136ZM38.2979 20.5C38.2979 30.6056 30.1056 38.7979 20 38.7979V42.2021C31.9858 42.2021 41.7021 32.4858 41.7021 20.5H38.2979ZM38.297 20.3185C38.2976 20.3789 38.2979 20.4394 38.2979 20.5H41.7021C41.7021 20.4284 41.7018 20.3569 41.7011 20.2854L38.297 20.3185ZM37.0225 19.3417C35.0713 23.1768 31.0902 25.7979 26.5 25.7979V29.2021C32.4204 29.2021 37.5472 25.8175 40.0566 20.8855L37.0225 19.3417ZM26.5 25.7979C19.9842 25.7979 14.7021 20.5158 14.7021 14H11.2979C11.2979 22.3959 18.1041 29.2021 26.5 29.2021V25.7979ZM14.7021 14C14.7021 9.40975 17.3233 5.42872 21.1583 3.47745L19.6145 0.443347C14.6825 2.95276 11.2979 8.07963 11.2979 14H14.7021ZM20 2.20213C20.0606 2.20213 20.1211 2.20242 20.1815 2.20301L20.2146 -1.20109C20.1431 -1.20178 20.0716 -1.20213 20 -1.20213V2.20213ZM1.70213 20.5C1.70213 10.3944 9.89436 2.20213 20 2.20213V-1.20213C8.01425 -1.20213 -1.70213 8.51425 -1.70213 20.5H1.70213ZM20 38.7979C9.89436 38.7979 1.70213 30.6056 1.70213 20.5H-1.70213C-1.70213 32.4858 8.01425 42.2021 20 42.2021V38.7979ZM21.1583 3.47745C22.2496 2.9222 22.6115 1.7891 22.5107 0.912557C22.4055 -0.00249678 21.683 -1.18684 20.2146 -1.20109L20.1815 2.20301C19.9052 2.20033 19.6094 2.07894 19.3951 1.85129C19.206 1.65048 19.1445 1.43867 19.1287 1.30125C19.102 1.06831 19.1861 0.661314 19.6145 0.443347L21.1583 3.47745ZM41.7011 20.2854C41.6868 18.817 40.5025 18.0945 39.5874 17.9893C38.7109 17.8886 37.5778 18.2504 37.0225 19.3417L40.0566 20.8855C39.8387 21.3139 39.4317 21.3981 39.1987 21.3713C39.0613 21.3555 38.8495 21.294 38.6487 21.1049C38.4211 20.8906 38.2997 20.5948 38.297 20.3185L41.7011 20.2854Z" fill="#FF599B" mask="url(#path-1-inside-1_1213_2820)"/>
</svg>
