<svg width="41" height="41" viewBox="0 0 41 41" fill="none" xmlns="http://www.w3.org/2000/svg">
<path fill-rule="evenodd" clip-rule="evenodd" d="M20.9781 1.03804C20.6149 0.320655 19.5904 0.320655 19.2273 1.03804L17.4492 4.55082C17.1664 5.10944 16.4398 5.26387 15.9543 4.86856L12.9011 2.3827C12.2776 1.87504 11.3417 2.29175 11.3017 3.0948L11.1061 7.02712C11.075 7.65245 10.4741 8.08906 9.86974 7.92541L6.06943 6.8963C5.29334 6.68613 4.6078 7.44749 4.89794 8.19737L6.31865 11.8693C6.54458 12.4532 6.17318 13.0965 5.55452 13.1928L1.6642 13.7984C0.869714 13.9221 0.553123 14.8964 1.12318 15.4635L3.91457 18.2401C4.35846 18.6816 4.28082 19.4203 3.75482 19.7599L0.447144 21.8955C-0.22835 22.3316 -0.121259 23.3505 0.630149 23.6367L4.30955 25.0379C4.89467 25.2607 5.12421 25.9672 4.78181 26.4913L2.62871 29.7876C2.18901 30.4608 2.70126 31.3481 3.5041 31.3039L7.43532 31.0874C8.06048 31.0529 8.55751 31.6049 8.45792 32.2231L7.83169 36.1101C7.7038 36.9039 8.53265 37.5061 9.24809 37.1392L12.7514 35.3425C13.3085 35.0567 13.9871 35.3589 14.1475 35.9641L15.1564 39.7698C15.3625 40.547 16.3646 40.76 16.8689 40.1338L19.3386 37.0674C19.7313 36.5798 20.4741 36.5798 20.8668 37.0674L23.3364 40.1338C23.8408 40.76 24.8429 40.547 25.0489 39.7698L26.0579 35.9641C26.2183 35.3589 26.8969 35.0567 27.454 35.3425L30.9573 37.1392C31.6727 37.5061 32.5016 36.9039 32.3737 36.1101L31.7475 32.2231C31.6479 31.6049 32.1449 31.0529 32.7701 31.0874L36.7013 31.3039C37.5041 31.3481 38.0164 30.4608 37.5767 29.7876L35.4236 26.4913C35.0812 25.9672 35.3107 25.2607 35.8958 25.0379L39.5752 23.6367C40.3266 23.3505 40.4337 22.3316 39.7582 21.8955L36.4506 19.7599C35.9246 19.4203 35.8469 18.6816 36.2908 18.2401L39.0822 15.4635C39.6523 14.8964 39.3357 13.9221 38.5412 13.7984L34.6509 13.1928C34.0322 13.0965 33.6608 12.4532 33.8867 11.8693L35.3074 8.19737C35.5976 7.44749 34.912 6.68613 34.1359 6.8963L30.3356 7.92541C29.7313 8.08906 29.1304 7.65245 29.0993 7.02712L28.9036 3.0948C28.8637 2.29175 27.9277 1.87504 27.3042 2.3827L24.2511 4.86856C23.7655 5.26387 23.039 5.10944 22.7562 4.55082L20.9781 1.03804ZM20.1027 33.4034C27.1131 33.4034 32.7962 27.7203 32.7962 20.7098C32.7962 13.6994 27.1131 8.01631 20.1027 8.01631C13.0922 8.01631 7.40915 13.6994 7.40915 20.7098C7.40915 27.7203 13.0922 33.4034 20.1027 33.4034Z" fill="#FF599B"/>
</svg>
