<svg width="95" height="95" viewBox="0 0 95 95" fill="none" xmlns="http://www.w3.org/2000/svg">
<path d="M47.503 0.000793457C21.2987 0.000793457 0.0546875 21.2444 0.0546875 47.4481C0.0546875 73.652 21.2987 94.8926 47.503 94.8926C73.7052 94.8926 94.9471 73.652 94.9471 47.4481C94.9471 21.2444 73.7052 0.000793457 47.503 0.000793457Z" fill="#FF599B"/>
<path d="M71.7661 37.0219L39.9543 68.834C38.4011 70.386 35.8863 70.386 34.3351 68.834L23.2669 57.7671C21.5297 56.0306 21.4885 53.1475 23.2572 51.4451C24.9729 49.795 27.6993 49.8149 29.3896 51.505L37.1437 59.2597L65.573 30.8295C67.2828 29.1197 70.0562 29.1197 71.7661 30.8295C73.476 32.5398 73.476 35.3114 71.7661 37.0219Z" fill="white"/>
</svg>
